<svg width="25" height="24" viewBox="0 0 25 24" fill="none" xmlns="http://www.w3.org/2000/svg">
<g clip-path="url(#clip0_37_566)">
<path d="M16.207 9.707L13.914 12L16.207 14.293C16.598 14.684 16.598 15.316 16.207 15.707C16.012 15.902 15.756 16 15.5 16C15.244 16 14.988 15.902 14.793 15.707L12.5 13.414L10.207 15.707C10.012 15.902 9.756 16 9.5 16C9.244 16 8.988 15.902 8.793 15.707C8.402 15.316 8.402 14.684 8.793 14.293L11.086 12L8.793 9.707C8.402 9.316 8.402 8.684 8.793 8.293C9.184 7.902 9.816 7.902 10.207 8.293L12.5 10.586L14.793 8.293C15.184 7.902 15.816 7.902 16.207 8.293C16.598 8.684 16.598 9.316 16.207 9.707ZM24.5 12C24.5 18.617 19.117 24 12.5 24C5.883 24 0.5 18.617 0.5 12C0.5 5.383 5.883 0 12.5 0C19.117 0 24.5 5.383 24.5 12ZM22.5 12C22.5 6.486 18.014 2 12.5 2C6.986 2 2.5 6.486 2.5 12C2.5 17.514 6.986 22 12.5 22C18.014 22 22.5 17.514 22.5 12Z" fill="black"/>
</g>
<defs>
<clipPath id="clip0_37_566">
<rect width="24" height="24" fill="white" transform="translate(0.5)"/>
</clipPath>
</defs>
</svg>
