<svg width="20" height="20" viewBox="0 0 20 20" fill="none" xmlns="http://www.w3.org/2000/svg">
<g clip-path="url(#clip0_37_570)">
<path d="M18.9717 3.80494C18.6672 3.6781 18.3318 3.64475 18.0083 3.70916C17.6847 3.77357 17.3877 3.93281 17.155 4.16661L15 6.32161L11.1783 2.49994C10.8658 2.18749 10.4419 2.01196 10 2.01196C9.55806 2.01196 9.13421 2.18749 8.82167 2.49994L5 6.32161L2.845 4.16661C2.61191 3.93359 2.31497 3.77491 1.99172 3.71063C1.66846 3.64636 1.33341 3.67936 1.02891 3.80548C0.724409 3.93159 0.464138 4.14516 0.280997 4.41918C0.0978568 4.69319 7.03739e-05 5.01536 0 5.34494L0 14.1666C0.00132321 15.2713 0.440735 16.3303 1.22185 17.1114C2.00296 17.8925 3.062 18.332 4.16667 18.3333H15.8333C16.938 18.332 17.997 17.8925 18.7782 17.1114C19.5593 16.3303 19.9987 15.2713 20 14.1666V5.34494C20.0001 5.01533 19.9024 4.6931 19.7194 4.41898C19.5364 4.14487 19.2761 3.93118 18.9717 3.80494Z" fill="#DAA428"/>
</g>
<defs>
<clipPath id="clip0_37_570">
<rect width="20" height="20" fill="white"/>
</clipPath>
</defs>
</svg>
