<svg width="620" height="128" viewBox="0 0 620 128" fill="none" xmlns="http://www.w3.org/2000/svg">
<g clip-path="url(#clip0_2046_841)">
<path d="M592.426 127.844L619.511 72.0804L618.834 70.5211L564.25 53.6396L562.906 54.2221L548.827 83.2073L549.504 84.7665L585.224 95.7993L572.789 121.401L573.467 122.96L591.082 128.421L592.426 127.838L592.426 127.844ZM616.918 72.2746L590.828 125.997L575.388 121.213L587.823 95.6051L587.145 94.0458L551.426 83.0131L564.515 56.0697L616.93 72.2805L616.918 72.2746Z" fill="#02AA7B"/>
<path d="M544.749 42.3538L545.898 10.6502L545.255 10.0618L516.195 13.4099L515.689 13.9571L515.087 30.4385L515.73 31.0269L534.748 28.8322L534.217 43.3894L534.86 43.9779L544.236 42.9011L544.743 42.3538L544.749 42.3538ZM544.725 11.274L543.617 41.8184L535.396 42.7598L535.926 28.2025L535.284 27.6141L516.266 29.8089L516.82 14.4867L544.725 11.274Z" fill="#02AA7B"/>
<path d="M497.466 21.2416L504.644 4.67199L504.426 4.22479L488.332 1.79809e-07L487.948 0.188292L484.218 8.79675L484.436 9.24394L494.973 12.0036L491.679 19.6117L491.897 20.0589L497.089 21.4241L497.472 21.2358L497.466 21.2416ZM503.896 4.76025L496.983 20.7238L492.427 19.5235L495.722 11.9153L495.504 11.4681L484.966 8.70849L488.438 0.706094L503.896 4.76025Z" fill="#02AA7B"/>
</g>
<g clip-path="url(#clip1_2046_841)">
<path d="M27.5745 127.844L0.488702 72.0804L1.16644 70.5211L55.7505 53.6396L57.0942 54.2221L71.1733 83.2073L70.4956 84.7665L34.7761 95.7993L47.211 121.401L46.5333 122.96L28.9181 128.421L27.5745 127.838L27.5745 127.844ZM3.08177 72.2746L29.1716 125.997L44.6121 121.213L32.1772 95.6051L32.8549 94.0458L68.5744 83.0131L55.4853 56.0697L3.06999 72.2805L3.08177 72.2746Z" fill="#02AA7B"/>
<path d="M75.2516 42.3538L74.1024 10.6502L74.7447 10.0618L103.805 13.4099L104.312 13.9571L104.913 30.4385L104.27 31.0269L85.2526 28.8322L85.783 43.3894L85.1406 43.9779L75.7643 42.9011L75.2575 42.3538L75.2516 42.3538ZM75.2751 11.274L76.3831 41.8184L84.6043 42.7598L84.0739 28.2025L84.7163 27.6141L103.734 29.8089L103.18 14.4867L75.2751 11.274Z" fill="#02AA7B"/>
<path d="M122.534 21.2416L115.356 4.67199L115.574 4.22479L131.668 1.79809e-07L132.052 0.188292L135.782 8.79675L135.564 9.24394L125.027 12.0036L128.321 19.6117L128.103 20.0589L122.911 21.4241L122.528 21.2358L122.534 21.2416ZM116.104 4.76025L123.017 20.7238L127.573 19.5235L124.278 11.9153L124.496 11.4681L135.034 8.70849L131.562 0.706094L116.104 4.76025Z" fill="#02AA7B"/>
</g>
<defs>
<clipPath id="clip0_2046_841">
<rect width="128" height="136" fill="white" transform="matrix(-4.37114e-08 1 1 4.37114e-08 484 0)"/>
</clipPath>
<clipPath id="clip1_2046_841">
<rect width="128" height="136" fill="white" transform="translate(136) rotate(90)"/>
</clipPath>
</defs>
</svg>
