<svg width="21" height="20" viewBox="0 0 21 20" fill="none" xmlns="http://www.w3.org/2000/svg">
<g clip-path="url(#clip0_37_248)">
<path d="M20.2156 8.16667C20.5481 7.74046 20.7344 7.2184 20.7467 6.67798C20.759 6.13756 20.5967 5.60757 20.284 5.16667L17.3415 1.0475C17.1103 0.7236 16.8051 0.459576 16.4513 0.277384C16.0975 0.0951914 15.7053 9.42806e-05 15.3073 0L6.19231 0C5.79435 9.42806e-05 5.40216 0.0951914 5.04836 0.277384C4.69456 0.459576 4.38936 0.7236 4.15814 1.0475L1.21564 5.16667C0.903513 5.60794 0.741849 6.13803 0.754607 6.67839C0.767366 7.21875 0.953868 7.74062 1.28648 8.16667L10.7498 20.09L20.2156 8.16667ZM6.79398 7.5L9.12731 15.36L2.88481 7.5H6.79398ZM18.6148 7.5L12.3765 15.36L14.7056 7.5H18.6148ZM12.9673 7.5L10.7498 14.9825L8.53231 7.5H12.9673ZM8.52148 5.83333L9.71148 1.66667H11.7881L12.9781 5.83333H8.52148ZM15.9856 2.01583L18.7123 5.83333H14.7123L13.5215 1.66667H15.3073C15.44 1.66665 15.5708 1.69833 15.6888 1.75906C15.8068 1.8198 15.9085 1.90783 15.9856 2.01583ZM5.51398 2.01583C5.59108 1.90783 5.69285 1.8198 5.81084 1.75906C5.92883 1.69833 6.05961 1.66665 6.19231 1.66667H7.97814L6.78814 5.83333H2.78814L5.51398 2.01583Z" fill="black"/>
</g>
<defs>
<clipPath id="clip0_37_248">
<rect width="20" height="20" fill="white" transform="translate(0.75)"/>
</clipPath>
</defs>
</svg>
