<svg width="21" height="20" viewBox="0 0 21 20" fill="none" xmlns="http://www.w3.org/2000/svg">
<g clip-path="url(#clip0_37_237)">
<path d="M0.5 10C0.5 11.9778 1.08649 13.9112 2.1853 15.5557C3.28412 17.2002 4.8459 18.4819 6.67317 19.2388C8.50043 19.9957 10.5111 20.1937 12.4509 19.8079C14.3907 19.422 16.1725 18.4696 17.5711 17.0711C18.9696 15.6725 19.922 13.8907 20.3079 11.9509C20.6937 10.0111 20.4957 8.00043 19.7388 6.17317C18.9819 4.3459 17.7002 2.78412 16.0557 1.6853C14.4112 0.58649 12.4778 0 10.5 0C7.84872 0.00286757 5.30684 1.05736 3.4321 2.9321C1.55736 4.80684 0.502868 7.34872 0.5 10ZM18.8333 10C18.8333 11.6482 18.3446 13.2593 17.4289 14.6298C16.5132 16.0002 15.2117 17.0683 13.689 17.699C12.1663 18.3297 10.4908 18.4948 8.87425 18.1732C7.25774 17.8517 5.77288 17.058 4.60744 15.8926C3.44201 14.7271 2.64833 13.2423 2.32679 11.6258C2.00525 10.0092 2.17027 8.33369 2.801 6.81097C3.43173 5.28825 4.49984 3.98677 5.87025 3.07109C7.24066 2.15541 8.85182 1.66667 10.5 1.66667C12.7094 1.66909 14.8276 2.54785 16.3899 4.11012C17.9522 5.6724 18.8309 7.79061 18.8333 10Z" fill="black"/>
<path d="M13.8335 9.99997C13.8341 10.61 13.6111 11.1991 13.2068 11.6558C12.9643 11.9283 12.7285 12.1866 12.5593 12.3558L10.206 14.75C10.1306 14.8332 10.0392 14.9003 9.93727 14.9474C9.83533 14.9944 9.72493 15.0203 9.61271 15.0236C9.50049 15.0269 9.38876 15.0075 9.28423 14.9666C9.1797 14.9256 9.08452 14.864 9.00441 14.7853C8.92429 14.7067 8.8609 14.6126 8.81803 14.5089C8.77516 14.4051 8.7537 14.2937 8.75493 14.1815C8.75617 14.0692 8.78007 13.9584 8.82522 13.8556C8.87036 13.7528 8.9358 13.6602 9.01763 13.5833L11.3751 11.1833C11.531 11.0266 11.7426 10.7933 11.9585 10.5508C12.0927 10.3986 12.1668 10.2025 12.1668 9.99955C12.1668 9.79655 12.0927 9.60054 11.9585 9.4483C11.7435 9.20663 11.5318 8.9733 11.381 8.82163L9.01763 6.41663C8.9358 6.33976 8.87036 6.24715 8.82522 6.14436C8.78007 6.04157 8.75617 5.93071 8.75493 5.81845C8.7537 5.70619 8.77516 5.59484 8.81803 5.49108C8.8609 5.38731 8.92429 5.29329 9.00441 5.21463C9.08452 5.13598 9.1797 5.07433 9.28423 5.03338C9.38876 4.99242 9.50049 4.97301 9.61271 4.97631C9.72493 4.97961 9.83533 5.00555 9.93727 5.05258C10.0392 5.0996 10.1306 5.16674 10.206 5.24997L12.5635 7.64913C12.7301 7.8158 12.9635 8.07163 13.2043 8.3433C13.6099 8.79977 13.8338 9.3893 13.8335 9.99997Z" fill="black"/>
</g>
<defs>
<clipPath id="clip0_37_237">
<rect width="20" height="20" fill="white" transform="translate(0.5)"/>
</clipPath>
</defs>
</svg>
