<svg width="17" height="20" viewBox="0 0 17 20" fill="none" xmlns="http://www.w3.org/2000/svg">
<g clip-path="url(#clip0_37_256)">
<path d="M8.25 10C9.23891 10 10.2056 9.70676 11.0279 9.15735C11.8501 8.60794 12.491 7.82705 12.8694 6.91342C13.2478 5.99979 13.3469 4.99446 13.1539 4.02455C12.961 3.05465 12.4848 2.16373 11.7855 1.46447C11.0863 0.765206 10.1954 0.289002 9.22545 0.0960758C8.25555 -0.0968503 7.25021 0.00216643 6.33658 0.380605C5.42295 0.759043 4.64206 1.39991 4.09265 2.22215C3.54324 3.0444 3.25 4.0111 3.25 5C3.25132 6.32568 3.77853 7.59668 4.71593 8.53407C5.65332 9.47147 6.92432 9.99868 8.25 10ZM8.25 1.66667C8.90927 1.66667 9.55374 1.86217 10.1019 2.22844C10.6501 2.59471 11.0773 3.1153 11.3296 3.72439C11.5819 4.33348 11.6479 5.0037 11.5193 5.6503C11.3907 6.29691 11.0732 6.89085 10.607 7.35702C10.1408 7.8232 9.5469 8.14067 8.9003 8.26929C8.2537 8.3979 7.58348 8.33189 6.97439 8.0796C6.3653 7.82731 5.84471 7.40007 5.47843 6.8519C5.11216 6.30374 4.91667 5.65927 4.91667 5C4.91667 4.11595 5.26786 3.2681 5.89298 2.64298C6.5181 2.01786 7.36594 1.66667 8.25 1.66667Z" fill="black"/>
<path d="M8.25 11.6666C6.26155 11.6688 4.35518 12.4597 2.94914 13.8658C1.54309 15.2718 0.752206 17.1782 0.75 19.1666C0.75 19.3876 0.837797 19.5996 0.994078 19.7559C1.15036 19.9122 1.36232 20 1.58333 20C1.80435 20 2.01631 19.9122 2.17259 19.7559C2.32887 19.5996 2.41667 19.3876 2.41667 19.1666C2.41667 17.6195 3.03125 16.1358 4.12521 15.0418C5.21917 13.9479 6.7029 13.3333 8.25 13.3333C9.7971 13.3333 11.2808 13.9479 12.3748 15.0418C13.4688 16.1358 14.0833 17.6195 14.0833 19.1666C14.0833 19.3876 14.1711 19.5996 14.3274 19.7559C14.4837 19.9122 14.6957 20 14.9167 20C15.1377 20 15.3496 19.9122 15.5059 19.7559C15.6622 19.5996 15.75 19.3876 15.75 19.1666C15.7478 17.1782 14.9569 15.2718 13.5509 13.8658C12.1448 12.4597 10.2384 11.6688 8.25 11.6666Z" fill="black"/>
</g>
<defs>
<clipPath id="clip0_37_256">
<rect width="16" height="20" fill="white" transform="translate(0.25)"/>
</clipPath>
</defs>
</svg>
