<svg width="21" height="20" viewBox="0 0 21 20" fill="none" xmlns="http://www.w3.org/2000/svg">
<g clip-path="url(#clip0_54_7374)">
<path d="M20.5 10C20.5 11.9778 19.9135 13.9112 18.8147 15.5557C17.7159 17.2002 16.1541 18.4819 14.3268 19.2388C12.4996 19.9957 10.4889 20.1937 8.5491 19.8079C6.60929 19.422 4.82746 18.4696 3.42893 17.0711C2.03041 15.6725 1.078 13.8907 0.692147 11.9509C0.306295 10.0111 0.504328 8.00043 1.2612 6.17317C2.01808 4.3459 3.2998 2.78412 4.9443 1.6853C6.58879 0.58649 8.52219 0 10.5 0C13.1513 0.00286757 15.6932 1.05736 17.5679 2.9321C19.4426 4.80684 20.4971 7.34872 20.5 10ZM2.16667 10C2.16667 11.6482 2.65541 13.2593 3.57109 14.6298C4.48676 16.0002 5.78825 17.0683 7.31097 17.699C8.83369 18.3297 10.5092 18.4948 12.1258 18.1732C13.7423 17.8517 15.2271 17.058 16.3926 15.8926C17.558 14.7271 18.3517 13.2423 18.6732 11.6258C18.9948 10.0092 18.8297 8.33369 18.199 6.81097C17.5683 5.28825 16.5002 3.98677 15.1298 3.07109C13.7593 2.15541 12.1482 1.66667 10.5 1.66667C8.29061 1.66909 6.1724 2.54785 4.61012 4.11012C3.04785 5.6724 2.16909 7.79061 2.16667 10Z" fill="black"/>
<path d="M7.16666 10C7.16604 10.61 7.38898 11.1991 7.79333 11.6558C8.03583 11.9283 8.27166 12.1867 8.44083 12.3558L10.7942 14.75C10.8695 14.8332 10.9609 14.9004 11.0629 14.9474C11.1648 14.9944 11.2752 15.0204 11.3874 15.0237C11.4996 15.027 11.6114 15.0075 11.7159 14.9666C11.8204 14.9256 11.9156 14.864 11.9957 14.7853C12.0758 14.7067 12.1392 14.6127 12.1821 14.5089C12.225 14.4051 12.2464 14.2938 12.2452 14.1815C12.244 14.0693 12.22 13.9584 12.1749 13.8556C12.1298 13.7528 12.0643 13.6602 11.9825 13.5833L9.62499 11.1833C9.46916 11.0267 9.25749 10.7933 9.04166 10.5508C8.90738 10.3986 8.83328 10.2026 8.83328 9.99958C8.83328 9.79658 8.90738 9.60057 9.04166 9.44833C9.25666 9.20666 9.46833 8.97333 9.61916 8.82167L11.9825 6.41666C12.0643 6.33979 12.1298 6.24718 12.1749 6.14439C12.22 6.0416 12.244 5.93074 12.2452 5.81848C12.2464 5.70622 12.225 5.59487 12.1821 5.49111C12.1392 5.38734 12.0758 5.29332 11.9957 5.21466C11.9156 5.13601 11.8204 5.07436 11.7159 5.03341C11.6114 4.99245 11.4996 4.97304 11.3874 4.97634C11.2752 4.97964 11.1648 5.00558 11.0629 5.05261C10.9609 5.09964 10.8695 5.16677 10.7942 5.25L8.43666 7.64916C8.26999 7.81583 8.03666 8.07166 7.79583 8.34333C7.39018 8.7998 7.16629 9.38933 7.16666 10Z" fill="black"/>
</g>
<defs>
<clipPath id="clip0_54_7374">
<rect width="20" height="20" fill="white" transform="matrix(-1 0 0 1 20.5 0)"/>
</clipPath>
</defs>
</svg>
