<svg width="18" height="18" viewBox="0 0 18 18" fill="none" xmlns="http://www.w3.org/2000/svg">
<path d="M16.7189 10.5783L16.2321 10.4641L16.7189 10.5783ZM16.7189 5.72756L16.2321 5.84174L16.7189 5.72756ZM2.96456 5.72756L2.47777 5.61338L2.96456 5.72756ZM2.96456 10.5783L2.47777 10.6925L2.96456 10.5783ZM7.41636 15.0301L7.53054 14.5433L7.41636 15.0301ZM12.2671 15.0301L12.3812 15.5169L12.2671 15.0301ZM12.2671 1.27576L12.3813 0.788977L12.2671 1.27576ZM7.41636 1.27576L7.30217 0.788976L7.41636 1.27576ZM1.35306 17.3487C1.1578 17.5439 0.841221 17.5439 0.645958 17.3487C0.450695 17.1534 0.450695 16.8368 0.645958 16.6416L1.35306 17.3487ZM16.2321 10.4641C16.5887 8.94394 16.5887 7.3619 16.2321 5.84174L17.2057 5.61338C17.5975 7.28373 17.5975 9.0221 17.2057 10.6925L16.2321 10.4641ZM3.45135 5.84175C3.09477 7.3619 3.09477 8.94394 3.45135 10.4641L2.47777 10.6925C2.08596 9.0221 2.08596 7.28374 2.47777 5.61338L3.45135 5.84175ZM7.53054 14.5433C9.05069 14.8999 10.6327 14.8999 12.1529 14.5433L12.3812 15.5169C10.7109 15.9087 8.97253 15.9087 7.30217 15.5169L7.53054 14.5433ZM12.1529 1.76255C10.6327 1.40597 9.05069 1.40597 7.53054 1.76255L7.30217 0.788976C8.97253 0.397164 10.7109 0.397164 12.3813 0.788977L12.1529 1.76255ZM12.1529 14.5433C14.1769 14.0685 15.7573 12.4881 16.2321 10.4641L17.2057 10.6925C16.6441 13.0863 14.775 14.9554 12.3812 15.5169L12.1529 14.5433ZM7.30217 15.5169C4.90837 14.9554 3.03928 13.0863 2.47777 10.6925L3.45135 10.4641C3.92612 12.4881 5.5065 14.0685 7.53054 14.5433L7.30217 15.5169ZM7.53054 1.76255C5.5065 2.23733 3.92612 3.81771 3.45135 5.84175L2.47777 5.61338C3.03928 3.21958 4.90837 1.35049 7.30217 0.788976L7.53054 1.76255ZM12.3813 0.788977C14.775 1.35048 16.6441 3.21958 17.2057 5.61338L16.2321 5.84174C15.7573 3.81771 14.1769 2.23733 12.1529 1.76255L12.3813 0.788977ZM4.61072 14.091L1.35306 17.3487L0.645958 16.6416L3.90361 13.3839L4.61072 14.091Z" fill="#979797"/>
</svg>
