<svg width="21" height="20" viewBox="0 0 21 20" fill="none" xmlns="http://www.w3.org/2000/svg">
<g clip-path="url(#clip0_37_259)">
<path d="M19.4166 9.16663H17.7499V7.49996C17.7499 7.27895 17.6621 7.06698 17.5058 6.9107C17.3496 6.75442 17.1376 6.66663 16.9166 6.66663C16.6956 6.66663 16.4836 6.75442 16.3273 6.9107C16.171 7.06698 16.0833 7.27895 16.0833 7.49996V9.16663H14.4166C14.1956 9.16663 13.9836 9.25442 13.8273 9.4107C13.671 9.56698 13.5833 9.77895 13.5833 9.99996C13.5833 10.221 13.671 10.4329 13.8273 10.5892C13.9836 10.7455 14.1956 10.8333 14.4166 10.8333H16.0833V12.5C16.0833 12.721 16.171 12.9329 16.3273 13.0892C16.4836 13.2455 16.6956 13.3333 16.9166 13.3333C17.1376 13.3333 17.3496 13.2455 17.5058 13.0892C17.6621 12.9329 17.7499 12.721 17.7499 12.5V10.8333H19.4166C19.6376 10.8333 19.8496 10.7455 20.0058 10.5892C20.1621 10.4329 20.2499 10.221 20.2499 9.99996C20.2499 9.77895 20.1621 9.56698 20.0058 9.4107C19.8496 9.25442 19.6376 9.16663 19.4166 9.16663Z" fill="black"/>
<path d="M7.75 10C8.73891 10 9.70561 9.70676 10.5279 9.15735C11.3501 8.60794 11.991 7.82705 12.3694 6.91342C12.7478 5.99979 12.8469 4.99446 12.6539 4.02455C12.461 3.05465 11.9848 2.16373 11.2855 1.46447C10.5863 0.765206 9.69536 0.289002 8.72545 0.0960758C7.75555 -0.0968503 6.75021 0.00216643 5.83658 0.380605C4.92295 0.759043 4.14206 1.39991 3.59265 2.22215C3.04324 3.0444 2.75 4.0111 2.75 5C2.75132 6.32568 3.27853 7.59668 4.21593 8.53407C5.15332 9.47147 6.42432 9.99868 7.75 10ZM7.75 1.66667C8.40927 1.66667 9.05374 1.86217 9.6019 2.22844C10.1501 2.59471 10.5773 3.1153 10.8296 3.72439C11.0819 4.33348 11.1479 5.0037 11.0193 5.6503C10.8907 6.29691 10.5732 6.89085 10.107 7.35703C9.64085 7.8232 9.0469 8.14067 8.4003 8.26929C7.7537 8.3979 7.08348 8.33189 6.47439 8.0796C5.8653 7.82731 5.34471 7.40007 4.97843 6.8519C4.61216 6.30374 4.41667 5.65927 4.41667 5C4.41667 4.11595 4.76786 3.2681 5.39298 2.64298C6.0181 2.01786 6.86594 1.66667 7.75 1.66667Z" fill="black"/>
<path d="M7.75 11.6666C5.76155 11.6688 3.85518 12.4597 2.44914 13.8658C1.04309 15.2718 0.252206 17.1782 0.25 19.1666C0.25 19.3876 0.337797 19.5996 0.494078 19.7559C0.650358 19.9122 0.86232 20 1.08333 20C1.30435 20 1.51631 19.9122 1.67259 19.7559C1.82887 19.5996 1.91667 19.3876 1.91667 19.1666C1.91667 17.6195 2.53125 16.1358 3.62521 15.0418C4.71917 13.9479 6.2029 13.3333 7.75 13.3333C9.2971 13.3333 10.7808 13.9479 11.8748 15.0418C12.9688 16.1358 13.5833 17.6195 13.5833 19.1666C13.5833 19.3876 13.6711 19.5996 13.8274 19.7559C13.9837 19.9122 14.1957 20 14.4167 20C14.6377 20 14.8496 19.9122 15.0059 19.7559C15.1622 19.5996 15.25 19.3876 15.25 19.1666C15.2478 17.1782 14.4569 15.2718 13.0509 13.8658C11.6448 12.4597 9.73845 11.6688 7.75 11.6666Z" fill="black"/>
</g>
<defs>
<clipPath id="clip0_37_259">
<rect width="20" height="20" fill="white" transform="translate(0.25)"/>
</clipPath>
</defs>
</svg>
