<svg width="136" height="18" viewBox="0 0 136 18" fill="none" xmlns="http://www.w3.org/2000/svg">
<path fill-rule="evenodd" clip-rule="evenodd" d="M116.438 6.84122C116.531 6.57464 116.784 6.40216 117.081 6.40216L123.164 6.38778L125.082 1.0759C125.178 0.810636 125.428 0.632267 125.731 0.643374C126.028 0.646641 126.28 0.820437 126.369 1.08766L128.165 6.38778L134.321 6.40216C134.619 6.40216 134.871 6.57464 134.964 6.84057C135.058 7.10714 134.963 7.38743 134.723 7.55339L129.905 10.8993L131.795 16.5228C131.885 16.79 131.788 17.0684 131.547 17.233C131.425 17.3154 131.287 17.3572 131.148 17.3572C131.01 17.3572 130.874 17.3167 130.755 17.2363L125.676 13.8649L120.647 17.2337C120.408 17.3983 120.095 17.3977 119.854 17.233C119.613 17.069 119.515 16.7907 119.605 16.5235L121.497 10.8993L116.68 7.55404C116.44 7.38743 116.345 7.10714 116.438 6.84122Z" fill="#FFCA00"/>
<path d="M116.438 6.84122C116.531 6.57464 116.784 6.40216 117.081 6.40216L123.164 6.38778L125.082 1.0759C125.178 0.810636 125.428 0.632267 125.731 0.643374C126.028 0.646641 126.28 0.820437 126.369 1.08766L128.165 6.38778L134.321 6.40216C134.619 6.40216 134.871 6.57464 134.964 6.84057C135.058 7.10714 134.963 7.38743 134.723 7.55339L129.905 10.8993L131.795 16.5228C131.885 16.79 131.788 17.0684 131.547 17.233C131.425 17.3154 131.287 17.3572 131.148 17.3572C131.01 17.3572 130.874 17.3167 130.755 17.2363L125.676 13.8649L120.647 17.2337C120.408 17.3983 120.095 17.3977 119.854 17.233C119.613 17.069 119.515 16.7907 119.605 16.5235L121.497 10.8993L116.68 7.55404C116.44 7.38743 116.345 7.10714 116.438 6.84122" stroke="#FFC800"/>
<path fill-rule="evenodd" clip-rule="evenodd" d="M87.8413 6.84122C87.9342 6.57464 88.1867 6.40216 88.4843 6.40216L94.5673 6.38778L96.4853 1.0759C96.581 0.810636 96.8314 0.632267 97.1339 0.643374C97.4315 0.646641 97.6826 0.820437 97.7721 1.08766L99.568 6.38778L105.724 6.40216C106.022 6.40216 106.275 6.57464 106.368 6.84057C106.461 7.10714 106.366 7.38743 106.126 7.55339L101.308 10.8993L103.198 16.5228C103.288 16.79 103.191 17.0684 102.95 17.233C102.828 17.3154 102.69 17.3572 102.551 17.3572C102.414 17.3572 102.277 17.3167 102.158 17.2363L97.0791 13.8649L92.0506 17.2337C91.8112 17.3983 91.4977 17.3977 91.257 17.233C91.0156 17.069 90.9185 16.7907 91.008 16.5235L92.9003 10.8993L88.0834 7.55404C87.8434 7.38743 87.7483 7.10714 87.8413 6.84122Z" fill="#FFCA00"/>
<path d="M87.8413 6.84122C87.9342 6.57464 88.1867 6.40216 88.4843 6.40216L94.5673 6.38778L96.4853 1.0759C96.581 0.810636 96.8314 0.632267 97.1339 0.643374C97.4315 0.646641 97.6826 0.820437 97.7721 1.08766L99.568 6.38778L105.724 6.40216C106.022 6.40216 106.275 6.57464 106.368 6.84057C106.461 7.10714 106.366 7.38743 106.126 7.55339L101.308 10.8993L103.198 16.5228C103.288 16.79 103.191 17.0684 102.95 17.233C102.828 17.3154 102.69 17.3572 102.551 17.3572C102.414 17.3572 102.277 17.3167 102.158 17.2363L97.0791 13.8649L92.0506 17.2337C91.8112 17.3983 91.4977 17.3977 91.257 17.233C91.0156 17.069 90.9185 16.7907 91.008 16.5235L92.9003 10.8993L88.0834 7.55404C87.8434 7.38743 87.7483 7.10714 87.8413 6.84122" stroke="#FFC800"/>
<path fill-rule="evenodd" clip-rule="evenodd" d="M59.2444 6.84122C59.3373 6.57464 59.5898 6.40216 59.8874 6.40216L65.9703 6.38778L67.8884 1.0759C67.9841 0.810636 68.2345 0.632267 68.537 0.643374C68.8346 0.646641 69.0857 0.820437 69.1752 1.08766L70.9711 6.38778L77.1275 6.40216C77.4251 6.40216 77.6776 6.57464 77.7706 6.84057C77.8642 7.10714 77.7692 7.38743 77.5292 7.55339L72.7116 10.8993L74.6012 16.5228C74.6913 16.79 74.5942 17.0684 74.3528 17.233C74.2314 17.3154 74.0927 17.3572 73.9539 17.3572C73.8166 17.3572 73.6799 17.3167 73.5613 17.2363L68.4822 13.8649L63.4536 17.2337C63.2143 17.3983 62.9008 17.3977 62.6601 17.233C62.4187 17.069 62.3215 16.7907 62.411 16.5235L64.3034 10.8993L59.4865 7.55404C59.2464 7.38743 59.1514 7.10714 59.2444 6.84122Z" fill="#FFCA00"/>
<path d="M59.2444 6.84122C59.3373 6.57464 59.5898 6.40216 59.8874 6.40216L65.9703 6.38778L67.8884 1.0759C67.9841 0.810636 68.2345 0.632267 68.537 0.643374C68.8346 0.646641 69.0857 0.820437 69.1752 1.08766L70.9711 6.38778L77.1275 6.40216C77.4251 6.40216 77.6776 6.57464 77.7706 6.84057C77.8642 7.10714 77.7692 7.38743 77.5292 7.55339L72.7116 10.8993L74.6012 16.5228C74.6913 16.79 74.5942 17.0684 74.3528 17.233C74.2314 17.3154 74.0927 17.3572 73.9539 17.3572C73.8166 17.3572 73.6799 17.3167 73.5613 17.2363L68.4822 13.8649L63.4536 17.2337C63.2143 17.3983 62.9008 17.3977 62.6601 17.233C62.4187 17.069 62.3215 16.7907 62.411 16.5235L64.3034 10.8993L59.4865 7.55404C59.2464 7.38743 59.1514 7.10714 59.2444 6.84122" stroke="#FFC800"/>
<path fill-rule="evenodd" clip-rule="evenodd" d="M30.6474 6.84122C30.7404 6.57464 30.9929 6.40216 31.2905 6.40216L37.3734 6.38778L39.2914 1.0759C39.3872 0.810636 39.6376 0.632267 39.94 0.643374C40.2376 0.646641 40.4887 0.820437 40.5782 1.08766L42.3742 6.38778L48.5306 6.40216C48.8282 6.40216 49.0807 6.57464 49.1737 6.84057C49.2673 7.10714 49.1723 7.38743 48.9323 7.55339L44.1146 10.8993L46.0042 16.5228C46.0944 16.79 45.9973 17.0684 45.7559 17.233C45.6345 17.3154 45.4958 17.3572 45.357 17.3572C45.2197 17.3572 45.083 17.3167 44.9644 17.2363L39.8852 13.8649L34.8567 17.2337C34.6174 17.3983 34.3039 17.3977 34.0631 17.233C33.8217 17.069 33.7246 16.7907 33.8141 16.5235L35.7065 10.8993L30.8895 7.55404C30.6495 7.38743 30.5545 7.10714 30.6474 6.84122Z" fill="#FFCA00"/>
<path d="M30.6474 6.84122C30.7404 6.57464 30.9929 6.40216 31.2905 6.40216L37.3734 6.38778L39.2914 1.0759C39.3872 0.810636 39.6376 0.632267 39.94 0.643374C40.2376 0.646641 40.4887 0.820437 40.5782 1.08766L42.3742 6.38778L48.5306 6.40216C48.8282 6.40216 49.0807 6.57464 49.1737 6.84057C49.2673 7.10714 49.1723 7.38743 48.9323 7.55339L44.1146 10.8993L46.0042 16.5228C46.0944 16.79 45.9973 17.0684 45.7559 17.233C45.6345 17.3154 45.4958 17.3572 45.357 17.3572C45.2197 17.3572 45.083 17.3167 44.9644 17.2363L39.8852 13.8649L34.8567 17.2337C34.6174 17.3983 34.3039 17.3977 34.0631 17.233C33.8217 17.069 33.7246 16.7907 33.8141 16.5235L35.7065 10.8993L30.8895 7.55404C30.6495 7.38743 30.5545 7.10714 30.6474 6.84122" stroke="#FFC800"/>
<path fill-rule="evenodd" clip-rule="evenodd" d="M1.01731 6.84091C1.11027 6.57434 1.36277 6.40185 1.66036 6.40185L7.74328 6.38748L9.66132 1.0756C9.75704 0.810331 10.0075 0.631962 10.3099 0.643069C10.6075 0.646336 10.8586 0.820132 10.9481 1.08736L12.744 6.38748L18.9005 6.40185C19.1981 6.40185 19.4506 6.57434 19.5435 6.84026C19.6372 7.10683 19.5422 7.38713 19.3021 7.55308L14.4845 10.899L16.3741 16.5225C16.4643 16.7897 16.3672 17.0681 16.1258 17.2327C16.0044 17.315 15.8656 17.3569 15.7269 17.3569C15.5895 17.3569 15.4529 17.3164 15.3343 17.236L10.2551 13.8646L5.22659 17.2334C4.98727 17.398 4.67373 17.3974 4.43302 17.2327C4.19162 17.0687 4.0945 16.7904 4.18398 16.5232L6.07635 10.899L1.25941 7.55374C1.0194 7.38713 0.92436 7.10683 1.01731 6.84091Z" fill="#FFCA00"/>
<path d="M1.01731 6.84091C1.11027 6.57434 1.36277 6.40185 1.66036 6.40185L7.74328 6.38748L9.66132 1.0756C9.75704 0.810331 10.0075 0.631962 10.3099 0.643069C10.6075 0.646336 10.8586 0.820132 10.9481 1.08736L12.744 6.38748L18.9005 6.40185C19.1981 6.40185 19.4506 6.57434 19.5435 6.84026C19.6372 7.10683 19.5422 7.38713 19.3021 7.55308L14.4845 10.899L16.3741 16.5225C16.4643 16.7897 16.3672 17.0681 16.1258 17.2327C16.0044 17.315 15.8656 17.3569 15.7269 17.3569C15.5895 17.3569 15.4529 17.3164 15.3343 17.236L10.2551 13.8646L5.22659 17.2334C4.98727 17.398 4.67373 17.3974 4.43302 17.2327C4.19161 17.0687 4.0945 16.7904 4.18398 16.5232L6.07635 10.899L1.25941 7.55374C1.0194 7.38713 0.92436 7.10683 1.01731 6.84091" stroke="#FFC800"/>
</svg>
