<svg width="40" height="40" viewBox="0 0 40 40" fill="none" xmlns="http://www.w3.org/2000/svg">
<path d="M35 23.75V32.5C35 33.163 34.7366 33.7989 34.2678 34.2678C33.7989 34.7366 33.163 35 32.5 35H7.5C6.83696 35 6.20107 34.7366 5.73223 34.2678C5.26339 33.7989 5 33.163 5 32.5V23.75C5 23.4185 5.1317 23.1005 5.36612 22.8661C5.60054 22.6317 5.91848 22.5 6.25 22.5C6.58152 22.5 6.89946 22.6317 7.13388 22.8661C7.3683 23.1005 7.5 23.4185 7.5 23.75V32.5H32.5V23.75C32.5 23.4185 32.6317 23.1005 32.8661 22.8661C33.1005 22.6317 33.4185 22.5 33.75 22.5C34.0815 22.5 34.3995 22.6317 34.6339 22.8661C34.8683 23.1005 35 23.4185 35 23.75ZM14.6344 13.3844L18.75 9.26719V23.75C18.75 24.0815 18.8817 24.3995 19.1161 24.6339C19.3505 24.8683 19.6685 25 20 25C20.3315 25 20.6495 24.8683 20.8839 24.6339C21.1183 24.3995 21.25 24.0815 21.25 23.75V9.26719L25.3656 13.3844C25.6002 13.6189 25.9183 13.7507 26.25 13.7507C26.5817 13.7507 26.8998 13.6189 27.1344 13.3844C27.3689 13.1498 27.5007 12.8317 27.5007 12.5C27.5007 12.1683 27.3689 11.8502 27.1344 11.6156L20.8844 5.36563C20.7683 5.24941 20.6304 5.15721 20.4787 5.09431C20.3269 5.0314 20.1643 4.99902 20 4.99902C19.8357 4.99902 19.6731 5.0314 19.5213 5.09431C19.3696 5.15721 19.2317 5.24941 19.1156 5.36563L12.8656 11.6156C12.6311 11.8502 12.4993 12.1683 12.4993 12.5C12.4993 12.8317 12.6311 13.1498 12.8656 13.3844C13.1002 13.6189 13.4183 13.7507 13.75 13.7507C14.0817 13.7507 14.3998 13.6189 14.6344 13.3844Z" fill="#FF8B85"/>
</svg>
