<svg width="32" height="32" viewBox="0 0 32 32" fill="none" xmlns="http://www.w3.org/2000/svg">
<g clip-path="url(#clip0_37_283)">
<path d="M26.3532 12.6107L6.63989 0.0253906V32.0254L26.3452 19.3947C26.9188 19.0342 27.3917 18.5342 27.7197 17.9414C28.0478 17.3487 28.2202 16.6824 28.221 16.0049C28.2218 15.3274 28.0509 14.6608 27.7243 14.0673C27.3977 13.4737 26.926 12.9726 26.3532 12.6107ZM24.9132 17.1374L9.31323 27.1374V4.90272L24.9226 14.8681C25.115 14.9884 25.2736 15.1559 25.3832 15.3547C25.4928 15.5535 25.5498 15.777 25.5489 16.004C25.5479 16.231 25.4891 16.454 25.3778 16.6519C25.2666 16.8497 25.1067 17.0159 24.9132 17.1347V17.1374Z" fill="black"/>
</g>
<defs>
<clipPath id="clip0_37_283">
<rect width="32" height="32" fill="white"/>
</clipPath>
</defs>
</svg>
