<svg width="60" height="61" viewBox="0 0 60 61" fill="none" xmlns="http://www.w3.org/2000/svg">
<path d="M0 30.5C0 13.9315 13.4315 0.5 30 0.5C46.5685 0.5 60 13.9315 60 30.5C60 47.0685 46.5685 60.5 30 60.5C13.4315 60.5 0 47.0685 0 30.5Z" fill="#FF8B85" fill-opacity="0.32"/>
<path d="M37.9968 23.0467C37.9168 23.0333 37.8234 23.0333 37.7434 23.0467C35.9034 22.98 34.4368 21.4733 34.4368 19.6067C34.4368 17.7 35.9701 16.1667 37.8768 16.1667C39.7834 16.1667 41.3168 17.7133 41.3168 19.6067C41.3034 21.4733 39.8368 22.98 37.9968 23.0467Z" stroke="#FF8B85" stroke-width="1.5" stroke-linecap="round" stroke-linejoin="round"/>
<path d="M36.6233 32.7534C38.4499 33.06 40.4633 32.74 41.8766 31.7934C43.7566 30.54 43.7566 28.4867 41.8766 27.2334C40.4499 26.2867 38.4099 25.9667 36.5833 26.2867" stroke="#FF8B85" stroke-width="1.5" stroke-linecap="round" stroke-linejoin="round"/>
<path d="M21.9567 23.0467C22.0367 23.0333 22.1301 23.0333 22.2101 23.0467C24.0501 22.98 25.5167 21.4733 25.5167 19.6067C25.5167 17.7 23.9834 16.1667 22.0767 16.1667C20.1701 16.1667 18.6367 17.7133 18.6367 19.6067C18.6501 21.4733 20.1167 22.98 21.9567 23.0467Z" stroke="#FF8B85" stroke-width="1.5" stroke-linecap="round" stroke-linejoin="round"/>
<path d="M23.3301 32.7534C21.5034 33.06 19.4901 32.74 18.0767 31.7934C16.1967 30.54 16.1967 28.4867 18.0767 27.2334C19.5034 26.2867 21.5434 25.9667 23.3701 26.2867" stroke="#FF8B85" stroke-width="1.5" stroke-linecap="round" stroke-linejoin="round"/>
<path d="M29.9999 33.0067C29.9199 32.9934 29.8266 32.9934 29.7466 33.0067C27.9066 32.94 26.4399 31.4333 26.4399 29.5667C26.4399 27.66 27.9733 26.1267 29.8799 26.1267C31.7866 26.1267 33.3199 27.6733 33.3199 29.5667C33.3066 31.4333 31.8399 32.9534 29.9999 33.0067Z" stroke="#64668E" stroke-width="1.5" stroke-linecap="round" stroke-linejoin="round"/>
<path d="M26.12 37.2067C24.24 38.46 24.24 40.5133 26.12 41.7667C28.2533 43.1933 31.7466 43.1933 33.88 41.7667C35.76 40.5133 35.76 38.46 33.88 37.2067C31.76 35.7933 28.2533 35.7933 26.12 37.2067Z" stroke="#64668E" stroke-width="1.5" stroke-linecap="round" stroke-linejoin="round"/>
</svg>
