<svg width="60" height="61" viewBox="0 0 60 61" fill="none" xmlns="http://www.w3.org/2000/svg">
<path d="M0 30.5C0 13.9315 13.4315 0.5 30 0.5C46.5685 0.5 60 13.9315 60 30.5C60 47.0685 46.5685 60.5 30 60.5C13.4315 60.5 0 47.0685 0 30.5Z" fill="#FF8B85" fill-opacity="0.32"/>
<path d="M36.6667 41.1667H23.3334C17.4534 41.1667 15.6667 39.38 15.6667 33.5V32.8333C15.6667 32.2867 16.1201 31.8333 16.6667 31.8333C17.9467 31.8333 19.0001 30.78 19.0001 29.5C19.0001 28.22 17.9467 27.1667 16.6667 27.1667C16.1201 27.1667 15.6667 26.7133 15.6667 26.1667V25.5C15.6667 19.62 17.4534 17.8333 23.3334 17.8333H36.6667C42.5467 17.8333 44.3334 19.62 44.3334 25.5V26.8333C44.3334 27.38 43.8801 27.8333 43.3334 27.8333C42.0534 27.8333 41.0001 28.8867 41.0001 30.1667C41.0001 31.4467 42.0534 32.5 43.3334 32.5C43.8801 32.5 44.3334 32.9533 44.3334 33.5C44.3334 39.38 42.5467 41.1667 36.6667 41.1667ZM17.6667 33.7133C17.6934 38.3 18.6401 39.1667 23.3334 39.1667H36.6667C41.1201 39.1667 42.2001 38.38 42.3201 34.38C40.4134 33.9267 39.0001 32.2067 39.0001 30.1667C39.0001 28.1267 40.4267 26.4067 42.3334 25.9533V25.5C42.3334 20.74 41.4267 19.8333 36.6667 19.8333H23.3334C18.6401 19.8333 17.6934 20.7 17.6667 25.2867C19.5734 25.74 21.0001 27.46 21.0001 29.5C21.0001 31.54 19.5734 33.26 17.6667 33.7133Z" fill="#FF8B85"/>
<path d="M34 34.6733C33.2533 34.6733 32.6533 34.0733 32.6533 33.34C32.6533 32.6067 33.2533 32.0067 33.9867 32.0067C34.72 32.0067 35.32 32.6067 35.32 33.34C35.32 34.0733 34.7467 34.6733 34 34.6733Z" fill="#FF8B85"/>
<path d="M26 28.0067C25.2533 28.0067 24.6533 27.4067 24.6533 26.6733C24.6533 25.94 25.2533 25.34 25.9867 25.34C26.72 25.34 27.32 25.94 27.32 26.6733C27.32 27.4067 26.7467 28.0067 26 28.0067Z" fill="#FF8B85"/>
<path d="M25.5067 35.4067C25.2533 35.4067 25 35.3133 24.8 35.1133C24.4133 34.7267 24.4133 34.0867 24.8 33.7L33.7733 24.7267C34.16 24.34 34.8 24.34 35.1867 24.7267C35.5733 25.1133 35.5733 25.7533 35.1867 26.14L26.2133 35.1133C26.0267 35.3133 25.76 35.4067 25.5067 35.4067Z" fill="#64668E"/>
</svg>
