<svg width="60" height="61" viewBox="0 0 60 61" fill="none" xmlns="http://www.w3.org/2000/svg">
<path d="M0 30.5C0 13.9315 13.4315 0.5 30 0.5C46.5685 0.5 60 13.9315 60 30.5C60 47.0685 46.5685 60.5 30 60.5C13.4315 60.5 0 47.0685 0 30.5Z" fill="#FF8B85" fill-opacity="0.32"/>
<path d="M18.6667 38.5C18.1201 38.5 17.6667 38.0467 17.6667 37.5V22.8333C17.6667 16.9533 19.4534 15.1667 25.3334 15.1667H34.6667C40.5467 15.1667 42.3334 16.9533 42.3334 22.8333V36.1667C42.3334 36.38 42.3334 36.58 42.3201 36.7933C42.2801 37.34 41.7867 37.7667 41.2534 37.7267C40.7067 37.6867 40.2801 37.2067 40.3201 36.66C40.3334 36.5 40.3334 36.3267 40.3334 36.1667V22.8333C40.3334 18.0733 39.4401 17.1667 34.6667 17.1667H25.3334C20.5601 17.1667 19.6667 18.0733 19.6667 22.8333V37.5C19.6667 38.0467 19.2134 38.5 18.6667 38.5Z" fill="#FF8B85"/>
<path d="M36.6667 43.8333H23.3334C20.2134 43.8333 17.6667 41.2867 17.6667 38.1667V37.3C17.6667 34.6467 19.8267 32.5 22.4667 32.5H41.3334C41.8801 32.5 42.3334 32.9533 42.3334 33.5V38.1667C42.3334 41.2867 39.7867 43.8333 36.6667 43.8333ZM22.4667 34.5C20.9201 34.5 19.6667 35.7533 19.6667 37.3V38.1667C19.6667 40.1933 21.3067 41.8333 23.3334 41.8333H36.6667C38.6934 41.8333 40.3334 40.1933 40.3334 38.1667V34.5H22.4667Z" fill="#FF8B85"/>
<path d="M35.3334 23.8333H24.6667C24.1201 23.8333 23.6667 23.38 23.6667 22.8333C23.6667 22.2867 24.1201 21.8333 24.6667 21.8333H35.3334C35.8801 21.8333 36.3334 22.2867 36.3334 22.8333C36.3334 23.38 35.8801 23.8333 35.3334 23.8333Z" fill="#64668E"/>
<path d="M31.3334 28.5H24.6667C24.1201 28.5 23.6667 28.0467 23.6667 27.5C23.6667 26.9533 24.1201 26.5 24.6667 26.5H31.3334C31.8801 26.5 32.3334 26.9533 32.3334 27.5C32.3334 28.0467 31.8801 28.5 31.3334 28.5Z" fill="#64668E"/>
</svg>
