<svg width="60" height="61" viewBox="0 0 60 61" fill="none" xmlns="http://www.w3.org/2000/svg">
<path d="M0 30.5C0 13.9315 13.4315 0.5 30 0.5C46.5685 0.5 60 13.9315 60 30.5C60 47.0685 46.5685 60.5 30 60.5C13.4315 60.5 0 47.0685 0 30.5Z" fill="#FF8B85" fill-opacity="0.32"/>
<path d="M20.545 22.5067C20.2917 22.5067 20.025 22.4 19.8383 22.2133C19.4517 21.8267 19.4517 21.1867 19.8383 20.8L24.6783 15.96C25.065 15.5733 25.705 15.5733 26.0917 15.96C26.4783 16.3467 26.4783 16.9867 26.0917 17.3733L21.2517 22.2133C21.0517 22.4 20.7983 22.5067 20.545 22.5067Z" fill="#FF8B85"/>
<path d="M38.7051 22.5067C38.4517 22.5067 38.1984 22.4133 37.9984 22.2133L33.1584 17.3733C32.7717 16.9867 32.7717 16.3467 33.1584 15.96C33.5451 15.5733 34.1851 15.5733 34.5717 15.96L39.4117 20.8C39.7984 21.1867 39.7984 21.8267 39.4117 22.2133C39.2251 22.4 38.9584 22.5067 38.7051 22.5067Z" fill="#FF8B85"/>
<path d="M40.5717 28.1333C40.4784 28.1333 40.3851 28.1333 40.2917 28.1333H39.9851H18.9584C18.0251 28.1467 16.9584 28.1467 16.1851 27.3733C15.5717 26.7733 15.2917 25.84 15.2917 24.4667C15.2917 20.8 17.9717 20.8 19.2517 20.8H39.9984C41.2784 20.8 43.9584 20.8 43.9584 24.4667C43.9584 25.8533 43.6784 26.7733 43.0651 27.3733C42.3717 28.0667 41.4384 28.1333 40.5717 28.1333ZM19.2517 26.1333H40.3051C40.9051 26.1467 41.4651 26.1467 41.6517 25.96C41.7451 25.8667 41.9451 25.5467 41.9451 24.4667C41.9451 22.96 41.5717 22.8 39.9851 22.8H19.2517C17.6651 22.8 17.2917 22.96 17.2917 24.4667C17.2917 25.5467 17.5051 25.8667 17.5851 25.96C17.7717 26.1333 18.3451 26.1333 18.9317 26.1333H19.2517Z" fill="#FF8B85"/>
<path d="M26.6384 38.4C26.0918 38.4 25.6384 37.9467 25.6384 37.4V32.6667C25.6384 32.12 26.0918 31.6667 26.6384 31.6667C27.1851 31.6667 27.6384 32.12 27.6384 32.6667V37.4C27.6384 37.96 27.1851 38.4 26.6384 38.4Z" fill="#64668E"/>
<path d="M32.7717 38.4C32.2251 38.4 31.7717 37.9467 31.7717 37.4V32.6667C31.7717 32.12 32.2251 31.6667 32.7717 31.6667C33.3184 31.6667 33.7717 32.12 33.7717 32.6667V37.4C33.7717 37.96 33.3184 38.4 32.7717 38.4Z" fill="#64668E"/>
<path d="M33.4784 44.3333H25.4384C20.6651 44.3333 19.5984 41.4933 19.1851 39.0267L17.3051 27.4933C17.2117 26.9467 17.5851 26.44 18.1317 26.3467C18.6784 26.2533 19.1851 26.6267 19.2784 27.1733L21.1584 38.6933C21.5451 41.0533 22.3451 42.3333 25.4384 42.3333H33.4784C36.9051 42.3333 37.2917 41.1333 37.7317 38.8133L39.9717 27.1467C40.0784 26.6 40.5984 26.24 41.1451 26.36C41.6917 26.4667 42.0384 26.9867 41.9317 27.5333L39.6917 39.2C39.1717 41.9067 38.3051 44.3333 33.4784 44.3333Z" fill="#FF8B85"/>
</svg>
