<svg width="162" height="55" viewBox="0 0 162 55" fill="none" xmlns="http://www.w3.org/2000/svg">
<rect x="0.5" width="161" height="55" rx="10" fill="#101010"/>
<path fill-rule="evenodd" clip-rule="evenodd" d="M29.1717 17.3703C30.1501 16.1073 30.8918 14.3222 30.6235 12.5C29.0244 12.6111 27.1553 13.6342 26.0647 14.9678C25.0705 16.1761 24.2534 17.9736 24.5725 19.7182C26.3207 19.7729 28.1249 18.725 29.1717 17.3703ZM37.8125 34.5108C37.1129 36.0701 36.7762 36.7669 35.875 38.1481C34.6178 40.0761 32.8451 42.4769 30.6463 42.4945C28.6948 42.5157 28.1916 41.2156 25.5422 41.2315C22.8928 41.2456 22.3404 42.5192 20.3854 42.4998C18.1884 42.4804 16.5086 40.3142 15.2514 38.3862C11.7341 32.999 11.3641 26.6752 13.5331 23.3114C15.0761 20.9229 17.5098 19.5259 19.7962 19.5259C22.123 19.5259 23.5871 20.8101 25.5141 20.8101C27.3832 20.8101 28.5212 19.5224 31.2127 19.5224C33.2501 19.5224 35.4086 20.6389 36.9446 22.5652C31.9088 25.3417 32.7241 32.5757 37.8125 34.5108Z" fill="white"/>
<path d="M50.6307 19H47.6733V10.2727H50.6903C51.5568 10.2727 52.3011 10.4474 52.9233 10.7969C53.5483 11.1435 54.0284 11.642 54.3636 12.2926C54.6989 12.9432 54.8665 13.7216 54.8665 14.6278C54.8665 15.5369 54.6974 16.3182 54.3594 16.9716C54.0241 17.625 53.5398 18.1264 52.9062 18.4759C52.2756 18.8253 51.517 19 50.6307 19ZM49.2543 17.6321H50.554C51.1619 17.6321 51.669 17.5213 52.0753 17.2997C52.4815 17.0753 52.7869 16.7415 52.9915 16.2983C53.196 15.8523 53.2983 15.2955 53.2983 14.6278C53.2983 13.9602 53.196 13.4062 52.9915 12.9659C52.7869 12.5227 52.4844 12.1918 52.0838 11.973C51.6861 11.7514 51.1918 11.6406 50.6009 11.6406H49.2543V17.6321ZM58.9155 19.1278C58.2763 19.1278 57.7224 18.9872 57.2536 18.706C56.7849 18.4247 56.4212 18.0312 56.1627 17.5256C55.907 17.0199 55.7792 16.429 55.7792 15.7528C55.7792 15.0767 55.907 14.4844 56.1627 13.9759C56.4212 13.4673 56.7849 13.0724 57.2536 12.7912C57.7224 12.5099 58.2763 12.3693 58.9155 12.3693C59.5547 12.3693 60.1087 12.5099 60.5775 12.7912C61.0462 13.0724 61.4084 13.4673 61.6641 13.9759C61.9226 14.4844 62.0519 15.0767 62.0519 15.7528C62.0519 16.429 61.9226 17.0199 61.6641 17.5256C61.4084 18.0312 61.0462 18.4247 60.5775 18.706C60.1087 18.9872 59.5547 19.1278 58.9155 19.1278ZM58.9241 17.892C59.2707 17.892 59.5604 17.7969 59.7934 17.6065C60.0263 17.4134 60.1996 17.1548 60.3133 16.831C60.4297 16.5071 60.488 16.1463 60.488 15.7486C60.488 15.348 60.4297 14.9858 60.3133 14.6619C60.1996 14.3352 60.0263 14.0753 59.7934 13.8821C59.5604 13.6889 59.2707 13.5923 58.9241 13.5923C58.5689 13.5923 58.2735 13.6889 58.0377 13.8821C57.8047 14.0753 57.63 14.3352 57.5136 14.6619C57.3999 14.9858 57.3431 15.348 57.3431 15.7486C57.3431 16.1463 57.3999 16.5071 57.5136 16.831C57.63 17.1548 57.8047 17.4134 58.0377 17.6065C58.2735 17.7969 58.5689 17.892 58.9241 17.892ZM64.2846 19L62.4351 12.4545H64.0076L65.1581 17.0568H65.2178L66.3939 12.4545H67.9493L69.1255 17.0312H69.1894L70.3229 12.4545H71.8996L70.0459 19H68.4394L67.2121 14.5767H67.1226L65.8954 19H64.2846ZM74.2793 15.1648V19H72.7367V12.4545H74.2111V13.5668H74.2878C74.4384 13.2003 74.6784 12.9091 75.008 12.6932C75.3404 12.4773 75.7509 12.3693 76.2395 12.3693C76.6912 12.3693 77.0847 12.4659 77.4199 12.6591C77.758 12.8523 78.0193 13.1321 78.204 13.4986C78.3915 13.8651 78.4838 14.3097 78.481 14.8324V19H76.9384V15.071C76.9384 14.6335 76.8247 14.2912 76.5975 14.044C76.373 13.7969 76.062 13.6733 75.6642 13.6733C75.3943 13.6733 75.1543 13.733 74.9441 13.8523C74.7367 13.9687 74.5733 14.1378 74.454 14.3594C74.3375 14.581 74.2793 14.8494 74.2793 15.1648ZM81.3518 10.2727V19H79.8092V10.2727H81.3518ZM85.5532 19.1278C84.914 19.1278 84.36 18.9872 83.8913 18.706C83.4225 18.4247 83.0589 18.0312 82.8004 17.5256C82.5447 17.0199 82.4168 16.429 82.4168 15.7528C82.4168 15.0767 82.5447 14.4844 82.8004 13.9759C83.0589 13.4673 83.4225 13.0724 83.8913 12.7912C84.36 12.5099 84.914 12.3693 85.5532 12.3693C86.1924 12.3693 86.7464 12.5099 87.2151 12.7912C87.6839 13.0724 88.0461 13.4673 88.3018 13.9759C88.5603 14.4844 88.6896 15.0767 88.6896 15.7528C88.6896 16.429 88.5603 17.0199 88.3018 17.5256C88.0461 18.0312 87.6839 18.4247 87.2151 18.706C86.7464 18.9872 86.1924 19.1278 85.5532 19.1278ZM85.5617 17.892C85.9083 17.892 86.1981 17.7969 86.431 17.6065C86.664 17.4134 86.8373 17.1548 86.9509 16.831C87.0674 16.5071 87.1256 16.1463 87.1256 15.7486C87.1256 15.348 87.0674 14.9858 86.9509 14.6619C86.8373 14.3352 86.664 14.0753 86.431 13.8821C86.1981 13.6889 85.9083 13.5923 85.5617 13.5923C85.2066 13.5923 84.9111 13.6889 84.6754 13.8821C84.4424 14.0753 84.2677 14.3352 84.1512 14.6619C84.0376 14.9858 83.9808 15.348 83.9808 15.7486C83.9808 16.1463 84.0376 16.5071 84.1512 16.831C84.2677 17.1548 84.4424 17.4134 84.6754 17.6065C84.9111 17.7969 85.2066 17.892 85.5617 17.892ZM91.6424 19.1321C91.2276 19.1321 90.854 19.0582 90.5216 18.9105C90.1921 18.7599 89.9307 18.5384 89.7376 18.2457C89.5472 17.9531 89.452 17.5923 89.452 17.1634C89.452 16.794 89.5202 16.4886 89.6566 16.2472C89.793 16.0057 89.979 15.8125 90.2148 15.6676C90.4506 15.5227 90.7163 15.4134 91.0117 15.3395C91.31 15.2628 91.6182 15.2074 91.9364 15.1733C92.3199 15.1335 92.631 15.098 92.8697 15.0668C93.1083 15.0327 93.2816 14.9815 93.3895 14.9134C93.5003 14.8423 93.5557 14.733 93.5557 14.5852V14.5597C93.5557 14.2386 93.4606 13.9901 93.2702 13.8139C93.0799 13.6378 92.8057 13.5497 92.4478 13.5497C92.0699 13.5497 91.7702 13.6321 91.5486 13.7969C91.3299 13.9616 91.1822 14.1562 91.1055 14.3807L89.6651 14.1761C89.7788 13.7784 89.9663 13.446 90.2276 13.179C90.489 12.9091 90.8086 12.7074 91.1864 12.5739C91.5643 12.4375 91.9819 12.3693 92.4393 12.3693C92.7546 12.3693 93.0685 12.4062 93.381 12.4801C93.6935 12.554 93.979 12.6761 94.2376 12.8466C94.4961 13.0142 94.7035 13.2429 94.8597 13.5327C95.0188 13.8224 95.0984 14.1847 95.0984 14.6193V19H93.6154V18.1009H93.5643C93.4705 18.2827 93.3384 18.4531 93.168 18.6122C93.0003 18.7685 92.7887 18.8949 92.533 18.9915C92.2802 19.0852 91.9833 19.1321 91.6424 19.1321ZM92.043 17.9986C92.3526 17.9986 92.6211 17.9375 92.8484 17.8153C93.0756 17.6903 93.2503 17.5256 93.3725 17.321C93.4975 17.1165 93.56 16.8935 93.56 16.652V15.8807C93.5117 15.9205 93.4293 15.9574 93.3128 15.9915C93.1992 16.0256 93.0714 16.0554 92.9293 16.081C92.7873 16.1065 92.6466 16.1293 92.5074 16.1491C92.3682 16.169 92.2475 16.1861 92.1452 16.2003C91.9151 16.2315 91.7091 16.2827 91.5273 16.3537C91.3455 16.4247 91.202 16.5241 91.0969 16.652C90.9918 16.777 90.9393 16.9389 90.9393 17.1378C90.9393 17.4219 91.043 17.6364 91.2503 17.7812C91.4577 17.9261 91.7219 17.9986 92.043 17.9986ZM98.8385 19.1151C98.3243 19.1151 97.864 18.983 97.4578 18.7188C97.0515 18.4545 96.7305 18.071 96.4947 17.5682C96.2589 17.0653 96.141 16.4545 96.141 15.7358C96.141 15.0085 96.2603 14.3949 96.499 13.8949C96.7405 13.392 97.0657 13.0128 97.4748 12.7571C97.8839 12.4986 98.3399 12.3693 98.8427 12.3693C99.2262 12.3693 99.5416 12.4347 99.7887 12.5653C100.036 12.6932 100.232 12.848 100.377 13.0298C100.522 13.2088 100.634 13.3778 100.713 13.5369H100.777V10.2727H102.324V19H100.807V17.9688H100.713C100.634 18.1278 100.519 18.2969 100.368 18.4759C100.218 18.652 100.019 18.8026 99.7717 18.9276C99.5245 19.0526 99.2135 19.1151 98.8385 19.1151ZM99.2689 17.8494C99.5956 17.8494 99.874 17.7614 100.104 17.5852C100.334 17.4062 100.509 17.1577 100.628 16.8395C100.748 16.5213 100.807 16.1506 100.807 15.7273C100.807 15.304 100.748 14.9361 100.628 14.6236C100.512 14.3111 100.338 14.0682 100.108 13.8949C99.8811 13.7216 99.6012 13.6349 99.2689 13.6349C98.9251 13.6349 98.6382 13.7244 98.4081 13.9034C98.178 14.0824 98.0047 14.3295 97.8882 14.6449C97.7717 14.9602 97.7135 15.321 97.7135 15.7273C97.7135 16.1364 97.7717 16.5014 97.8882 16.8224C98.0075 17.1406 98.1822 17.392 98.4123 17.5767C98.6453 17.7585 98.9308 17.8494 99.2689 17.8494ZM109.32 19.1278C108.681 19.1278 108.127 18.9872 107.658 18.706C107.189 18.4247 106.825 18.0312 106.567 17.5256C106.311 17.0199 106.183 16.429 106.183 15.7528C106.183 15.0767 106.311 14.4844 106.567 13.9759C106.825 13.4673 107.189 13.0724 107.658 12.7912C108.127 12.5099 108.681 12.3693 109.32 12.3693C109.959 12.3693 110.513 12.5099 110.982 12.7912C111.45 13.0724 111.813 13.4673 112.068 13.9759C112.327 14.4844 112.456 15.0767 112.456 15.7528C112.456 16.429 112.327 17.0199 112.068 17.5256C111.813 18.0312 111.45 18.4247 110.982 18.706C110.513 18.9872 109.959 19.1278 109.32 19.1278ZM109.328 17.892C109.675 17.892 109.965 17.7969 110.198 17.6065C110.431 17.4134 110.604 17.1548 110.717 16.831C110.834 16.5071 110.892 16.1463 110.892 15.7486C110.892 15.348 110.834 14.9858 110.717 14.6619C110.604 14.3352 110.431 14.0753 110.198 13.8821C109.965 13.6889 109.675 13.5923 109.328 13.5923C108.973 13.5923 108.678 13.6889 108.442 13.8821C108.209 14.0753 108.034 14.3352 107.918 14.6619C107.804 14.9858 107.747 15.348 107.747 15.7486C107.747 16.1463 107.804 16.5071 107.918 16.831C108.034 17.1548 108.209 17.4134 108.442 17.6065C108.678 17.7969 108.973 17.892 109.328 17.892ZM115.068 15.1648V19H113.525V12.4545H115V13.5668H115.077C115.227 13.2003 115.467 12.9091 115.797 12.6932C116.129 12.4773 116.54 12.3693 117.028 12.3693C117.48 12.3693 117.873 12.4659 118.209 12.6591C118.547 12.8523 118.808 13.1321 118.993 13.4986C119.18 13.8651 119.273 14.3097 119.27 14.8324V19H117.727V15.071C117.727 14.6335 117.613 14.2912 117.386 14.044C117.162 13.7969 116.851 13.6733 116.453 13.6733C116.183 13.6733 115.943 13.733 115.733 13.8523C115.525 13.9687 115.362 14.1378 115.243 14.3594C115.126 14.581 115.068 14.8494 115.068 15.1648ZM126.603 12.4545V13.6477H122.84V12.4545H126.603ZM123.769 10.8864H125.312V17.0312C125.312 17.2386 125.343 17.3977 125.406 17.5085C125.471 17.6165 125.556 17.6903 125.661 17.7301C125.766 17.7699 125.883 17.7898 126.011 17.7898C126.107 17.7898 126.195 17.7827 126.275 17.7685C126.357 17.7543 126.42 17.7415 126.462 17.7301L126.722 18.9361C126.64 18.9645 126.522 18.9957 126.369 19.0298C126.218 19.0639 126.033 19.0838 125.815 19.0895C125.428 19.1009 125.08 19.0426 124.771 18.9148C124.461 18.7841 124.215 18.5824 124.033 18.3097C123.854 18.0369 123.766 17.696 123.769 17.2869V10.8864ZM129.336 15.1648V19H127.794V10.2727H129.302V13.5668H129.379C129.532 13.1974 129.77 12.9062 130.091 12.6932C130.414 12.4773 130.826 12.3693 131.326 12.3693C131.781 12.3693 132.177 12.4645 132.515 12.6548C132.853 12.8452 133.115 13.1236 133.299 13.4901C133.487 13.8565 133.581 14.304 133.581 14.8324V19H132.038V15.071C132.038 14.6307 131.924 14.2884 131.697 14.044C131.473 13.7969 131.157 13.6733 130.751 13.6733C130.478 13.6733 130.234 13.733 130.018 13.8523C129.805 13.9687 129.637 14.1378 129.515 14.3594C129.396 14.581 129.336 14.8494 129.336 15.1648ZM137.811 19.1278C137.155 19.1278 136.588 18.9915 136.111 18.7188C135.636 18.4432 135.271 18.054 135.015 17.5511C134.76 17.0455 134.632 16.4503 134.632 15.7656C134.632 15.0923 134.76 14.5014 135.015 13.9929C135.274 13.4815 135.635 13.0838 136.098 12.7997C136.561 12.5128 137.105 12.3693 137.73 12.3693C138.133 12.3693 138.514 12.4347 138.872 12.5653C139.233 12.6932 139.551 12.892 139.826 13.1619C140.105 13.4318 140.324 13.7756 140.483 14.1932C140.642 14.608 140.721 15.1023 140.721 15.6761V16.1491H135.356V15.1094H139.243C139.24 14.8139 139.176 14.5511 139.051 14.321C138.926 14.0881 138.751 13.9048 138.527 13.7713C138.305 13.6378 138.047 13.571 137.751 13.571C137.436 13.571 137.159 13.6477 136.92 13.8011C136.682 13.9517 136.495 14.1506 136.362 14.3977C136.231 14.642 136.165 14.9105 136.162 15.2031V16.1108C136.162 16.4915 136.231 16.8182 136.37 17.0909C136.51 17.3608 136.704 17.5682 136.954 17.7131C137.204 17.8551 137.497 17.9261 137.832 17.9261C138.057 17.9261 138.26 17.8949 138.441 17.8324C138.623 17.767 138.781 17.6719 138.915 17.5469C139.048 17.4219 139.149 17.267 139.217 17.0824L140.657 17.2443C140.566 17.625 140.393 17.9574 140.138 18.2415C139.885 18.5227 139.561 18.7415 139.166 18.8977C138.771 19.0511 138.319 19.1278 137.811 19.1278Z" fill="white"/>
<path d="M50.4453 41H47.3516L52.9844 25H56.5625L62.2031 41H59.1094L54.8359 28.2812H54.7109L50.4453 41ZM50.5469 34.7266H58.9844V37.0547H50.5469V34.7266ZM63.7455 45.5V29H66.5268V30.9844H66.6909C66.8367 30.6927 67.0424 30.3828 67.308 30.0547C67.5737 29.7214 67.933 29.4375 68.3862 29.2031C68.8393 28.9635 69.4174 28.8438 70.1205 28.8438C71.0476 28.8438 71.8836 29.0807 72.6284 29.5547C73.3784 30.0234 73.9721 30.7187 74.4096 31.6406C74.8523 32.5573 75.0737 33.6823 75.0737 35.0156C75.0737 36.3333 74.8575 37.4531 74.4252 38.375C73.9929 39.2969 73.4044 40 72.6596 40.4844C71.9148 40.9688 71.0711 41.2109 70.1284 41.2109C69.4409 41.2109 68.8705 41.0964 68.4174 40.8672C67.9643 40.638 67.5997 40.362 67.3237 40.0391C67.0528 39.7109 66.8419 39.401 66.6909 39.1094H66.5737V45.5H63.7455ZM66.519 35C66.519 35.776 66.6284 36.4557 66.8471 37.0391C67.0711 37.6224 67.3914 38.0781 67.808 38.4062C68.2299 38.7292 68.7403 38.8906 69.3393 38.8906C69.9643 38.8906 70.4877 38.724 70.9096 38.3906C71.3315 38.0521 71.6492 37.5911 71.8627 37.0078C72.0815 36.4193 72.1909 35.75 72.1909 35C72.1909 34.2552 72.0841 33.5937 71.8705 33.0156C71.657 32.4375 71.3393 31.9844 70.9174 31.6562C70.4955 31.3281 69.9695 31.1641 69.3393 31.1641C68.7351 31.1641 68.2221 31.3229 67.8002 31.6406C67.3784 31.9583 67.058 32.4036 66.8393 32.9766C66.6258 33.5495 66.519 34.224 66.519 35ZM77.0555 45.5V29H79.8368V30.9844H80.0009C80.1467 30.6927 80.3524 30.3828 80.618 30.0547C80.8837 29.7214 81.243 29.4375 81.6962 29.2031C82.1493 28.9635 82.7274 28.8438 83.4305 28.8438C84.3576 28.8438 85.1936 29.0807 85.9384 29.5547C86.6884 30.0234 87.2821 30.7187 87.7196 31.6406C88.1623 32.5573 88.3837 33.6823 88.3837 35.0156C88.3837 36.3333 88.1675 37.4531 87.7352 38.375C87.3029 39.2969 86.7144 40 85.9696 40.4844C85.2248 40.9688 84.3811 41.2109 83.4384 41.2109C82.7509 41.2109 82.1805 41.0964 81.7274 40.8672C81.2743 40.638 80.9097 40.362 80.6337 40.0391C80.3628 39.7109 80.1519 39.401 80.0009 39.1094H79.8837V45.5H77.0555ZM79.829 35C79.829 35.776 79.9384 36.4557 80.1571 37.0391C80.3811 37.6224 80.7014 38.0781 81.118 38.4062C81.5399 38.7292 82.0503 38.8906 82.6493 38.8906C83.2743 38.8906 83.7977 38.724 84.2196 38.3906C84.6415 38.0521 84.9592 37.5911 85.1727 37.0078C85.3915 36.4193 85.5009 35.75 85.5009 35C85.5009 34.2552 85.3941 33.5937 85.1805 33.0156C84.967 32.4375 84.6493 31.9844 84.2274 31.6562C83.8055 31.3281 83.2795 31.1641 82.6493 31.1641C82.0451 31.1641 81.5321 31.3229 81.1102 31.6406C80.6884 31.9583 80.368 32.4036 80.1493 32.9766C79.9358 33.5495 79.829 34.224 79.829 35ZM104.203 29.3984C104.13 28.7161 103.823 28.1849 103.281 27.8047C102.745 27.4245 102.047 27.2344 101.187 27.2344C100.583 27.2344 100.065 27.3255 99.6326 27.5078C99.2003 27.6901 98.8696 27.9375 98.6404 28.25C98.4112 28.5625 98.294 28.9193 98.2888 29.3203C98.2888 29.6536 98.3644 29.9427 98.5154 30.1875C98.6716 30.4323 98.8826 30.6406 99.1482 30.8125C99.4138 30.9792 99.7081 31.1198 100.031 31.2344C100.354 31.349 100.679 31.4453 101.008 31.5234L102.508 31.8984C103.112 32.0391 103.692 32.2292 104.25 32.4687C104.812 32.7083 105.315 33.0104 105.758 33.375C106.205 33.7396 106.56 34.1797 106.82 34.6953C107.08 35.2109 107.211 35.8151 107.211 36.5078C107.211 37.4453 106.971 38.2708 106.492 38.9844C106.013 39.6927 105.32 40.2474 104.414 40.6484C103.513 41.0443 102.422 41.2422 101.14 41.2422C99.8956 41.2422 98.8149 41.0495 97.8982 40.6641C96.9867 40.2786 96.2732 39.7161 95.7576 38.9766C95.2472 38.237 94.9711 37.3359 94.9295 36.2734H97.781C97.8227 36.8307 97.9946 37.2943 98.2966 37.6641C98.5987 38.0339 98.992 38.3099 99.4763 38.4922C99.9659 38.6745 100.513 38.7656 101.117 38.7656C101.747 38.7656 102.299 38.6719 102.773 38.4844C103.252 38.2917 103.627 38.026 103.898 37.6875C104.169 37.3437 104.307 36.9427 104.312 36.4844C104.307 36.0677 104.185 35.724 103.945 35.4531C103.705 35.1771 103.37 34.9479 102.937 34.7656C102.51 34.5781 102.01 34.4115 101.437 34.2656L99.617 33.7969C98.2992 33.4583 97.2576 32.9453 96.492 32.2578C95.7315 31.5651 95.3513 30.6458 95.3513 29.5C95.3513 28.5573 95.6065 27.7318 96.117 27.0234C96.6326 26.3151 97.3331 25.7656 98.2185 25.375C99.1039 24.9792 100.107 24.7812 101.226 24.7812C102.362 24.7812 103.357 24.9792 104.211 25.375C105.07 25.7656 105.745 26.3099 106.234 27.0078C106.724 27.7005 106.976 28.4974 106.992 29.3984H104.203ZM115.222 29V31.1875H108.323V29H115.222ZM110.027 26.125H112.855V37.3906C112.855 37.7708 112.912 38.0625 113.027 38.2656C113.146 38.4635 113.303 38.599 113.495 38.6719C113.688 38.7448 113.902 38.7812 114.136 38.7812C114.313 38.7812 114.474 38.7682 114.62 38.7422C114.771 38.7161 114.886 38.6927 114.964 38.6719L115.441 40.8828C115.29 40.9349 115.073 40.9922 114.792 41.0547C114.516 41.1172 114.178 41.1536 113.777 41.1641C113.068 41.1849 112.43 41.0781 111.862 40.8437C111.295 40.6042 110.844 40.2344 110.511 39.7344C110.183 39.2344 110.021 38.6094 110.027 37.8594V26.125ZM122.253 41.2344C121.081 41.2344 120.065 40.9766 119.206 40.4609C118.346 39.9453 117.68 39.224 117.206 38.2969C116.737 37.3698 116.503 36.2865 116.503 35.0469C116.503 33.8073 116.737 32.7214 117.206 31.7891C117.68 30.8568 118.346 30.1328 119.206 29.6172C120.065 29.1016 121.081 28.8438 122.253 28.8438C123.424 28.8438 124.44 29.1016 125.299 29.6172C126.159 30.1328 126.823 30.8568 127.292 31.7891C127.766 32.7214 128.003 33.8073 128.003 35.0469C128.003 36.2865 127.766 37.3698 127.292 38.2969C126.823 39.224 126.159 39.9453 125.299 40.4609C124.44 40.9766 123.424 41.2344 122.253 41.2344ZM122.268 38.9687C122.904 38.9687 123.435 38.7943 123.862 38.4453C124.289 38.0911 124.607 37.6172 124.815 37.0234C125.029 36.4297 125.135 35.7682 125.135 35.0391C125.135 34.3047 125.029 33.6406 124.815 33.0469C124.607 32.4479 124.289 31.9714 123.862 31.6172C123.435 31.263 122.904 31.0859 122.268 31.0859C121.617 31.0859 121.075 31.263 120.643 31.6172C120.216 31.9714 119.896 32.4479 119.682 33.0469C119.474 33.6406 119.37 34.3047 119.37 35.0391C119.37 35.7682 119.474 36.4297 119.682 37.0234C119.896 37.6172 120.216 38.0911 120.643 38.4453C121.075 38.7943 121.617 38.9687 122.268 38.9687ZM129.963 41V29H132.705V31H132.83C133.049 30.3073 133.424 29.7734 133.955 29.3984C134.492 29.0182 135.104 28.8281 135.791 28.8281C135.947 28.8281 136.122 28.8359 136.315 28.8516C136.512 28.862 136.677 28.8802 136.807 28.9062V31.5078C136.687 31.4661 136.497 31.4297 136.236 31.3984C135.981 31.362 135.734 31.3437 135.494 31.3437C134.979 31.3437 134.515 31.4557 134.104 31.6797C133.697 31.8984 133.377 32.2031 133.143 32.5937C132.908 32.9844 132.791 33.4349 132.791 33.9453V41H129.963ZM143.064 41.2344C141.861 41.2344 140.822 40.9844 139.947 40.4844C139.077 39.9792 138.408 39.2656 137.939 38.3437C137.47 37.4167 137.236 36.3255 137.236 35.0703C137.236 33.8359 137.47 32.7526 137.939 31.8203C138.413 30.8828 139.074 30.1536 139.923 29.6328C140.772 29.1068 141.77 28.8438 142.916 28.8438C143.655 28.8438 144.353 28.9635 145.009 29.2031C145.671 29.4375 146.254 29.8021 146.759 30.2969C147.27 30.7917 147.671 31.4219 147.962 32.1875C148.254 32.9479 148.4 33.8542 148.4 34.9062V35.7734H138.564V33.8672H145.689C145.684 33.3255 145.567 32.8437 145.337 32.4219C145.108 31.9948 144.788 31.6589 144.376 31.4141C143.97 31.1693 143.496 31.0469 142.955 31.0469C142.376 31.0469 141.869 31.1875 141.431 31.4687C140.994 31.7448 140.653 32.1094 140.408 32.5625C140.168 33.0104 140.046 33.5026 140.041 34.0391V35.7031C140.041 36.401 140.168 37 140.423 37.5C140.679 37.9948 141.035 38.375 141.494 38.6406C141.952 38.901 142.488 39.0312 143.103 39.0312C143.515 39.0312 143.887 38.974 144.22 38.8594C144.554 38.7396 144.843 38.5651 145.087 38.3359C145.332 38.1068 145.517 37.8229 145.642 37.4844L148.283 37.7812C148.116 38.4792 147.798 39.0885 147.33 39.6094C146.866 40.125 146.272 40.526 145.548 40.8125C144.824 41.0937 143.996 41.2344 143.064 41.2344Z" fill="white"/>
</svg>
