<svg width="50" height="50" viewBox="0 0 50 50" fill="none" xmlns="http://www.w3.org/2000/svg">
<rect width="50" height="50" rx="25" fill="black" fill-opacity="0.5"/>
<g opacity="0.3">
<path d="M29.8013 31.8896H20.1013C19.8819 31.8881 19.6683 31.8191 19.4895 31.6921C19.3106 31.5651 19.1751 31.3862 19.1013 31.1796L15.1013 19.5596C15.0208 19.3561 15.0094 19.1317 15.0687 18.9211C15.128 18.7104 15.2548 18.5249 15.4296 18.3933C15.6044 18.2616 15.8176 18.1909 16.0365 18.192C16.2554 18.1932 16.4678 18.2661 16.6413 18.3996L20.6413 21.2796C20.7518 21.3611 20.8796 21.4159 21.0148 21.4397C21.15 21.4636 21.2888 21.4558 21.4205 21.4171C21.5522 21.3784 21.6732 21.3097 21.7739 21.2164C21.8747 21.1232 21.9525 21.0079 22.0013 20.8796L24.0013 15.6596C24.0588 15.4478 24.1845 15.2608 24.3589 15.1274C24.5333 14.9941 24.7467 14.9219 24.9663 14.9219C25.1858 14.9219 25.3992 14.9941 25.5736 15.1274C25.748 15.2608 25.8737 15.4478 25.9313 15.6596L27.8713 20.9096C27.9196 21.0395 27.9977 21.1563 28.0992 21.2508C28.2007 21.3452 28.3228 21.4146 28.4559 21.4534C28.589 21.4923 28.7293 21.4995 28.8656 21.4745C29.002 21.4496 29.1306 21.3931 29.2413 21.3096L33.3713 18.2396C33.543 18.0905 33.7604 18.0044 33.9876 17.9955C34.2148 17.9865 34.4383 18.0553 34.6212 18.1904C34.8041 18.3255 34.9354 18.519 34.9936 18.7388C35.0518 18.9586 35.0334 19.1917 34.9413 19.3996L30.8013 31.1796C30.7371 31.3922 30.604 31.5774 30.4229 31.7059C30.2418 31.8345 30.0231 31.8991 29.8013 31.8896Z" fill="black"/>
</g>
<path d="M27.5 27.6592H22.5C22.3011 27.6592 22.1103 27.5802 21.9697 27.4395C21.829 27.2989 21.75 27.1081 21.75 26.9092C21.75 26.7103 21.829 26.5195 21.9697 26.3788C22.1103 26.2382 22.3011 26.1592 22.5 26.1592H27.5C27.6989 26.1592 27.8897 26.2382 28.0303 26.3788C28.171 26.5195 28.25 26.7103 28.25 26.9092C28.25 27.1081 28.171 27.2989 28.0303 27.4395C27.8897 27.5802 27.6989 27.6592 27.5 27.6592Z" fill="black"/>
<path d="M30.1206 35H19.8906C19.6917 35 19.5009 34.921 19.3603 34.7803C19.2196 34.6397 19.1406 34.4489 19.1406 34.25C19.1406 34.0511 19.2196 33.8603 19.3603 33.7197C19.5009 33.579 19.6917 33.5 19.8906 33.5H30.1206C30.3195 33.5 30.5103 33.579 30.651 33.7197C30.7916 33.8603 30.8706 34.0511 30.8706 34.25C30.8706 34.4489 30.7916 34.6397 30.651 34.7803C30.5103 34.921 30.3195 35 30.1206 35Z" fill="black"/>
</svg>
