<svg width="205" height="221" viewBox="0 0 205 221" fill="none" xmlns="http://www.w3.org/2000/svg">
<path d="M86.5268 153.467V133.723H47.1964C45.1102 133.723 43.1095 132.894 41.6343 131.419C40.1591 129.944 39.3304 127.943 39.3304 125.857C39.3304 123.771 40.1591 121.77 41.6343 120.295C43.1095 118.82 45.1102 117.991 47.1964 117.991H87.9427C89.1172 114.692 91.0113 111.696 93.4875 109.22C95.9637 106.743 98.9599 104.849 102.259 103.675L145.522 87.9427C150.731 86.0492 156.439 86.0492 161.648 87.9427L173.29 92.1904V23.5982C173.29 17.3396 170.803 11.3373 166.378 6.91176C161.952 2.48623 155.95 0 149.691 0H23.5982C17.3396 0 11.3373 2.48623 6.91176 6.91176C2.48623 11.3373 0 17.3396 0 23.5982V196.652C0 202.91 2.48623 208.913 6.91176 213.338C11.3373 217.764 17.3396 220.25 23.5982 220.25H118.935C108.853 212.277 100.702 202.13 95.0901 190.566C89.4784 179.003 86.5512 166.321 86.5268 153.467ZM47.1964 39.3304H125.857C127.943 39.3304 129.944 40.1591 131.419 41.6343C132.894 43.1095 133.723 45.1102 133.723 47.1964C133.723 49.2826 132.894 51.2834 131.419 52.7586C129.944 54.2338 127.943 55.0625 125.857 55.0625H47.1964C45.1102 55.0625 43.1095 54.2338 41.6343 52.7586C40.1591 51.2834 39.3304 49.2826 39.3304 47.1964C39.3304 45.1102 40.1591 43.1095 41.6343 41.6343C43.1095 40.1591 45.1102 39.3304 47.1964 39.3304ZM47.1964 78.6607H125.857C127.943 78.6607 129.944 79.4895 131.419 80.9646C132.894 82.4398 133.723 84.4406 133.723 86.5268C133.723 88.613 132.894 90.6138 131.419 92.0889C129.944 93.5641 127.943 94.3929 125.857 94.3929H47.1964C45.1102 94.3929 43.1095 93.5641 41.6343 92.0889C40.1591 90.6138 39.3304 88.613 39.3304 86.5268C39.3304 84.4406 40.1591 82.4398 41.6343 80.9646C43.1095 79.4895 45.1102 78.6607 47.1964 78.6607ZM70.7946 180.92H47.1964C45.1102 180.92 43.1095 180.091 41.6343 178.616C40.1591 177.141 39.3304 175.14 39.3304 173.054C39.3304 170.967 40.1591 168.967 41.6343 167.491C43.1095 166.016 45.1102 165.188 47.1964 165.188H70.7946C72.8809 165.188 74.8816 166.016 76.3568 167.491C77.832 168.967 78.6607 170.967 78.6607 173.054C78.6607 175.14 77.832 177.141 76.3568 178.616C74.8816 180.091 72.8809 180.92 70.7946 180.92ZM199.326 118.463L156.063 102.731C154.335 102.106 152.442 102.106 150.714 102.731L107.451 118.463C105.93 119.013 104.616 120.017 103.687 121.34C102.758 122.663 102.26 124.241 102.259 125.857V153.467C102.295 167.726 106.703 181.631 114.889 193.305C123.076 204.98 134.646 213.863 148.039 218.755C149.739 219.441 151.556 219.788 153.388 219.778C155.213 219.776 157.023 219.456 158.737 218.834C172.131 213.918 183.697 205.018 191.882 193.332C200.066 181.646 204.476 167.734 204.518 153.467V125.857C204.517 124.241 204.018 122.663 203.089 121.34C202.161 120.017 200.847 119.013 199.326 118.463ZM178.638 155.04L155.04 178.638C154.309 179.376 153.439 179.961 152.48 180.36C151.522 180.76 150.494 180.965 149.455 180.965C148.417 180.965 147.389 180.76 146.43 180.36C145.472 179.961 144.602 179.376 143.87 178.638L128.138 162.906C126.657 161.425 125.825 159.416 125.825 157.321C125.825 155.227 126.657 153.218 128.138 151.737C129.62 150.255 131.628 149.423 133.723 149.423C135.818 149.423 137.827 150.255 139.308 151.737L149.455 161.962L167.469 143.87C168.95 142.389 170.959 141.557 173.054 141.557C175.148 141.557 177.157 142.389 178.638 143.87C180.12 145.352 180.952 147.361 180.952 149.455C180.952 151.55 180.12 153.559 178.638 155.04Z" fill="#F1837E" fill-opacity="0.58"/>
</svg>
