<svg width="233" height="233" viewBox="0 0 233 233" fill="none" xmlns="http://www.w3.org/2000/svg">
<path d="M166.54 106.343C166.929 106.343 167.314 106.348 167.702 106.355L167.801 106.357C169.975 106.396 172.131 106.536 174.266 106.769V27.4913C174.266 12.3335 161.933 0 146.775 0H27.4931C12.3335 0 0 12.3335 0 27.4913V185.619C0 200.778 12.3335 213.112 27.4913 213.112H107.13C100.258 202.067 96.6527 189.453 96.6527 176.27C96.6527 137.711 128.003 106.343 166.541 106.343H166.54ZM98.5959 44.8875H139.336C143.107 44.8875 146.162 47.9434 146.162 51.7137C146.162 55.484 143.107 58.5399 139.336 58.5399H98.5959C94.8274 58.5399 91.7697 55.484 91.7697 51.7137C91.7697 47.9434 94.8274 44.8875 98.5959 44.8875ZM98.5959 72.194H139.336C143.107 72.194 146.162 75.2494 146.162 79.0202C146.162 82.791 143.107 85.8464 139.336 85.8464H98.5959C94.8274 85.8464 91.7697 82.7905 91.7697 79.0202C91.7697 75.2499 94.8274 72.194 98.5959 72.194ZM75.6713 168.222H34.9309C31.1606 168.222 28.1047 165.167 28.1047 161.396C28.1047 157.628 31.1606 154.57 34.9309 154.57H75.6708C79.4393 154.57 82.497 157.628 82.497 161.396C82.497 165.167 79.4398 168.222 75.6713 168.222ZM75.6713 140.459H34.9309C31.1606 140.459 28.1047 137.404 28.1047 133.633C28.1047 129.862 31.1606 126.807 34.9309 126.807H75.6708C79.4393 126.807 82.497 129.862 82.497 133.633C82.497 137.404 79.4398 140.459 75.6713 140.459ZM75.6713 113.153H34.9309C31.1606 113.153 28.1047 110.097 28.1047 106.327C28.1047 102.556 31.1606 99.5005 34.9309 99.5005H75.6708C79.4393 99.5005 82.497 102.556 82.497 106.327C82.497 110.097 79.4398 113.153 75.6713 113.153ZM75.6713 85.8464H34.9309C31.1606 85.8464 28.1047 82.7905 28.1047 79.0202C28.1047 75.2499 31.1606 72.194 34.9309 72.194H75.6708C79.4393 72.194 82.497 75.2494 82.497 79.0202C82.497 82.791 79.4398 85.8464 75.6713 85.8464ZM75.6713 58.5399H34.9309C31.1606 58.5399 28.1047 55.484 28.1047 51.7137C28.1047 47.9434 31.1606 44.8875 34.9309 44.8875H75.6708C79.4393 44.8875 82.497 47.9434 82.497 51.7137C82.497 55.484 79.4398 58.5399 75.6713 58.5399ZM91.7697 106.327C91.7697 102.556 94.8274 99.5005 98.5959 99.5005H118.217C121.988 99.5005 125.044 102.556 125.044 106.327C125.044 110.097 121.988 113.153 118.217 113.153H98.5959C94.8274 113.153 91.7697 110.097 91.7697 106.327Z" fill="#F1837E" fill-opacity="0.58"/>
<path d="M206.962 136.497C196.485 125.834 182.491 119.815 167.561 119.552L167.463 119.55C167.155 119.545 166.848 119.54 166.541 119.54C135.281 119.54 109.85 144.989 109.85 176.27C109.85 188.694 113.792 200.492 121.249 210.392C132.074 224.761 148.581 233 166.541 233C197.8 233 223.231 207.551 223.231 176.27C223.231 161.295 217.454 147.17 206.962 136.497ZM190.763 167.047L169.114 194.034C168.475 194.832 167.664 195.477 166.741 195.919C165.819 196.362 164.809 196.591 163.785 196.59C162.393 196.59 160.993 196.166 159.784 195.291L143.637 183.592C140.585 181.38 139.903 177.112 142.116 174.058C144.327 171.006 148.595 170.323 151.647 172.537L162.532 180.423L180.115 158.504C182.474 155.563 186.769 155.092 189.711 157.451C192.651 159.81 193.122 164.107 190.763 167.047L190.763 167.047Z" fill="#F1837E" fill-opacity="0.58"/>
</svg>
