<svg width="24" height="25" viewBox="0 0 24 25" fill="none" xmlns="http://www.w3.org/2000/svg">
<path fill-rule="evenodd" clip-rule="evenodd" d="M15.9079 3.47949H7.95393C5.20838 3.47949 2.98267 5.70128 2.98267 8.44198V16.382C2.98267 19.1227 5.20838 21.3445 7.95393 21.3445H15.9079C18.6535 21.3445 20.8792 19.1227 20.8792 16.382V8.44198C20.8792 5.70128 18.6535 3.47949 15.9079 3.47949ZM19.1393 16.382C19.1338 18.1611 17.6902 19.6021 15.9079 19.6076H7.95393C6.17158 19.6021 4.72807 18.1611 4.72261 16.382V8.44198C4.72807 6.66278 6.17158 5.22181 7.95393 5.21636H15.9079C17.6902 5.22181 19.1338 6.66278 19.1393 8.44198V16.382ZM16.6536 8.69011C17.2028 8.69011 17.6479 8.24575 17.6479 7.69761C17.6479 7.14947 17.2028 6.70511 16.6536 6.70511C16.1045 6.70511 15.6594 7.14947 15.6594 7.69761C15.6594 8.24575 16.1045 8.69011 16.6536 8.69011ZM11.9309 7.94573C9.45994 7.94573 7.4568 9.94534 7.4568 12.412C7.4568 14.8786 9.45994 16.8782 11.9309 16.8782C14.4019 16.8782 16.4051 14.8786 16.4051 12.412C16.4077 11.2266 15.9372 10.0891 15.0975 9.25095C14.2579 8.41279 13.1184 7.94309 11.9309 7.94573ZM9.19674 12.412C9.19674 13.9194 10.4209 15.1413 11.9309 15.1413C13.441 15.1413 14.6651 13.9194 14.6651 12.412C14.6651 10.9046 13.441 9.68261 11.9309 9.68261C10.4209 9.68261 9.19674 10.9046 9.19674 12.412Z" fill="#070F2E"/>
</svg>
