<svg width="24" height="25" viewBox="0 0 24 25" fill="none" xmlns="http://www.w3.org/2000/svg">
<path fill-rule="evenodd" clip-rule="evenodd" d="M4.47404 3.65955C3.65038 3.65955 2.98267 4.32608 2.98267 5.14829V20.0358C2.98267 20.858 3.65038 21.5245 4.47404 21.5245H19.3878C20.2115 21.5245 20.8792 20.858 20.8792 20.0358V5.14829C20.8792 4.32608 20.2115 3.65955 19.3878 3.65955H4.47404ZM8.47169 7.63224C8.47729 8.58131 7.76562 9.16611 6.92113 9.16193C6.12557 9.15774 5.43208 8.52549 5.43627 7.63364C5.44047 6.79482 6.1046 6.12069 6.96727 6.14024C7.84252 6.15978 8.47729 6.80041 8.47169 7.63224ZM12.209 10.3706H9.70352H9.70212V18.8662H12.3502V18.668C12.3502 18.291 12.3499 17.9138 12.3496 17.5366C12.3488 16.5304 12.3479 15.5231 12.3531 14.5172C12.3545 14.2729 12.3656 14.0189 12.4286 13.7858C12.6648 12.9149 13.4493 12.3524 14.3245 12.4907C14.8865 12.5785 15.2584 12.9038 15.415 13.4328C15.5115 13.7635 15.5549 14.1194 15.5591 14.4642C15.5704 15.5039 15.5688 16.5437 15.5672 17.5835C15.5666 17.9505 15.566 18.3178 15.566 18.6848V18.8648H18.2226V18.6611C18.2226 18.2124 18.2224 17.7639 18.2221 17.3154C18.2216 16.1944 18.221 15.0734 18.2239 13.952C18.2253 13.4453 18.1709 12.9457 18.0464 12.4558C17.8605 11.7272 17.476 11.1242 16.851 10.6888C16.4077 10.3789 15.9212 10.1794 15.3773 10.157C15.3154 10.1545 15.2529 10.1511 15.1902 10.1477C14.9121 10.1327 14.6294 10.1175 14.3636 10.171C13.603 10.3231 12.9347 10.6707 12.4299 11.2833C12.3713 11.3536 12.3139 11.425 12.2283 11.5314L12.209 11.5556V10.3706ZM5.64889 18.869H8.28443V10.3761H5.64889V18.869Z" fill="#070F2E"/>
</svg>
