<svg width="32" height="32" viewBox="0 0 32 32" fill="none" xmlns="http://www.w3.org/2000/svg">
<path d="M15.9993 24.2397C14.6393 24.2397 13.826 23.7331 13.2927 23.3997C13.0394 23.2397 12.8527 23.1331 12.666 23.0664C12.226 22.9197 11.8127 22.9064 11.4527 22.8798C11.0393 22.8664 10.626 22.8531 10.266 22.6131C9.8927 22.3597 9.77269 21.9998 9.71936 21.7598C9.69269 21.7464 9.66603 21.7464 9.63936 21.7331C9.2927 21.6397 8.906 21.5331 8.43933 21.2797C7.746 20.8931 7.66602 20.3731 7.66602 20.0931C7.67935 19.8264 7.78601 19.3198 8.45268 19.0131C10.066 18.2398 10.626 17.1597 10.7994 16.6931C10.6527 16.5997 10.4793 16.4931 10.3193 16.3864L9.90601 16.1198C8.81267 15.3598 8.99936 14.4531 9.13269 14.1064C9.34602 13.5197 9.89267 13.1597 10.5727 13.1597C10.706 13.1597 10.826 13.1731 10.946 13.1997C10.9727 13.1997 10.986 13.2131 11.0127 13.2131C11.0127 12.7998 11.0127 12.4398 11.0393 12.1198C11.1727 10.6931 11.6794 9.93309 12.1727 9.37309C12.5994 8.89309 13.8127 7.75977 15.9727 7.75977C17.4527 7.75977 18.8394 8.33309 19.7594 9.33309C20.2927 9.95976 20.786 10.7064 20.906 12.1064C20.9327 12.4797 20.946 12.8531 20.946 13.1997C20.9593 13.1997 20.9594 13.1997 20.9727 13.1997C21.026 13.1731 21.1993 13.1464 21.3727 13.1464C22.0527 13.1464 22.5993 13.5198 22.8127 14.1198C22.946 14.4531 23.1327 15.3464 22.0393 16.1198C21.9593 16.1731 21.8127 16.2798 21.626 16.3864C21.4527 16.4931 21.2927 16.5997 21.1593 16.6931C21.346 17.1731 21.9194 18.2397 23.5194 19.0264C24.1594 19.3731 24.2927 19.8131 24.2927 20.1331C24.2927 20.4664 24.1594 20.9331 23.5194 21.2797C23.0527 21.5331 22.6527 21.6531 22.3193 21.7464C22.2927 21.7464 22.266 21.7597 22.226 21.7731C22.1594 22.0531 22.0393 22.3731 21.706 22.5998C21.3193 22.8531 20.9194 22.8664 20.5194 22.8798C20.146 22.8931 19.7327 22.9197 19.266 23.0664C19.106 23.1197 18.9193 23.2398 18.6927 23.3731C18.1327 23.7464 17.346 24.2397 15.9993 24.2397ZM11.586 20.8931C12.0394 20.9198 12.626 20.9598 13.2927 21.1731C13.6927 21.3064 14.0127 21.4931 14.3593 21.7064C14.7993 21.9864 15.2127 22.2397 15.9993 22.2397C16.7727 22.2397 17.186 21.9864 17.6527 21.6931C17.986 21.4931 18.306 21.3064 18.6927 21.1731C19.4127 20.9464 20.0127 20.9064 20.426 20.8931C20.506 20.6398 20.6793 20.3731 20.9993 20.1597C21.106 20.0931 21.1993 20.0397 21.3193 19.9864C19.426 18.5464 19.1593 16.8531 19.146 16.7598C19.146 16.7464 19.146 16.7198 19.146 16.7064C19.106 16.4531 19.066 15.9198 19.5727 15.4264C19.426 15.3598 19.306 15.2664 19.226 15.1731C19.066 15.0131 18.8927 14.7198 18.9327 14.2531C18.9594 13.6931 19.0127 12.9464 18.9594 12.2797C18.8794 11.3864 18.6127 11.0131 18.306 10.6531C18.0127 10.3331 17.2927 9.74642 16.026 9.74642C14.6527 9.74642 13.9193 10.4531 13.7327 10.6664C13.4393 10.9998 13.1727 11.3864 13.0927 12.2664C13.0527 12.7598 13.0527 13.3998 13.106 14.1331C13.1193 14.1998 13.1193 14.2797 13.1193 14.3197C13.146 14.7064 12.9727 14.9997 12.8127 15.1597C12.746 15.2397 12.626 15.3331 12.466 15.4131C12.986 15.9064 12.9327 16.4531 12.8927 16.7064C12.8927 16.7198 12.8927 16.7331 12.8927 16.7598C12.8794 16.8398 12.6127 18.5331 10.7327 19.9731C10.8393 20.0264 10.9593 20.0797 11.066 20.1597C11.346 20.3731 11.506 20.6531 11.586 20.8931ZM23.0793 20.4131L22.6127 19.5331C22.6127 19.5331 22.5994 19.5331 22.5994 19.5464L23.0793 20.4131L22.5994 19.5464L23.0793 20.4131Z" fill="black"/>
<path d="M15.9993 30.3332C8.09268 30.3332 1.66602 23.9065 1.66602 15.9998C1.66602 8.09317 8.09268 1.6665 15.9993 1.6665C23.906 1.6665 30.3327 8.09317 30.3327 15.9998C30.3327 23.9065 23.906 30.3332 15.9993 30.3332ZM15.9993 3.6665C9.19935 3.6665 3.66602 9.19984 3.66602 15.9998C3.66602 22.7998 9.19935 28.3332 15.9993 28.3332C22.7993 28.3332 28.3327 22.7998 28.3327 15.9998C28.3327 9.19984 22.7993 3.6665 15.9993 3.6665Z" fill="black"/>
</svg>
