<svg width="32" height="32" viewBox="0 0 32 32" fill="none" xmlns="http://www.w3.org/2000/svg">
<path d="M18.9657 7.96611C18.9611 7.44126 18.5514 7.00932 18.0276 6.97688C17.5037 6.94443 17.0439 7.32253 16.9745 7.8428C16.9454 8.06107 16.9445 8.29549 16.9707 8.54011L17.0687 19.6094C16.6549 20.9546 16.2938 21.6044 16.0259 21.9444C15.8101 22.2182 15.6491 22.3131 15.3829 22.47C15.3362 22.4975 15.2863 22.5269 15.2323 22.5596C14.2335 23.1628 13.2912 23.1538 12.498 22.9145C11.6782 22.6673 11.0421 22.177 10.7681 21.8796C10.4741 21.5341 10.0593 20.8639 9.85221 20.0543C9.64746 19.2538 9.65645 18.3708 10.1204 17.513C11.0571 15.7809 13.0142 15.5401 13.9085 15.6665C14.4554 15.7438 14.9614 15.3631 15.0387 14.8163C15.116 14.2694 14.7353 13.7635 14.1885 13.6862C12.8961 13.5035 9.86865 13.7742 8.36121 16.5615C7.6031 17.9633 7.61689 19.3861 7.9146 20.5499C8.20784 21.6963 8.7868 22.6433 9.26089 23.1944L9.27867 23.2145C9.76861 23.7541 10.7134 24.4652 11.9204 24.8293C13.1628 25.2041 14.7061 25.2138 16.2663 24.2715C16.2991 24.2517 16.3357 24.2305 16.3757 24.2074C16.6671 24.0386 17.1358 23.7672 17.5968 23.1823C18.0973 22.5472 18.5636 21.5911 19.028 20.0403C19.0567 19.9444 19.0708 19.8447 19.07 19.7446L19.0017 12.0301C20.0083 12.8685 21.4006 13.5098 23.2167 13.6701C23.7669 13.7186 24.2522 13.312 24.3007 12.7619C24.3493 12.2117 23.9427 11.7264 23.3925 11.6778C21.6062 11.5202 20.4677 10.7883 19.7933 10.0175C19.2516 9.39819 19.0295 8.78592 18.9696 8.40142L18.9657 7.96611Z" fill="black"/>
<path fill-rule="evenodd" clip-rule="evenodd" d="M16.0769 2.33301H15.9244C13.0035 2.33299 10.7092 2.33298 8.91802 2.5738C7.08247 2.82058 5.62613 3.33663 4.48187 4.48089C3.3376 5.62516 2.82156 7.0815 2.57478 8.91704C2.33395 10.7083 2.33397 13.0025 2.33398 15.9234V16.0759C2.33397 18.9968 2.33395 21.2911 2.57478 23.0823C2.82156 24.9179 3.3376 26.3742 4.48187 27.5185C5.62613 28.6627 7.08247 29.1788 8.91802 29.4255C10.7092 29.6664 13.0035 29.6664 15.9244 29.6663H16.0769C18.9978 29.6664 21.2921 29.6664 23.0833 29.4255C24.9188 29.1788 26.3752 28.6627 27.5194 27.5185C28.6637 26.3742 29.1797 24.9179 29.4265 23.0823C29.6673 21.2911 29.6673 18.9969 29.6673 16.0759V15.9235C29.6673 13.0025 29.6673 10.7083 29.4265 8.91704C29.1797 7.08149 28.6637 5.62516 27.5194 4.48089C26.3752 3.33663 24.9188 2.82058 23.0833 2.5738C21.2921 2.33298 18.9979 2.33299 16.0769 2.33301ZM5.89608 5.89511C6.60681 5.18438 7.57075 4.77293 9.18451 4.55596C10.827 4.33513 12.9868 4.33301 16.0007 4.33301C19.0145 4.33301 21.1743 4.33513 22.8168 4.55596C24.4306 4.77293 25.3945 5.18438 26.1052 5.89511C26.8159 6.60583 27.2274 7.56977 27.4444 9.18353C27.6652 10.8261 27.6673 12.9858 27.6673 15.9997C27.6673 19.0135 27.6652 21.1733 27.4444 22.8158C27.2274 24.4296 26.8159 25.3935 26.1052 26.1042C25.3945 26.815 24.4306 27.2264 22.8168 27.4434C21.1743 27.6642 19.0145 27.6663 16.0007 27.6663C12.9868 27.6663 10.827 27.6642 9.18451 27.4434C7.57075 27.2264 6.60681 26.815 5.89608 26.1042C5.18536 25.3935 4.77391 24.4296 4.55694 22.8158C4.33611 21.1733 4.33399 19.0135 4.33399 15.9997C4.33399 12.9858 4.33611 10.8261 4.55694 9.18353C4.77391 7.56977 5.18536 6.60583 5.89608 5.89511Z" fill="black"/>
</svg>
