<svg width="14" height="14" viewBox="0 0 14 14" fill="none" xmlns="http://www.w3.org/2000/svg">
<path d="M4.66602 3.35417C4.42685 3.35417 4.22852 3.15584 4.22852 2.91667V1.16667C4.22852 0.927505 4.42685 0.729172 4.66602 0.729172C4.90518 0.729172 5.10352 0.927505 5.10352 1.16667V2.91667C5.10352 3.15584 4.90518 3.35417 4.66602 3.35417Z" fill="#64668E"/>
<path d="M9.33398 3.35417C9.09482 3.35417 8.89648 3.15584 8.89648 2.91667V1.16667C8.89648 0.927505 9.09482 0.729172 9.33398 0.729172C9.57315 0.729172 9.77148 0.927505 9.77148 1.16667V2.91667C9.77148 3.15584 9.57315 3.35417 9.33398 3.35417Z" fill="#64668E"/>
<path d="M4.95833 8.45834C4.8825 8.45834 4.80667 8.44084 4.73667 8.41168C4.66083 8.38251 4.6025 8.34167 4.54417 8.28917C4.43917 8.17833 4.375 8.0325 4.375 7.875C4.375 7.79917 4.3925 7.72333 4.42167 7.65333C4.45083 7.58333 4.49167 7.51918 4.54417 7.46084C4.6025 7.40834 4.66083 7.3675 4.73667 7.33833C4.94667 7.25083 5.20917 7.29751 5.3725 7.46084C5.4775 7.57168 5.54167 7.72334 5.54167 7.875C5.54167 7.91 5.53583 7.95084 5.53 7.99168C5.52417 8.02668 5.5125 8.06167 5.495 8.09667C5.48333 8.13167 5.46583 8.16667 5.4425 8.20167C5.425 8.23084 5.39583 8.26 5.3725 8.28917C5.26167 8.39417 5.11 8.45834 4.95833 8.45834Z" fill="#64668E"/>
<path d="M6.99935 8.45834C6.92352 8.45834 6.84768 8.44084 6.77768 8.41168C6.70185 8.38251 6.64352 8.34166 6.58518 8.28916C6.48018 8.17833 6.41602 8.0325 6.41602 7.875C6.41602 7.79917 6.43352 7.72333 6.46268 7.65333C6.49185 7.58333 6.53268 7.51917 6.58518 7.46084C6.64352 7.40834 6.70185 7.36749 6.77768 7.33833C6.98768 7.24499 7.25018 7.29751 7.41352 7.46084C7.51852 7.57167 7.58268 7.72334 7.58268 7.875C7.58268 7.91 7.57685 7.95084 7.57102 7.99168C7.56518 8.02668 7.55351 8.06167 7.53601 8.09667C7.52435 8.13167 7.50685 8.16667 7.48352 8.20167C7.46602 8.23083 7.43685 8.26 7.41352 8.28916C7.30268 8.39416 7.15102 8.45834 6.99935 8.45834Z" fill="#64668E"/>
<path d="M9.04232 8.45834C8.96648 8.45834 8.89065 8.44084 8.82065 8.41168C8.74482 8.38251 8.68648 8.34166 8.62815 8.28916C8.60482 8.26 8.58148 8.23083 8.55815 8.20167C8.53482 8.16667 8.51732 8.13167 8.50565 8.09667C8.48815 8.06167 8.47648 8.02668 8.47065 7.99168C8.46482 7.95084 8.45898 7.91 8.45898 7.875C8.45898 7.72334 8.52315 7.57167 8.62815 7.46084C8.68648 7.40834 8.74482 7.36749 8.82065 7.33833C9.03648 7.24499 9.29315 7.29751 9.45648 7.46084C9.56148 7.57167 9.62565 7.72334 9.62565 7.875C9.62565 7.91 9.61982 7.95084 9.61398 7.99168C9.60815 8.02668 9.59648 8.06167 9.57898 8.09667C9.56732 8.13167 9.54982 8.16667 9.52649 8.20167C9.50899 8.23083 9.47982 8.26 9.45648 8.28916C9.34565 8.39416 9.19398 8.45834 9.04232 8.45834Z" fill="#64668E"/>
<path d="M4.95833 10.5C4.8825 10.5 4.80667 10.4825 4.73667 10.4533C4.66667 10.4242 4.6025 10.3833 4.54417 10.3308C4.43917 10.22 4.375 10.0683 4.375 9.91667C4.375 9.84084 4.3925 9.765 4.42167 9.695C4.45083 9.61917 4.49167 9.55501 4.54417 9.50251C4.76 9.28668 5.15667 9.28668 5.3725 9.50251C5.4775 9.61335 5.54167 9.76501 5.54167 9.91667C5.54167 10.0683 5.4775 10.22 5.3725 10.3308C5.26167 10.4358 5.11 10.5 4.95833 10.5Z" fill="#64668E"/>
<path d="M6.99935 10.5C6.84768 10.5 6.69602 10.4358 6.58518 10.3308C6.48018 10.22 6.41602 10.0683 6.41602 9.91667C6.41602 9.84084 6.43352 9.765 6.46268 9.695C6.49185 9.61917 6.53268 9.55501 6.58518 9.50251C6.80102 9.28668 7.19768 9.28668 7.41352 9.50251C7.46602 9.55501 7.50685 9.61917 7.53601 9.695C7.56518 9.765 7.58268 9.84084 7.58268 9.91667C7.58268 10.0683 7.51852 10.22 7.41352 10.3308C7.30268 10.4358 7.15102 10.5 6.99935 10.5Z" fill="#64668E"/>
<path d="M9.04232 10.5C8.89065 10.5 8.73898 10.4359 8.62815 10.3309C8.57565 10.2784 8.53482 10.2142 8.50565 10.1384C8.47649 10.0684 8.45898 9.99253 8.45898 9.91669C8.45898 9.84086 8.47649 9.76502 8.50565 9.69502C8.53482 9.61919 8.57565 9.55503 8.62815 9.50253C8.76232 9.36836 8.96648 9.30419 9.15315 9.34502C9.19398 9.35085 9.22899 9.36252 9.26399 9.38002C9.29899 9.39168 9.33399 9.4092 9.36899 9.43253C9.39815 9.45003 9.42732 9.4792 9.45648 9.50253C9.56148 9.61336 9.62565 9.76503 9.62565 9.91669C9.62565 10.0684 9.56148 10.22 9.45648 10.3309C9.34565 10.4359 9.19398 10.5 9.04232 10.5Z" fill="#00ABB6"/>
<path d="M11.9577 5.73997H2.04102C1.80185 5.73997 1.60352 5.54164 1.60352 5.30247C1.60352 5.06331 1.80185 4.86497 2.04102 4.86497H11.9577C12.1968 4.86497 12.3952 5.06331 12.3952 5.30247C12.3952 5.54164 12.1968 5.73997 11.9577 5.73997Z" fill="#64668E"/>
<path d="M9.33333 13.2708H4.66667C2.5375 13.2708 1.3125 12.0458 1.3125 9.91667V4.95834C1.3125 2.82917 2.5375 1.60417 4.66667 1.60417H9.33333C11.4625 1.60417 12.6875 2.82917 12.6875 4.95834V9.91667C12.6875 12.0458 11.4625 13.2708 9.33333 13.2708ZM4.66667 2.47917C2.99833 2.47917 2.1875 3.29001 2.1875 4.95834V9.91667C2.1875 11.585 2.99833 12.3958 4.66667 12.3958H9.33333C11.0017 12.3958 11.8125 11.585 11.8125 9.91667V4.95834C11.8125 3.29001 11.0017 2.47917 9.33333 2.47917H4.66667Z" fill="#64668E"/>
</svg>
