<svg width="14" height="14" viewBox="0 0 14 14" fill="none" xmlns="http://www.w3.org/2000/svg">
<path d="M4.66602 3.35419C4.42685 3.35419 4.22852 3.15585 4.22852 2.91669V1.16669C4.22852 0.92752 4.42685 0.729187 4.66602 0.729187C4.90518 0.729187 5.10352 0.92752 5.10352 1.16669V2.91669C5.10352 3.15585 4.90518 3.35419 4.66602 3.35419Z" fill="white"/>
<path d="M9.33398 3.35419C9.09482 3.35419 8.89648 3.15585 8.89648 2.91669V1.16669C8.89648 0.92752 9.09482 0.729187 9.33398 0.729187C9.57315 0.729187 9.77148 0.92752 9.77148 1.16669V2.91669C9.77148 3.15585 9.57315 3.35419 9.33398 3.35419Z" fill="white"/>
<path d="M4.95833 8.45835C4.8825 8.45835 4.80667 8.44086 4.73667 8.41169C4.66083 8.38253 4.6025 8.34168 4.54417 8.28918C4.43917 8.17835 4.375 8.03252 4.375 7.87502C4.375 7.79919 4.3925 7.72335 4.42167 7.65335C4.45083 7.58335 4.49167 7.51919 4.54417 7.46086C4.6025 7.40836 4.66083 7.36751 4.73667 7.33834C4.94667 7.25084 5.20917 7.29752 5.3725 7.46086C5.4775 7.57169 5.54167 7.72335 5.54167 7.87502C5.54167 7.91002 5.53583 7.95086 5.53 7.99169C5.52417 8.02669 5.5125 8.06169 5.495 8.09669C5.48333 8.13169 5.46583 8.16668 5.4425 8.20168C5.425 8.23085 5.39583 8.26001 5.3725 8.28918C5.26167 8.39418 5.11 8.45835 4.95833 8.45835Z" fill="#00ABB6"/>
<path d="M6.99935 8.45832C6.92352 8.45832 6.84768 8.44083 6.77768 8.41166C6.70185 8.38249 6.64352 8.34165 6.58518 8.28915C6.48018 8.17832 6.41602 8.03249 6.41602 7.87499C6.41602 7.79915 6.43352 7.72332 6.46268 7.65332C6.49185 7.58332 6.53268 7.51916 6.58518 7.46083C6.64352 7.40833 6.70185 7.36748 6.77768 7.33831C6.98768 7.24498 7.25018 7.29749 7.41352 7.46083C7.51852 7.57166 7.58268 7.72332 7.58268 7.87499C7.58268 7.90999 7.57685 7.95083 7.57102 7.99166C7.56518 8.02666 7.55351 8.06166 7.53601 8.09666C7.52435 8.13166 7.50685 8.16665 7.48352 8.20165C7.46602 8.23082 7.43685 8.25998 7.41352 8.28915C7.30268 8.39415 7.15102 8.45832 6.99935 8.45832Z" fill="#00ABB6"/>
<path d="M9.04232 8.45832C8.96648 8.45832 8.89065 8.44083 8.82065 8.41166C8.74482 8.38249 8.68648 8.34165 8.62815 8.28915C8.60482 8.25998 8.58148 8.23082 8.55815 8.20165C8.53482 8.16665 8.51732 8.13166 8.50565 8.09666C8.48815 8.06166 8.47648 8.02666 8.47065 7.99166C8.46482 7.95083 8.45898 7.90999 8.45898 7.87499C8.45898 7.72332 8.52315 7.57166 8.62815 7.46083C8.68648 7.40833 8.74482 7.36748 8.82065 7.33831C9.03648 7.24498 9.29315 7.29749 9.45648 7.46083C9.56148 7.57166 9.62565 7.72332 9.62565 7.87499C9.62565 7.90999 9.61982 7.95083 9.61398 7.99166C9.60815 8.02666 9.59648 8.06166 9.57898 8.09666C9.56732 8.13166 9.54982 8.16665 9.52649 8.20165C9.50899 8.23082 9.47982 8.25998 9.45648 8.28915C9.34565 8.39415 9.19398 8.45832 9.04232 8.45832Z" fill="#00ABB6"/>
<path d="M4.95833 10.5C4.8825 10.5 4.80667 10.4825 4.73667 10.4533C4.66667 10.4242 4.6025 10.3833 4.54417 10.3308C4.43917 10.22 4.375 10.0683 4.375 9.91667C4.375 9.84084 4.3925 9.765 4.42167 9.695C4.45083 9.61917 4.49167 9.55501 4.54417 9.50251C4.76 9.28668 5.15667 9.28668 5.3725 9.50251C5.4775 9.61335 5.54167 9.76501 5.54167 9.91667C5.54167 10.0683 5.4775 10.22 5.3725 10.3308C5.26167 10.4358 5.11 10.5 4.95833 10.5Z" fill="#00ABB6"/>
<path d="M6.99935 10.5C6.84768 10.5 6.69602 10.4358 6.58518 10.3308C6.48018 10.22 6.41602 10.0683 6.41602 9.91667C6.41602 9.84084 6.43352 9.765 6.46268 9.695C6.49185 9.61917 6.53268 9.55501 6.58518 9.50251C6.80102 9.28668 7.19768 9.28668 7.41352 9.50251C7.46602 9.55501 7.50685 9.61917 7.53601 9.695C7.56518 9.765 7.58268 9.84084 7.58268 9.91667C7.58268 10.0683 7.51852 10.22 7.41352 10.3308C7.30268 10.4358 7.15102 10.5 6.99935 10.5Z" fill="#00ABB6"/>
<path d="M9.04232 10.5C8.89065 10.5 8.73898 10.4358 8.62815 10.3308C8.57565 10.2783 8.53482 10.2142 8.50565 10.1383C8.47649 10.0683 8.45898 9.99251 8.45898 9.91668C8.45898 9.84084 8.47649 9.76501 8.50565 9.69501C8.53482 9.61917 8.57565 9.55502 8.62815 9.50252C8.76232 9.36835 8.96648 9.30417 9.15315 9.345C9.19398 9.35084 9.22899 9.3625 9.26399 9.38C9.29899 9.39167 9.33399 9.40918 9.36899 9.43252C9.39815 9.45002 9.42732 9.47918 9.45648 9.50252C9.56148 9.61335 9.62565 9.76501 9.62565 9.91668C9.62565 10.0683 9.56148 10.22 9.45648 10.3308C9.34565 10.4358 9.19398 10.5 9.04232 10.5Z" fill="#00ABB6"/>
<path d="M11.9577 5.73999H2.04102C1.80185 5.73999 1.60352 5.54166 1.60352 5.30249C1.60352 5.06332 1.80185 4.86499 2.04102 4.86499H11.9577C12.1968 4.86499 12.3952 5.06332 12.3952 5.30249C12.3952 5.54166 12.1968 5.73999 11.9577 5.73999Z" fill="white"/>
<path d="M9.33333 13.2709H4.66667C2.5375 13.2709 1.3125 12.0459 1.3125 9.91669V4.95835C1.3125 2.82919 2.5375 1.60419 4.66667 1.60419H9.33333C11.4625 1.60419 12.6875 2.82919 12.6875 4.95835V9.91669C12.6875 12.0459 11.4625 13.2709 9.33333 13.2709ZM4.66667 2.47919C2.99833 2.47919 2.1875 3.29002 2.1875 4.95835V9.91669C2.1875 11.585 2.99833 12.3959 4.66667 12.3959H9.33333C11.0017 12.3959 11.8125 11.585 11.8125 9.91669V4.95835C11.8125 3.29002 11.0017 2.47919 9.33333 2.47919H4.66667Z" fill="white"/>
</svg>
