<svg width="1920" height="825" viewBox="0 0 1920 825" fill="none" xmlns="http://www.w3.org/2000/svg">
<g clip-path="url(#clip0_29_6190)">
<line x1="854.901" y1="-19.3248" x2="190.782" y2="1381.19" stroke="#F3F3F3"/>
<line x1="809.724" y1="-40.748" x2="145.604" y2="1359.77" stroke="#F3F3F3"/>
<line x1="764.546" y1="-62.1712" x2="100.426" y2="1338.34" stroke="#F3F3F3"/>
<line x1="719.368" y1="-83.5944" x2="55.248" y2="1316.92" stroke="#F3F3F3"/>
<line x1="674.19" y1="-105.018" x2="10.0701" y2="1295.5" stroke="#F3F3F3"/>
<line x1="629.012" y1="-126.441" x2="-35.1079" y2="1274.08" stroke="#F3F3F3"/>
<line x1="583.834" y1="-147.864" x2="-80.2859" y2="1252.65" stroke="#F3F3F3"/>
<line x1="538.656" y1="-169.287" x2="-125.464" y2="1231.23" stroke="#F3F3F3"/>
<line x1="493.478" y1="-190.711" x2="-170.642" y2="1209.81" stroke="#F3F3F3"/>
<line x1="448.3" y1="-212.134" x2="-215.82" y2="1188.38" stroke="#F3F3F3"/>
<line x1="403.122" y1="-233.557" x2="-260.998" y2="1166.96" stroke="#F3F3F3"/>
<line x1="357.944" y1="-254.98" x2="-306.176" y2="1145.54" stroke="#F3F3F3"/>
<line x1="312.766" y1="-276.403" x2="-351.354" y2="1124.11" stroke="#F3F3F3"/>
<line x1="267.588" y1="-297.827" x2="-396.531" y2="1102.69" stroke="#F3F3F3"/>
<line x1="222.41" y1="-319.25" x2="-441.709" y2="1081.27" stroke="#F3F3F3"/>
<line x1="177.233" y1="-340.673" x2="-486.887" y2="1059.84" stroke="#F3F3F3"/>
<line x1="132.055" y1="-362.096" x2="-532.065" y2="1038.42" stroke="#F3F3F3"/>
<line x1="86.8766" y1="-383.519" x2="-577.243" y2="1017" stroke="#F3F3F3"/>
<line x1="41.6986" y1="-404.943" x2="-622.421" y2="995.573" stroke="#F3F3F3"/>
<line x1="1793.4" y1="102.447" x2="1129.28" y2="1502.96" stroke="#F3F3F3"/>
<line x1="1770.81" y1="91.735" x2="1106.69" y2="1492.25" stroke="#F3F3F3"/>
<line x1="1748.22" y1="81.0234" x2="1084.1" y2="1481.54" stroke="#F3F3F3"/>
<line x1="1725.63" y1="70.3118" x2="1061.51" y2="1470.83" stroke="#F3F3F3"/>
<line x1="1703.04" y1="59.6002" x2="1038.92" y2="1460.12" stroke="#F3F3F3"/>
<line x1="1680.45" y1="48.8885" x2="1016.33" y2="1449.4" stroke="#F3F3F3"/>
<line x1="1657.86" y1="38.1769" x2="993.742" y2="1438.69" stroke="#F3F3F3"/>
<line x1="1635.27" y1="27.4653" x2="971.153" y2="1427.98" stroke="#F3F3F3"/>
<line x1="1612.68" y1="16.7537" x2="948.564" y2="1417.27" stroke="#F3F3F3"/>
<line x1="1590.09" y1="6.04211" x2="925.975" y2="1406.56" stroke="#F3F3F3"/>
<line x1="1567.51" y1="-4.6695" x2="903.386" y2="1395.85" stroke="#F3F3F3"/>
<line x1="1544.92" y1="-15.3811" x2="880.797" y2="1385.13" stroke="#F3F3F3"/>
<line x1="1522.33" y1="-26.0927" x2="858.208" y2="1374.42" stroke="#F3F3F3"/>
<line x1="1499.74" y1="-36.8043" x2="835.619" y2="1363.71" stroke="#F3F3F3"/>
<line x1="1477.15" y1="-47.5159" x2="813.03" y2="1353" stroke="#F3F3F3"/>
<line x1="1454.56" y1="-58.2275" x2="790.441" y2="1342.29" stroke="#F3F3F3"/>
<line x1="1431.97" y1="-68.9391" x2="767.852" y2="1331.58" stroke="#F3F3F3"/>
<line x1="1409.38" y1="-79.6508" x2="745.263" y2="1320.87" stroke="#F3F3F3"/>
<line x1="1386.79" y1="-90.3624" x2="722.674" y2="1310.15" stroke="#F3F3F3"/>
<line x1="1364.2" y1="-101.074" x2="700.085" y2="1299.44" stroke="#F3F3F3"/>
<line x1="1341.62" y1="-111.786" x2="677.496" y2="1288.73" stroke="#F3F3F3"/>
<line x1="1319.03" y1="-122.497" x2="654.907" y2="1278.02" stroke="#F3F3F3"/>
<line x1="1296.44" y1="-133.209" x2="632.318" y2="1267.31" stroke="#F3F3F3"/>
<line x1="1273.85" y1="-143.92" x2="609.729" y2="1256.6" stroke="#F3F3F3"/>
<line x1="1251.26" y1="-154.632" x2="587.14" y2="1245.88" stroke="#F3F3F3"/>
<line x1="1228.67" y1="-165.344" x2="564.551" y2="1235.17" stroke="#F3F3F3"/>
<line x1="1206.08" y1="-176.055" x2="541.962" y2="1224.46" stroke="#F3F3F3"/>
<line x1="1183.49" y1="-186.767" x2="519.373" y2="1213.75" stroke="#F3F3F3"/>
<line x1="1160.9" y1="-197.478" x2="496.784" y2="1203.04" stroke="#F3F3F3"/>
<line x1="1138.32" y1="-208.19" x2="474.195" y2="1192.33" stroke="#F3F3F3"/>
<line x1="1115.73" y1="-218.902" x2="451.606" y2="1181.61" stroke="#F3F3F3"/>
<line x1="1093.14" y1="-229.613" x2="429.017" y2="1170.9" stroke="#F3F3F3"/>
<line x1="1070.55" y1="-240.325" x2="406.428" y2="1160.19" stroke="#F3F3F3"/>
<line x1="1047.96" y1="-251.037" x2="383.839" y2="1149.48" stroke="#F3F3F3"/>
<line x1="1025.37" y1="-261.748" x2="361.25" y2="1138.77" stroke="#F3F3F3"/>
<line x1="1002.78" y1="-272.46" x2="338.662" y2="1128.06" stroke="#F3F3F3"/>
<line x1="980.192" y1="-283.171" x2="316.073" y2="1117.34" stroke="#F3F3F3"/>
<line x1="957.603" y1="-293.883" x2="293.484" y2="1106.63" stroke="#F3F3F3"/>
<line x1="20.8847" y1="-242.802" x2="1551.74" y2="0.0362868" stroke="#F3F3F3"/>
<line x1="16.028" y1="-212.185" x2="1546.89" y2="30.6535" stroke="#F3F3F3"/>
<line x1="11.1714" y1="-181.568" x2="1542.03" y2="61.2707" stroke="#F3F3F3"/>
<line x1="6.31442" y1="-150.951" x2="1537.17" y2="91.8878" stroke="#F3F3F3"/>
<line x1="1.45773" y1="-120.334" x2="1532.32" y2="122.505" stroke="#F3F3F3"/>
<line x1="-3.39896" y1="-89.7165" x2="1527.46" y2="153.122" stroke="#F3F3F3"/>
<line x1="-8.25589" y1="-59.0993" x2="1522.6" y2="183.739" stroke="#F3F3F3"/>
<line x1="-13.1126" y1="-28.4821" x2="1517.75" y2="214.357" stroke="#F3F3F3"/>
<line x1="-17.9693" y1="2.13508" x2="1512.89" y2="244.974" stroke="#F3F3F3"/>
<line x1="-22.8262" y1="32.7523" x2="1508.03" y2="275.591" stroke="#F3F3F3"/>
<line x1="-27.6829" y1="63.3695" x2="1503.18" y2="306.208" stroke="#F3F3F3"/>
<line x1="-32.5398" y1="93.9866" x2="1498.32" y2="336.825" stroke="#F3F3F3"/>
<line x1="-37.3965" y1="124.604" x2="1493.46" y2="367.442" stroke="#F3F3F3"/>
<line x1="-42.2532" y1="155.221" x2="1488.61" y2="398.06" stroke="#F3F3F3"/>
<line x1="-47.1101" y1="185.838" x2="1483.75" y2="428.677" stroke="#F3F3F3"/>
<line x1="-51.9668" y1="216.455" x2="1478.89" y2="459.294" stroke="#F3F3F3"/>
<line x1="-56.8235" y1="247.073" x2="1474.04" y2="489.911" stroke="#F3F3F3"/>
<line x1="-61.6805" y1="277.69" x2="1469.18" y2="520.528" stroke="#F3F3F3"/>
<line x1="-66.5371" y1="308.307" x2="1464.32" y2="551.146" stroke="#F3F3F3"/>
<line x1="-71.3938" y1="338.924" x2="1459.47" y2="581.763" stroke="#F3F3F3"/>
<line x1="-47.7849" y1="373.409" x2="1483.07" y2="616.247" stroke="#F3F3F3"/>
<line x1="-52.6416" y1="404.026" x2="1478.22" y2="646.864" stroke="#F3F3F3"/>
<line x1="-57.4986" y1="434.643" x2="1473.36" y2="677.482" stroke="#F3F3F3"/>
<line x1="-62.3553" y1="465.26" x2="1468.5" y2="708.099" stroke="#F3F3F3"/>
<line x1="-67.2119" y1="495.877" x2="1463.65" y2="738.716" stroke="#F3F3F3"/>
<line x1="-72.0689" y1="526.494" x2="1458.79" y2="769.333" stroke="#F3F3F3"/>
<line x1="-76.9256" y1="557.112" x2="1453.93" y2="799.95" stroke="#F3F3F3"/>
<line x1="-81.7823" y1="587.729" x2="1449.08" y2="830.567" stroke="#F3F3F3"/>
<line x1="-86.6392" y1="618.346" x2="1444.22" y2="861.185" stroke="#F3F3F3"/>
<line x1="-91.4959" y1="648.963" x2="1439.36" y2="891.802" stroke="#F3F3F3"/>
<line x1="-96.3526" y1="679.58" x2="1434.51" y2="922.419" stroke="#F3F3F3"/>
<line x1="-101.21" y1="710.198" x2="1429.65" y2="953.036" stroke="#F3F3F3"/>
<line x1="-106.066" y1="740.815" x2="1424.79" y2="983.653" stroke="#F3F3F3"/>
<line x1="-110.923" y1="771.432" x2="1419.94" y2="1014.27" stroke="#F3F3F3"/>
<line x1="-115.78" y1="802.049" x2="1415.08" y2="1044.89" stroke="#F3F3F3"/>
</g>
<defs>
<clipPath id="clip0_29_6190">
<rect width="1920" height="825" fill="white"/>
</clipPath>
</defs>
</svg>
