<svg width="56" height="56" viewBox="0 0 56 56" fill="none" xmlns="http://www.w3.org/2000/svg">
<path d="M0 28C0 12.536 12.536 0 28 0V0C43.464 0 56 12.536 56 28V28C56 43.464 43.464 56 28 56V56C12.536 56 0 43.464 0 28V28Z" fill="#FF8B85" fill-opacity="0.32"/>
<path d="M19.545 20.5066C19.2917 20.5066 19.025 20.4 18.8383 20.2133C18.4517 19.8266 18.4517 19.1866 18.8383 18.8L23.6783 13.96C24.065 13.5733 24.705 13.5733 25.0917 13.96C25.4783 14.3466 25.4783 14.9866 25.0917 15.3733L20.2517 20.2133C20.0517 20.4 19.7983 20.5066 19.545 20.5066Z" fill="#FF8B85"/>
<path d="M37.7051 20.5066C37.4517 20.5066 37.1984 20.4133 36.9984 20.2133L32.1584 15.3733C31.7717 14.9866 31.7717 14.3466 32.1584 13.96C32.5451 13.5733 33.1851 13.5733 33.5717 13.96L38.4117 18.8C38.7984 19.1866 38.7984 19.8266 38.4117 20.2133C38.2251 20.4 37.9584 20.5066 37.7051 20.5066Z" fill="#FF8B85"/>
<path d="M39.5717 26.1333C39.4784 26.1333 39.3851 26.1333 39.2917 26.1333H38.9851H17.9584C17.0251 26.1467 15.9584 26.1467 15.1851 25.3733C14.5717 24.7733 14.2917 23.84 14.2917 22.4667C14.2917 18.8 16.9717 18.8 18.2517 18.8H38.9984C40.2784 18.8 42.9584 18.8 42.9584 22.4667C42.9584 23.8533 42.6784 24.7733 42.0651 25.3733C41.3717 26.0667 40.4384 26.1333 39.5717 26.1333ZM18.2517 24.1333H39.3051C39.9051 24.1467 40.4651 24.1467 40.6517 23.96C40.7451 23.8667 40.9451 23.5467 40.9451 22.4667C40.9451 20.96 40.5717 20.8 38.9851 20.8H18.2517C16.6651 20.8 16.2917 20.96 16.2917 22.4667C16.2917 23.5467 16.5051 23.8667 16.5851 23.96C16.7717 24.1333 17.3451 24.1333 17.9317 24.1333H18.2517Z" fill="#FF8B85"/>
<path d="M25.6384 36.4C25.0918 36.4 24.6384 35.9467 24.6384 35.4V30.6667C24.6384 30.12 25.0918 29.6667 25.6384 29.6667C26.1851 29.6667 26.6384 30.12 26.6384 30.6667V35.4C26.6384 35.96 26.1851 36.4 25.6384 36.4Z" fill="#64668E"/>
<path d="M31.7717 36.4C31.2251 36.4 30.7717 35.9467 30.7717 35.4V30.6667C30.7717 30.12 31.2251 29.6667 31.7717 29.6667C32.3184 29.6667 32.7717 30.12 32.7717 30.6667V35.4C32.7717 35.96 32.3184 36.4 31.7717 36.4Z" fill="#64668E"/>
<path d="M32.4784 42.3333H24.4384C19.6651 42.3333 18.5984 39.4933 18.1851 37.0266L16.3051 25.4933C16.2117 24.9466 16.5851 24.44 17.1317 24.3466C17.6784 24.2533 18.1851 24.6266 18.2784 25.1733L20.1584 36.6933C20.5451 39.0533 21.3451 40.3333 24.4384 40.3333H32.4784C35.9051 40.3333 36.2917 39.1333 36.7317 36.8133L38.9717 25.1466C39.0784 24.6 39.5984 24.24 40.1451 24.36C40.6917 24.4666 41.0384 24.9866 40.9317 25.5333L38.6917 37.2C38.1717 39.9066 37.3051 42.3333 32.4784 42.3333Z" fill="#FF8B85"/>
</svg>
