<svg width="56" height="56" viewBox="0 0 56 56" fill="none" xmlns="http://www.w3.org/2000/svg">
<path d="M0 28C0 12.536 12.536 0 28 0V0C43.464 0 56 12.536 56 28V28C56 43.464 43.464 56 28 56V56C12.536 56 0 43.464 0 28V28Z" fill="#FF8B85" fill-opacity="0.32"/>
<path d="M22.6667 19.6667C22.1201 19.6667 21.6667 19.2133 21.6667 18.6667V14.6667C21.6667 14.12 22.1201 13.6667 22.6667 13.6667C23.2134 13.6667 23.6667 14.12 23.6667 14.6667V18.6667C23.6667 19.2133 23.2134 19.6667 22.6667 19.6667Z" fill="#FF8B85"/>
<path d="M33.3333 19.6667C32.7866 19.6667 32.3333 19.2133 32.3333 18.6667V14.6667C32.3333 14.12 32.7866 13.6667 33.3333 13.6667C33.8799 13.6667 34.3333 14.12 34.3333 14.6667V18.6667C34.3333 19.2133 33.8799 19.6667 33.3333 19.6667Z" fill="#FF8B85"/>
<path d="M23.3333 31.3333C22.9867 31.3333 22.64 31.1867 22.3867 30.9467C22.1467 30.6933 22 30.36 22 30C22 29.8267 22.04 29.6533 22.1067 29.4933C22.1733 29.3333 22.2667 29.1867 22.3867 29.0533C22.88 28.56 23.7733 28.56 24.28 29.0533C24.52 29.3067 24.6667 29.6533 24.6667 30C24.6667 30.08 24.6533 30.1734 24.64 30.2667C24.6267 30.3467 24.6 30.4267 24.56 30.5067C24.5333 30.5867 24.4933 30.6667 24.44 30.7467C24.3867 30.8133 24.3333 30.88 24.28 30.9467C24.0267 31.1867 23.68 31.3333 23.3333 31.3333Z" fill="#FF8B85"/>
<path d="M28.0001 31.3333C27.8267 31.3333 27.6534 31.2934 27.4934 31.2267C27.3201 31.16 27.1867 31.0667 27.0534 30.9467C26.8134 30.6933 26.6667 30.36 26.6667 30C26.6667 29.8267 26.7068 29.6533 26.7734 29.4933C26.8401 29.3333 26.9334 29.1867 27.0534 29.0534C27.1867 28.9334 27.3201 28.84 27.4934 28.7733C27.9868 28.5733 28.5734 28.68 28.9467 29.0534C29.1867 29.3067 29.3334 29.6533 29.3334 30C29.3334 30.08 29.3201 30.1734 29.3068 30.2667C29.2934 30.3467 29.2667 30.4267 29.2267 30.5067C29.2001 30.5867 29.1601 30.6667 29.1068 30.7467C29.0668 30.8133 29.0001 30.88 28.9467 30.9467C28.6934 31.1867 28.3467 31.3333 28.0001 31.3333Z" fill="#FF8B85"/>
<path d="M23.3333 36C23.16 36 22.9867 35.9601 22.8267 35.8934C22.6533 35.8267 22.5067 35.7334 22.3867 35.6134C22.2667 35.4934 22.1733 35.3467 22.1067 35.1734C22.04 35.0134 22 34.84 22 34.6667C22 34.4934 22.04 34.32 22.1067 34.16C22.1733 33.9867 22.2667 33.84 22.3867 33.72C22.5067 33.6 22.6533 33.5067 22.8267 33.44C23.1467 33.3067 23.52 33.2934 23.84 33.44C24.0133 33.5067 24.16 33.6 24.28 33.72C24.4 33.84 24.4933 33.9867 24.56 34.16C24.6267 34.32 24.6667 34.4934 24.6667 34.6667C24.6667 34.84 24.6267 35.0134 24.56 35.1734C24.4933 35.3467 24.4 35.4934 24.28 35.6134C24.16 35.7334 24.0133 35.8267 23.84 35.8934C23.68 35.9601 23.5067 36 23.3333 36Z" fill="#FF8B85"/>
<path d="M39.3334 25.12H16.6667C16.1201 25.12 15.6667 24.6666 15.6667 24.12C15.6667 23.5733 16.1201 23.12 16.6667 23.12H39.3334C39.8801 23.12 40.3334 23.5733 40.3334 24.12C40.3334 24.6666 39.8801 25.12 39.3334 25.12Z" fill="#FF8B85"/>
<path d="M36.0001 43.6667C34.4401 43.6667 32.9601 43.1067 31.8268 42.08C31.3468 41.68 30.9201 41.1733 30.5734 40.5867C29.9867 39.6267 29.6667 38.4933 29.6667 37.3333C29.6667 33.84 32.5067 31 36.0001 31C37.8134 31 39.5467 31.7866 40.7467 33.1466C41.7734 34.32 42.3334 35.8 42.3334 37.3333C42.3334 38.4933 42.0134 39.6267 41.4134 40.6C40.2934 42.4933 38.2134 43.6667 36.0001 43.6667ZM36.0001 33C33.6134 33 31.6667 34.9467 31.6667 37.3333C31.6667 38.12 31.8801 38.8934 32.2934 39.56C32.5201 39.96 32.8134 40.2933 33.1334 40.5733C33.9334 41.2933 34.9334 41.6667 36.0001 41.6667C37.5334 41.6667 38.9201 40.88 39.7067 39.5733C40.1201 38.8933 40.3334 38.1333 40.3334 37.3333C40.3334 36.2933 39.9468 35.28 39.2534 34.4667C38.4268 33.5333 37.2401 33 36.0001 33Z" fill="#FF8B85"/>
<path d="M35.2398 39.6533C34.9864 39.6533 34.7331 39.56 34.5331 39.36L33.2131 38.04C32.8264 37.6533 32.8264 37.0133 33.2131 36.6266C33.5998 36.24 34.2398 36.24 34.6264 36.6266L35.2664 37.2667L37.3998 35.2933C37.7998 34.92 38.4398 34.9467 38.8131 35.3467C39.1864 35.7467 39.1598 36.3867 38.7598 36.76L35.9198 39.3867C35.7198 39.56 35.4798 39.6533 35.2398 39.6533Z" fill="#64668E"/>
<path d="M32.4933 42.3333H22.6667C17.8 42.3333 15 39.5333 15 34.6667V23.3333C15 18.4667 17.8 15.6667 22.6667 15.6667H33.3333C38.2 15.6667 41 18.4667 41 23.3333V33.8133C41 34.2266 40.7467 34.6 40.3467 34.7467C39.96 34.8933 39.52 34.7867 39.24 34.4667C38.4133 33.5333 37.2267 33 35.9867 33C33.6 33 31.6533 34.9467 31.6533 37.3333C31.6533 38.12 31.8667 38.8933 32.28 39.56C32.5067 39.96 32.8 40.2933 33.12 40.5733C33.44 40.84 33.56 41.28 33.4133 41.68C33.2933 42.0667 32.92 42.3333 32.4933 42.3333ZM22.6667 17.6667C18.8533 17.6667 17 19.52 17 23.3333V34.6667C17 38.48 18.8533 40.3333 22.6667 40.3333H30.4267C29.9333 39.4267 29.6667 38.4 29.6667 37.3333C29.6667 33.84 32.5067 31 36 31C37.0533 31 38.0933 31.2667 39 31.76V23.3333C39 19.52 37.1467 17.6667 33.3333 17.6667H22.6667Z" fill="#FF8B85"/>
</svg>
