<svg width="56" height="56" viewBox="0 0 56 56" fill="none" xmlns="http://www.w3.org/2000/svg">
<rect width="56" height="56" rx="28" fill="#FF8B85" fill-opacity="0.32"/>
<path d="M16.0417 37C15.4951 37 15.0417 36.5467 15.0417 36V21.3334C15.0417 15.4534 16.8284 13.6667 22.7084 13.6667H32.0417C37.9217 13.6667 39.7084 15.4534 39.7084 21.3334V34.6667C39.7084 34.88 39.7084 35.08 39.6951 35.2934C39.6551 35.84 39.1617 36.2667 38.6284 36.2267C38.0817 36.1867 37.6551 35.7067 37.6951 35.16C37.7084 35 37.7084 34.8267 37.7084 34.6667V21.3334C37.7084 16.5734 36.8151 15.6667 32.0417 15.6667H22.7084C17.9351 15.6667 17.0417 16.5734 17.0417 21.3334V36C17.0417 36.5467 16.5884 37 16.0417 37Z" fill="#FF8B85"/>
<path d="M34.0417 42.3333H20.7084C17.5884 42.3333 15.0417 39.7867 15.0417 36.6667V35.8C15.0417 33.1467 17.2017 31 19.8417 31H38.7084C39.2551 31 39.7084 31.4533 39.7084 32V36.6667C39.7084 39.7867 37.1617 42.3333 34.0417 42.3333ZM19.8417 33C18.2951 33 17.0417 34.2533 17.0417 35.8V36.6667C17.0417 38.6933 18.6817 40.3333 20.7084 40.3333H34.0417C36.0684 40.3333 37.7084 38.6933 37.7084 36.6667V33H19.8417Z" fill="#FF8B85"/>
<path d="M32.7084 22.3333H22.0417C21.4951 22.3333 21.0417 21.88 21.0417 21.3333C21.0417 20.7866 21.4951 20.3333 22.0417 20.3333H32.7084C33.2551 20.3333 33.7084 20.7866 33.7084 21.3333C33.7084 21.88 33.2551 22.3333 32.7084 22.3333Z" fill="#64668E"/>
<path d="M28.7084 27H22.0417C21.4951 27 21.0417 26.5467 21.0417 26C21.0417 25.4533 21.4951 25 22.0417 25H28.7084C29.2551 25 29.7084 25.4533 29.7084 26C29.7084 26.5467 29.2551 27 28.7084 27Z" fill="#64668E"/>
</svg>
