<svg width="14" height="15" viewBox="0 0 14 15" fill="none" xmlns="http://www.w3.org/2000/svg">
<path d="M4.6665 3.85449C4.42734 3.85449 4.229 3.65616 4.229 3.41699V1.66699C4.229 1.42783 4.42734 1.22949 4.6665 1.22949C4.90567 1.22949 5.104 1.42783 5.104 1.66699V3.41699C5.104 3.65616 4.90567 3.85449 4.6665 3.85449Z" fill="#64668E"/>
<path d="M9.3335 3.85449C9.09433 3.85449 8.896 3.65616 8.896 3.41699V1.66699C8.896 1.42783 9.09433 1.22949 9.3335 1.22949C9.57266 1.22949 9.771 1.42783 9.771 1.66699V3.41699C9.771 3.65616 9.57266 3.85449 9.3335 3.85449Z" fill="#64668E"/>
<path d="M4.95833 8.9582C4.80667 8.9582 4.655 8.89403 4.54417 8.78903C4.43917 8.67819 4.375 8.53237 4.375 8.37487C4.375 8.29903 4.3925 8.2232 4.42167 8.1532C4.45083 8.0832 4.49167 8.01904 4.54417 7.9607C4.76 7.74487 5.15083 7.74487 5.3725 7.9607C5.4775 8.07154 5.54167 8.2232 5.54167 8.37487C5.54167 8.40987 5.53584 8.45071 5.53 8.49154C5.52417 8.52654 5.5125 8.56153 5.495 8.59653C5.48333 8.63153 5.46583 8.66653 5.4425 8.70153C5.41917 8.7307 5.39583 8.75986 5.3725 8.78903C5.26167 8.89403 5.11 8.9582 4.95833 8.9582Z" fill="#64668E"/>
<path d="M6.99984 8.95835C6.924 8.95835 6.84817 8.94086 6.77817 8.91169C6.70234 8.88253 6.644 8.84168 6.58567 8.78918C6.48067 8.67835 6.4165 8.53252 6.4165 8.37502C6.4165 8.29919 6.434 8.22335 6.46317 8.15335C6.49234 8.08335 6.53317 8.01919 6.58567 7.96086C6.644 7.90836 6.70234 7.86751 6.77817 7.83834C6.99401 7.75084 7.25067 7.79752 7.414 7.96086C7.519 8.07169 7.58317 8.22335 7.58317 8.37502C7.58317 8.41002 7.57734 8.45086 7.57151 8.49169C7.56567 8.52669 7.554 8.56169 7.5365 8.59669C7.52484 8.63169 7.50734 8.66668 7.48401 8.70168C7.46651 8.73085 7.43734 8.76001 7.414 8.78918C7.30317 8.89418 7.1515 8.95835 6.99984 8.95835Z" fill="#64668E"/>
<path d="M4.95833 11C4.8825 11 4.80667 10.9825 4.73667 10.9533C4.66083 10.9241 4.59667 10.8833 4.54417 10.8308C4.49167 10.7783 4.45083 10.7141 4.42167 10.6383C4.3925 10.5683 4.375 10.4925 4.375 10.4166C4.375 10.3408 4.3925 10.265 4.42167 10.195C4.45083 10.1191 4.49167 10.055 4.54417 10.0025C4.59667 9.94996 4.66083 9.90911 4.73667 9.87995C4.87667 9.82161 5.04 9.81578 5.18 9.87995C5.25583 9.90911 5.32 9.94996 5.3725 10.0025C5.425 10.055 5.46583 10.1191 5.495 10.195C5.52417 10.265 5.54167 10.3408 5.54167 10.4166C5.54167 10.4925 5.52417 10.5683 5.495 10.6383C5.46583 10.7141 5.425 10.7783 5.3725 10.8308C5.32 10.8833 5.25583 10.9241 5.18 10.9533C5.11 10.9825 5.03417 11 4.95833 11Z" fill="#64668E"/>
<path d="M11.9582 6.24023H2.0415C1.80234 6.24023 1.604 6.0419 1.604 5.80273C1.604 5.56357 1.80234 5.36523 2.0415 5.36523H11.9582C12.1973 5.36523 12.3957 5.56357 12.3957 5.80273C12.3957 6.0419 12.1973 6.24023 11.9582 6.24023Z" fill="#64668E"/>
<path d="M10.4998 14.3542C9.81734 14.3542 9.16984 14.1092 8.67401 13.66C8.46401 13.485 8.27734 13.2633 8.12567 13.0067C7.869 12.5867 7.729 12.0908 7.729 11.5833C7.729 10.055 8.9715 8.8125 10.4998 8.8125C11.2932 8.8125 12.0515 9.15666 12.5765 9.75166C13.0257 10.265 13.2707 10.9125 13.2707 11.5833C13.2707 12.0908 13.1307 12.5867 12.8682 13.0125C12.3782 13.8408 11.4682 14.3542 10.4998 14.3542ZM10.4998 9.6875C9.45567 9.6875 8.604 10.5392 8.604 11.5833C8.604 11.9275 8.69734 12.2658 8.87817 12.5575C8.97734 12.7325 9.10567 12.8783 9.24567 13.0008C9.59567 13.3158 10.0332 13.4792 10.4998 13.4792C11.1707 13.4792 11.7773 13.135 12.1215 12.5633C12.3023 12.2658 12.3957 11.9333 12.3957 11.5833C12.3957 11.1283 12.2265 10.685 11.9232 10.3292C11.5615 9.92084 11.0423 9.6875 10.4998 9.6875Z" fill="#64668E"/>
<path d="M10.1673 12.5982C10.0565 12.5982 9.94568 12.5574 9.85818 12.4699L9.28068 11.8924C9.11152 11.7232 9.11152 11.4432 9.28068 11.2741C9.44985 11.1049 9.72985 11.1049 9.89902 11.2741L10.179 11.5541L11.1124 10.6907C11.2874 10.5274 11.5673 10.5391 11.7307 10.7141C11.894 10.8891 11.8823 11.1691 11.7073 11.3324L10.4648 12.4816C10.3773 12.5574 10.2723 12.5982 10.1673 12.5982Z" fill="#00ABB6"/>
<path d="M8.96583 13.7712H4.66667C2.5375 13.7712 1.3125 12.5462 1.3125 10.417V5.45866C1.3125 3.32949 2.5375 2.10449 4.66667 2.10449H9.33333C11.4625 2.10449 12.6875 3.32949 12.6875 5.45866V10.0437C12.6875 10.2245 12.5767 10.3878 12.4017 10.452C12.2325 10.5162 12.04 10.4695 11.9175 10.3295C11.5558 9.92116 11.0367 9.68783 10.4942 9.68783C9.45 9.68783 8.59833 10.5395 8.59833 11.5837C8.59833 11.9278 8.69167 12.2662 8.8725 12.5578C8.97167 12.7328 9.1 12.8787 9.24 13.0012C9.38 13.1178 9.4325 13.3103 9.36833 13.4853C9.31583 13.6545 9.1525 13.7712 8.96583 13.7712ZM4.66667 2.97949C2.99833 2.97949 2.1875 3.79033 2.1875 5.45866V10.417C2.1875 12.0853 2.99833 12.8962 4.66667 12.8962H8.06167C7.84583 12.4995 7.72917 12.0503 7.72917 11.5837C7.72917 10.0553 8.97167 8.81283 10.5 8.81283C10.9608 8.81283 11.4158 8.9295 11.8125 9.14533V5.45866C11.8125 3.79033 11.0017 2.97949 9.33333 2.97949H4.66667Z" fill="#64668E"/>
</svg>
