<svg width="18" height="18" viewBox="0 0 18 18" fill="none" xmlns="http://www.w3.org/2000/svg">
<path d="M12.632 16.0082C10.771 16.0082 9.25586 14.493 9.25586 12.632C9.25586 10.771 10.771 9.25586 12.632 9.25586C14.493 9.25586 16.0082 10.771 16.0082 12.632C16.0082 14.493 14.493 16.0082 12.632 16.0082ZM12.632 9.30348C10.7984 9.30348 9.30348 10.7984 9.30348 12.632C9.30348 14.4656 10.7984 15.9606 12.632 15.9606C14.4656 15.9606 15.9606 14.4656 15.9606 12.632C15.9606 10.7984 14.4656 9.30348 12.632 9.30348Z"  stroke="#FF8B85"/>
<path d="M13.8817 12.698H11.3744C11.3719 12.698 11.3659 12.6972 11.3587 12.6899C11.3514 12.6827 11.3506 12.6767 11.3506 12.6742C11.3506 12.6717 11.3514 12.6657 11.3587 12.6585C11.3659 12.6512 11.3719 12.6504 11.3744 12.6504H13.8817C13.8842 12.6504 13.8901 12.6512 13.8974 12.6585C13.9047 12.6657 13.9055 12.6717 13.9055 12.6742C13.9055 12.6811 13.9031 12.6868 13.8984 12.6916C13.8961 12.6939 13.8937 12.6954 13.8916 12.6963C13.8898 12.6971 13.8869 12.698 13.8817 12.698Z"  stroke="white"/>
<path d="M12.6322 13.9826C12.6297 13.9826 12.6237 13.9818 12.6165 13.9746C12.6092 13.9673 12.6084 13.9613 12.6084 13.9588V11.4515C12.6084 11.4491 12.6092 11.4431 12.6165 11.4358C12.6237 11.4286 12.6297 11.4277 12.6322 11.4277C12.6347 11.4277 12.6407 11.4286 12.6479 11.4358C12.6552 11.4431 12.656 11.4491 12.656 11.4515V13.9588C12.656 13.9613 12.6552 13.9673 12.6479 13.9746C12.6407 13.9818 12.6347 13.9826 12.6322 13.9826Z"  stroke="white"/>
<path d="M8.5619 15.1788L8.56187 15.1789C8.66486 15.216 8.81956 15.2401 9.00012 15.2401C9.18485 15.2401 9.31644 15.2147 9.38745 15.1838L9.40772 15.175L9.4287 15.168C9.61101 15.1072 9.81416 15.0248 10.0474 14.9217L9.47952 15.111L9.4478 15.1215L9.41665 15.1319C9.28284 15.1765 9.12413 15.1905 9.00101 15.1916C8.88671 15.1926 8.71577 15.1837 8.56517 15.128C7.69415 14.8273 6.08487 13.992 4.68423 12.6141C3.27349 11.2262 2.03981 9.25114 2.03981 6.6887C2.03981 4.5505 3.76954 2.80836 5.89917 2.80836C7.1021 2.80836 8.25453 3.38342 8.97792 4.35208C8.98236 4.3536 8.99002 4.35538 9.00012 4.35538C9.01023 4.35538 9.01789 4.3536 9.02232 4.35208C9.74573 3.38342 10.8981 2.80836 12.1011 2.80836C14.2307 2.80836 15.9604 4.5505 15.9604 6.6887C15.9604 7.71923 15.7585 8.72119 15.3554 9.6767L15.1128 10.2518L14.6045 9.88951C14.0309 9.48067 13.3498 9.25602 12.6319 9.25602C10.7709 9.25602 9.2557 10.7712 9.2557 12.6322C9.2557 13.2495 9.43123 13.8519 9.74928 14.3779L10.0716 14.911C10.0923 14.9018 10.1132 14.8924 10.1344 14.8829C10.1366 14.8815 10.1408 14.8785 10.1451 14.873C10.1505 14.8663 10.1524 14.8606 10.1528 14.8587C10.1537 14.8544 10.1534 14.8516 10.1529 14.8499L8.5619 15.1788ZM8.5619 15.1788L8.55339 15.1759C7.72791 14.8954 6.06919 14.0424 4.62408 12.6082C3.18579 11.1808 1.99219 9.21288 1.99219 6.6887C1.99219 4.51833 3.7469 2.76074 5.89917 2.76074C6.93208 2.76074 7.9226 3.17543 8.64657 3.89939L9.00012 4.25295L9.35368 3.89939C10.0773 3.17573 11.0747 2.76074 12.1011 2.76074C14.2534 2.76074 16.0081 4.51833 16.0081 6.6887C16.0081 7.96741 15.7005 9.19303 15.0887 10.3442L15.0873 10.3469C15.0868 10.348 15.0849 10.3506 15.0817 10.3528C15.0794 10.3544 15.0779 10.3549 15.0773 10.3551L8.5619 15.1788ZM9.29632 12.6252C9.29632 13.4416 9.60133 14.2299 10.1494 14.8436L15.0623 10.3553C15.0608 10.3551 15.0597 10.3549 15.0589 10.3548C15.0581 10.3546 15.0576 10.3544 15.0574 10.3543C15.0571 10.3542 15.0566 10.354 15.0557 10.3534C15.0548 10.3528 15.0524 10.3511 15.0487 10.3473L15.0475 10.346C14.4109 9.67676 13.5477 9.29664 12.6249 9.29664C10.7913 9.29664 9.29632 10.7916 9.29632 12.6252Z"  stroke="white"/>
</svg>
