<svg width="14" height="14" viewBox="0 0 14 14" fill="none" xmlns="http://www.w3.org/2000/svg">
<path d="M7.61233 9.47881H6.51568C5.73985 9.47881 5.104 8.82548 5.104 8.02048C5.104 7.78131 5.30234 7.58298 5.5415 7.58298C5.78067 7.58298 5.979 7.78131 5.979 8.02048C5.979 8.34131 6.21818 8.60381 6.51568 8.60381H7.61233C7.83983 8.60381 8.02067 8.39965 8.02067 8.14881C8.02067 7.83381 7.93318 7.78714 7.73484 7.71714L5.979 7.10464C5.60567 6.97631 5.104 6.70215 5.104 5.84465C5.104 5.11548 5.68151 4.51465 6.38734 4.51465H7.484C8.25983 4.51465 8.89567 5.16798 8.89567 5.97298C8.89567 6.21215 8.69734 6.41048 8.45817 6.41048C8.219 6.41048 8.02067 6.21215 8.02067 5.97298C8.02067 5.65215 7.7815 5.38965 7.484 5.38965H6.38734C6.15984 5.38965 5.979 5.59381 5.979 5.84465C5.979 6.15965 6.0665 6.20631 6.26483 6.27631L8.02067 6.88881C8.394 7.01714 8.89567 7.29131 8.89567 8.14881C8.89567 8.88381 8.31816 9.47881 7.61233 9.47881Z" fill="#64668E"/>
<path d="M7 10.0625C6.76083 10.0625 6.5625 9.86417 6.5625 9.625V4.375C6.5625 4.13583 6.76083 3.9375 7 3.9375C7.23917 3.9375 7.4375 4.13583 7.4375 4.375V9.625C7.4375 9.86417 7.23917 10.0625 7 10.0625Z" fill="#64668E"/>
<path d="M6.99984 13.2712C3.54067 13.2712 0.729004 10.4595 0.729004 7.00033C0.729004 3.54116 3.54067 0.729492 6.99984 0.729492C7.239 0.729492 7.43734 0.927826 7.43734 1.16699C7.43734 1.40616 7.239 1.60449 6.99984 1.60449C4.02484 1.60449 1.604 4.02533 1.604 7.00033C1.604 9.97533 4.02484 12.3962 6.99984 12.3962C9.97484 12.3962 12.3957 9.97533 12.3957 7.00033C12.3957 6.76116 12.594 6.56283 12.8332 6.56283C13.0723 6.56283 13.2707 6.76116 13.2707 7.00033C13.2707 10.4595 10.459 13.2712 6.99984 13.2712Z" fill="#64668E"/>
<path d="M12.2498 4.52083H9.9165C9.67734 4.52083 9.479 4.3225 9.479 4.08333V1.75C9.479 1.51083 9.67734 1.3125 9.9165 1.3125C10.1557 1.3125 10.354 1.51083 10.354 1.75V3.64583H12.2498C12.489 3.64583 12.6873 3.84417 12.6873 4.08333C12.6873 4.3225 12.489 4.52083 12.2498 4.52083Z" fill="#FF8B85"/>
<path d="M9.91651 4.52068C9.80568 4.52068 9.69484 4.47984 9.60734 4.39234C9.43818 4.22318 9.43818 3.94318 9.60734 3.77401L12.524 0.857344C12.6932 0.688177 12.9732 0.688177 13.1423 0.857344C13.3115 1.02651 13.3115 1.30651 13.1423 1.47568L10.2257 4.39234C10.1382 4.47984 10.0273 4.52068 9.91651 4.52068Z" fill="#FF8B85"/>
</svg>
