<svg width="21" height="20" viewBox="0 0 21 20" fill="none" xmlns="http://www.w3.org/2000/svg">
<path d="M18.2085 15.3914L16.8335 15.7164C16.5252 15.7914 16.2835 16.0248 16.2169 16.3331L15.9252 17.5581C15.7669 18.2248 14.9169 18.4331 14.4752 17.9081L11.9835 15.0414C11.7835 14.8081 11.8919 14.4414 12.1919 14.3664C13.6669 14.0081 14.9919 13.1831 15.9669 12.0081C16.1252 11.8164 16.4085 11.7914 16.5835 11.9664L18.4335 13.8164C19.0669 14.4498 18.8419 15.2414 18.2085 15.3914Z" fill="#FF8B85"/>
<path d="M2.75014 15.3914L4.12514 15.7164C4.43347 15.7914 4.67514 16.0248 4.7418 16.3331L5.03347 17.5581C5.1918 18.2248 6.0418 18.4331 6.48347 17.9081L8.97514 15.0414C9.17514 14.8081 9.0668 14.4414 8.7668 14.3664C7.2918 14.0081 5.9668 13.1831 4.9918 12.0081C4.83347 11.8164 4.55014 11.7914 4.37514 11.9664L2.52514 13.8164C1.8918 14.4498 2.1168 15.2414 2.75014 15.3914Z" fill="#FF8B85"/>
<path d="M10.4998 1.66699C7.27484 1.66699 4.6665 4.27533 4.6665 7.50033C4.6665 8.70866 5.02484 9.81699 5.6415 10.742C6.5415 12.0753 7.9665 13.017 9.62484 13.2587C9.90817 13.3087 10.1998 13.3337 10.4998 13.3337C10.7998 13.3337 11.0915 13.3087 11.3748 13.2587C13.0332 13.017 14.4582 12.0753 15.3582 10.742C15.9748 9.81699 16.3332 8.70866 16.3332 7.50033C16.3332 4.27533 13.7248 1.66699 10.4998 1.66699ZM13.0498 7.31699L12.3582 8.00866C12.2415 8.12533 12.1748 8.35033 12.2165 8.51699L12.4165 9.37533C12.5748 10.0503 12.2165 10.317 11.6165 9.95866L10.7832 9.46699C10.6332 9.37533 10.3832 9.37533 10.2332 9.46699L9.39984 9.95866C8.79984 10.3087 8.4415 10.0503 8.59984 9.37533L8.79984 8.51699C8.83317 8.35866 8.77484 8.12533 8.65817 8.00866L7.94984 7.31699C7.5415 6.90866 7.67484 6.50033 8.2415 6.40866L9.13317 6.25866C9.28317 6.23366 9.45817 6.10033 9.52484 5.96699L10.0165 4.98366C10.2832 4.45033 10.7165 4.45033 10.9832 4.98366L11.4748 5.96699C11.5415 6.10033 11.7165 6.23366 11.8748 6.25866L12.7665 6.40866C13.3248 6.50033 13.4582 6.90866 13.0498 7.31699Z" fill="#FF8B85"/>
</svg>
