<svg width="141" height="33" viewBox="0 0 141 33" fill="none" xmlns="http://www.w3.org/2000/svg">
<path d="M16.32 32.44C14.0907 32.44 12.008 32.0293 10.072 31.208C8.136 30.3867 6.43467 29.2573 4.968 27.82C3.50133 26.3533 2.34267 24.6667 1.492 22.76C0.670667 20.8533 0.26 18.8 0.26 16.6C0.26 14.4 0.670667 12.3467 1.492 10.44C2.34267 8.53333 3.50133 6.86133 4.968 5.424C6.43467 3.95733 8.136 2.81333 10.072 1.992C12.008 1.17066 14.0907 0.759998 16.32 0.759998C17.6987 0.759998 19.0333 0.906665 20.324 1.2C21.6147 1.49333 22.8027 1.93333 23.888 2.52C24.328 2.75466 24.6507 3.07733 24.856 3.488C25.0907 3.86933 25.208 4.26533 25.208 4.676C25.208 5.38 24.9733 6.01067 24.504 6.568C24.0347 7.12533 23.4333 7.404 22.7 7.404C22.4653 7.404 22.216 7.37467 21.952 7.316C21.7173 7.25733 21.4827 7.16933 21.248 7.052C20.5147 6.72933 19.7373 6.48 18.916 6.304C18.0947 6.128 17.2293 6.04 16.32 6.04C14.4133 6.04 12.668 6.524 11.084 7.492C9.52933 8.43067 8.28267 9.70667 7.344 11.32C6.43467 12.904 5.98 14.664 5.98 16.6C5.98 18.5067 6.43467 20.2667 7.344 21.88C8.28267 23.4933 9.52933 24.784 11.084 25.752C12.668 26.6907 14.4133 27.16 16.32 27.16C17.2 27.16 18.168 27.072 19.224 26.896C20.28 26.72 21.1453 26.4853 21.82 26.192L21.424 27.512V19.988L22.172 20.648H17.288C16.5253 20.648 15.88 20.3987 15.352 19.9C14.8533 19.4013 14.604 18.7707 14.604 18.008C14.604 17.2453 14.8533 16.6147 15.352 16.116C15.88 15.6173 16.5253 15.368 17.288 15.368H24.504C25.2667 15.368 25.8973 15.632 26.396 16.16C26.8947 16.6587 27.144 17.2893 27.144 18.052V27.38C27.144 27.9667 26.9973 28.4507 26.704 28.832C26.44 29.2133 26.132 29.5213 25.78 29.756C24.4307 30.5773 22.9493 31.2373 21.336 31.736C19.752 32.2053 18.08 32.44 16.32 32.44ZM54.3047 1.156C55.0674 1.156 55.6834 1.42 56.1527 1.948C56.6221 2.44667 56.8567 3.07733 56.8567 3.84V19.768C56.8567 22.2027 56.3287 24.3587 55.2727 26.236C54.2461 28.1133 52.8234 29.58 51.0047 30.636C49.1861 31.692 47.0741 32.22 44.6687 32.22C42.2634 32.22 40.1367 31.692 38.2887 30.636C36.4701 29.58 35.0327 28.1133 33.9767 26.236C32.9501 24.3587 32.4367 22.2027 32.4367 19.768V3.84C32.4367 3.07733 32.7007 2.44667 33.2287 1.948C33.7567 1.42 34.4314 1.156 35.2527 1.156C35.9274 1.156 36.5287 1.42 37.0567 1.948C37.6141 2.44667 37.8927 3.07733 37.8927 3.84V19.768C37.8927 21.2347 38.2007 22.5107 38.8167 23.596C39.4621 24.652 40.2981 25.4733 41.3247 26.06C42.3807 26.6467 43.4954 26.94 44.6687 26.94C45.9301 26.94 47.1034 26.6467 48.1887 26.06C49.2741 25.4733 50.1541 24.652 50.8287 23.596C51.5034 22.5107 51.8407 21.2347 51.8407 19.768V3.84C51.8407 3.07733 52.0607 2.44667 52.5007 1.948C52.9407 1.42 53.5421 1.156 54.3047 1.156ZM74.3385 8.108L64.8345 30.46C64.6291 31.0173 64.3065 31.4573 63.8665 31.78C63.4558 32.0733 63.0011 32.22 62.5025 32.22C61.7105 32.22 61.1238 32 60.7425 31.56C60.3611 31.12 60.1705 30.5773 60.1705 29.932C60.1705 29.668 60.2145 29.3893 60.3025 29.096L71.2585 2.784C71.4931 2.19733 71.8451 1.74267 72.3145 1.42C72.8131 1.09733 73.3411 0.965332 73.8985 1.024C74.4265 1.024 74.9105 1.18533 75.3505 1.508C75.8198 1.80133 76.1571 2.22667 76.3625 2.784L87.1865 28.568C87.3331 28.9493 87.4065 29.3013 87.4065 29.624C87.4065 30.416 87.1425 31.0467 86.6145 31.516C86.1158 31.9853 85.5585 32.22 84.9425 32.22C84.4145 32.22 83.9305 32.0587 83.4905 31.736C83.0798 31.4133 82.7571 30.9733 82.5225 30.416L73.0625 8.372L74.3385 8.108ZM66.1985 25.092L68.6185 20.032H80.4985L81.3345 25.092H66.1985ZM103.848 1.2C105.373 1.2 106.796 1.64 108.116 2.52C109.465 3.4 110.551 4.588 111.372 6.084C112.193 7.58 112.604 9.252 112.604 11.1C112.604 12.9187 112.193 14.576 111.372 16.072C110.551 17.568 109.465 18.7707 108.116 19.68C106.796 20.56 105.373 21 103.848 21H95.752L96.192 20.208V29.316C96.192 30.0787 95.9574 30.724 95.488 31.252C95.0187 31.7507 94.4027 32 93.64 32C92.9067 32 92.3054 31.7507 91.836 31.252C91.3667 30.724 91.132 30.0787 91.132 29.316V3.884C91.132 3.12133 91.3814 2.49067 91.88 1.992C92.408 1.464 93.0534 1.2 93.816 1.2H103.848ZM103.848 15.984C104.405 15.984 104.948 15.7493 105.476 15.28C106.004 14.8107 106.444 14.2093 106.796 13.476C107.148 12.7133 107.324 11.9213 107.324 11.1C107.324 10.2493 107.148 9.45733 106.796 8.724C106.444 7.99067 106.004 7.404 105.476 6.964C104.948 6.49467 104.405 6.26 103.848 6.26H95.664L96.192 5.468V16.688L95.708 15.984H103.848ZM127.19 8.108L117.686 30.46C117.481 31.0173 117.158 31.4573 116.718 31.78C116.307 32.0733 115.853 32.22 115.354 32.22C114.562 32.22 113.975 32 113.594 31.56C113.213 31.12 113.022 30.5773 113.022 29.932C113.022 29.668 113.066 29.3893 113.154 29.096L124.11 2.784C124.345 2.19733 124.697 1.74267 125.166 1.42C125.665 1.09733 126.193 0.965332 126.75 1.024C127.278 1.024 127.762 1.18533 128.202 1.508C128.671 1.80133 129.009 2.22667 129.214 2.784L140.038 28.568C140.185 28.9493 140.258 29.3013 140.258 29.624C140.258 30.416 139.994 31.0467 139.466 31.516C138.967 31.9853 138.41 32.22 137.794 32.22C137.266 32.22 136.782 32.0587 136.342 31.736C135.931 31.4133 135.609 30.9733 135.374 30.416L125.914 8.372L127.19 8.108ZM119.05 25.092L121.47 20.032H133.35L134.186 25.092H119.05Z" fill="#383A63"/>
</svg>
