<svg width="152" height="78" viewBox="0 0 152 78" fill="none" xmlns="http://www.w3.org/2000/svg">
<path d="M131.496 35.948L131.936 29.832C134.371 29.832 136.321 29.8173 137.788 29.788C139.284 29.7587 140.443 29.7 141.264 29.612C142.115 29.4947 142.745 29.3627 143.156 29.216C143.567 29.04 143.919 28.8493 144.212 28.644C144.564 28.38 144.857 28.028 145.092 27.588C145.356 27.1187 145.561 26.5027 145.708 25.74C145.855 24.9773 145.928 24.024 145.928 22.88C145.928 21.4427 145.796 20.24 145.532 19.272C145.297 18.2747 144.945 17.5267 144.476 17.028C144.036 16.5293 143.493 16.28 142.848 16.28C142.379 16.28 141.939 16.4413 141.528 16.764C141.117 17.0573 140.78 17.468 140.516 17.996C140.252 18.524 140.12 19.1253 140.12 19.8C140.12 20.1813 140.223 20.5187 140.428 20.812C140.633 21.1053 140.956 21.3253 141.396 21.472C141.836 21.6187 142.393 21.692 143.068 21.692C143.713 21.692 144.388 21.6187 145.092 21.472C145.825 21.296 146.5 21.0613 147.116 20.768L147.292 26.004C146.823 26.3267 146.28 26.62 145.664 26.884C145.048 27.148 144.388 27.3533 143.684 27.5C143.009 27.6173 142.32 27.676 141.616 27.676C140.061 27.676 138.712 27.4707 137.568 27.06C136.453 26.62 135.588 25.916 134.972 24.948C134.356 23.98 134.048 22.66 134.048 20.988C134.048 19.6973 134.268 18.4213 134.708 17.16C135.148 15.8693 135.779 14.7107 136.6 13.684C137.421 12.628 138.389 11.792 139.504 11.176C140.619 10.5307 141.851 10.208 143.2 10.208C145.195 10.208 146.837 10.7947 148.128 11.968C149.448 13.112 150.416 14.6667 151.032 16.632C151.677 18.568 152 20.724 152 23.1C152 25.1827 151.692 27.0013 151.076 28.556C150.46 30.0813 149.727 31.284 148.876 32.164C148.172 32.8973 147.365 33.5133 146.456 34.012C145.547 34.5107 144.432 34.9067 143.112 35.2C141.821 35.464 140.223 35.6547 138.316 35.772C136.439 35.8893 134.165 35.948 131.496 35.948ZM146.94 6.204C146.089 6.204 145.356 5.91067 144.74 5.324C144.153 4.708 143.86 3.98933 143.86 3.168C143.86 2.31733 144.153 1.584 144.74 0.968C145.356 0.352 146.089 0.0439997 146.94 0.0439997C147.761 0.0439997 148.465 0.352 149.052 0.968C149.639 1.584 149.932 2.31733 149.932 3.168C149.932 3.98933 149.639 4.708 149.052 5.324C148.465 5.91067 147.761 6.204 146.94 6.204ZM139.328 6.16C138.477 6.16 137.744 5.86667 137.128 5.28C136.541 4.664 136.248 3.94533 136.248 3.124C136.248 2.27333 136.541 1.54 137.128 0.924001C137.744 0.308 138.477 0 139.328 0C140.149 0 140.853 0.308 141.44 0.924001C142.027 1.54 142.32 2.27333 142.32 3.124C142.32 3.94533 142.027 4.664 141.44 5.28C140.853 5.86667 140.149 6.16 139.328 6.16Z" fill="#64668E"/>
<path d="M110.93 45.848L109.654 39.688C111.737 39.424 113.556 39.1013 115.11 38.72C116.665 38.368 117.97 37.8693 119.026 37.224C120.082 36.5786 120.874 35.6986 121.402 34.584C121.93 33.44 122.194 31.9733 122.194 30.184C122.194 28.4533 121.93 27.0746 121.402 26.048C120.874 25.0213 120.17 24.508 119.29 24.508C118.674 24.508 118.161 24.728 117.75 25.168C117.34 25.5786 117.032 26.0773 116.826 26.664C116.65 27.2213 116.562 27.72 116.562 28.16C116.562 28.424 116.636 28.7026 116.782 28.996C116.929 29.2893 117.252 29.5386 117.75 29.744C118.249 29.9493 119.026 30.0666 120.082 30.096C121.168 30.1253 122.634 30.0226 124.482 29.788H131.874C132.989 29.788 133.781 30.0813 134.25 30.668C134.749 31.2253 134.998 31.9293 134.998 32.78C134.998 33.6893 134.69 34.452 134.074 35.068C133.458 35.6546 132.578 35.948 131.434 35.948H119.334C117.486 35.948 115.902 35.728 114.582 35.288C113.262 34.848 112.25 34.144 111.546 33.176C110.842 32.1786 110.49 30.8586 110.49 29.216C110.49 27.896 110.71 26.576 111.15 25.256C111.62 23.936 112.265 22.7333 113.086 21.648C113.908 20.5333 114.861 19.6533 115.946 19.008C117.061 18.3333 118.264 17.996 119.554 17.996C121.314 17.996 122.854 18.5386 124.174 19.624C125.494 20.7093 126.521 22.1466 127.254 23.936C128.017 25.7253 128.398 27.676 128.398 29.788C128.398 33.1026 127.694 35.9186 126.286 38.236C124.878 40.5533 122.869 42.3426 120.258 43.604C117.648 44.8946 114.538 45.6426 110.93 45.848Z" fill="#64668E"/>
<path d="M99.9103 35.728L98.9863 3.52002H105.146L106.07 35.728H99.9103Z" fill="#64668E"/>
<path d="M82.4258 35.948L82.8658 29.788C84.1565 29.788 85.1684 29.7 85.9018 29.524C86.6644 29.348 87.2071 29.0253 87.5298 28.5559C87.8525 28.0573 88.0138 27.3533 88.0138 26.4439C88.0138 25.6226 87.8964 24.6399 87.6618 23.4959C87.4564 22.3519 87.1778 21.1639 86.8258 19.9319C86.4738 18.6999 86.1218 17.5706 85.7698 16.5439L91.8418 14.8719C92.1938 15.8693 92.5458 17.0279 92.8978 18.3479C93.2498 19.6679 93.5431 21.0319 93.7778 22.4399C94.0418 23.8186 94.1738 25.1533 94.1738 26.4439C94.1738 28.0573 93.9685 29.4213 93.5578 30.5359C93.1471 31.6213 92.5751 32.5306 91.8418 33.2639C91.1378 33.9679 90.2871 34.5253 89.2898 34.9359C88.3218 35.3173 87.2511 35.5813 86.0778 35.7279C84.9044 35.8746 83.6871 35.948 82.4258 35.948ZM87.8378 46.0679C86.9871 46.0679 86.2538 45.7746 85.6378 45.1879C85.0511 44.6013 84.7578 43.8826 84.7578 43.0319C84.7578 42.1813 85.0511 41.4333 85.6378 40.788C86.2538 40.172 86.9871 39.864 87.8378 39.864C88.6885 39.864 89.4071 40.172 89.9938 40.788C90.6098 41.4333 90.9178 42.1813 90.9178 43.0319C90.9178 43.8826 90.6098 44.6013 89.9938 45.1879C89.4071 45.7746 88.6885 46.0679 87.8378 46.0679Z" fill="#64668E"/>
<path d="M69.707 35.948L70.147 29.788H82.819C83.9337 29.788 84.7257 30.0813 85.195 30.668C85.6937 31.2253 85.943 31.9293 85.943 32.78C85.943 33.6893 85.635 34.452 85.019 35.068C84.403 35.6546 83.523 35.948 82.379 35.948H69.707Z" fill="#64668E"/>
<path d="M56.9883 35.948L57.4283 29.788H70.1003C71.2149 29.788 72.0069 30.0813 72.4763 30.668C72.9749 31.2253 73.2243 31.9293 73.2243 32.78C73.2243 33.6893 72.9163 34.452 72.3003 35.068C71.6843 35.6546 70.8043 35.948 69.6603 35.948H56.9883Z" fill="#64668E"/>
<path d="M44.2695 35.948L44.7095 29.788H57.3815C58.4962 29.788 59.2882 30.0813 59.7575 30.668C60.2562 31.2253 60.5055 31.9293 60.5055 32.78C60.5055 33.6893 60.1975 34.452 59.5815 35.068C58.9655 35.6546 58.0855 35.948 56.9415 35.948H44.2695Z" fill="#64668E"/>
<path d="M31.5508 35.948L31.9908 29.788H44.6628C45.7774 29.788 46.5695 30.0813 47.0388 30.668C47.5375 31.2253 47.7868 31.9293 47.7868 32.78C47.7868 33.6893 47.4788 34.452 46.8628 35.068C46.2468 35.6546 45.3668 35.948 44.2228 35.948H31.5508Z" fill="#64668E"/>
<path d="M18.832 35.948L19.272 29.788H31.944C33.0587 29.788 33.8507 30.0813 34.32 30.668C34.8187 31.2253 35.068 31.9293 35.068 32.78C35.068 33.6893 34.76 34.452 34.144 35.068C33.528 35.6546 32.648 35.948 31.504 35.948H18.832Z" fill="#64668E"/>
<path d="M18.7719 35.948C16.0439 35.948 13.9319 35.6694 12.4359 35.112C10.9693 34.5547 9.94259 33.6894 9.35592 32.516C8.76926 31.3134 8.43192 29.8027 8.34392 27.984L7.41992 3.52002H13.5799L14.5039 25.036C14.5626 26.3854 14.7093 27.3974 14.9439 28.072C15.1786 28.7467 15.6186 29.2014 16.2639 29.436C16.9386 29.6707 17.9213 29.788 19.2119 29.788C20.3266 29.788 21.1186 30.0814 21.5879 30.668C22.0866 31.2254 22.3359 31.9294 22.3359 32.78C22.3359 33.6894 22.0279 34.452 21.4119 35.068C20.7959 35.6547 19.9159 35.948 18.7719 35.948Z" fill="#64668E"/>
<path d="M146.287 58.076C148.239 58.076 149.679 58.556 150.607 59.5161C151.535 60.4761 151.999 62.0761 151.999 64.3161V70.3161H138.031V68.6601H141.991C141.767 67.2841 141.655 65.8841 141.655 64.4601C141.655 63.3881 141.719 62.3321 141.847 61.2921C141.975 60.2361 142.119 59.3801 142.279 58.7241C142.663 58.5641 143.223 58.42 143.959 58.292C144.695 58.148 145.471 58.076 146.287 58.076ZM143.503 64.4601C143.503 65.2441 143.535 66.0281 143.599 66.8121C143.679 67.5801 143.759 68.1961 143.839 68.6601H150.151V64.2921C150.151 62.6601 149.807 61.4921 149.119 60.7881C148.431 60.0841 147.383 59.7321 145.975 59.7321C145.191 59.7321 144.495 59.8121 143.887 59.9721C143.631 61.3641 143.503 62.8601 143.503 64.4601Z" fill="#FF8B85"/>
<path d="M138.036 68.6601V70.3161H123.828V68.6601H133.452V62.1561C133.452 61.3561 133.244 60.7561 132.828 60.3561C132.412 59.9401 131.788 59.7321 130.956 59.7321C130.236 59.7321 128.812 59.8601 126.684 60.1161L126.012 60.1881L125.94 58.8201C128.356 58.3241 130.164 58.076 131.364 58.076C133.988 58.076 135.3 59.4441 135.3 62.1801V68.6601H138.036ZM130.02 72.2361H131.844V74.2521H130.02V72.2361Z" fill="#FF8B85"/>
<path d="M123.828 68.66V70.316H114.828V68.66H118.404V58.316H120.252V68.66H123.828ZM116.916 54.068H118.74V56.084H116.916V54.068ZM119.916 54.068H121.74V56.084H119.916V54.068Z" fill="#FF8B85"/>
<path d="M114.82 68.6601V70.3161H114.052C113.748 70.3161 113.42 70.2361 113.068 70.0761C112.732 69.9001 112.42 69.6681 112.132 69.3801V70.3161H98.1641V68.6601H102.124C101.9 67.2841 101.788 65.8841 101.788 64.4601C101.788 63.3881 101.852 62.3321 101.98 61.2921C102.108 60.2361 102.252 59.3801 102.412 58.7241C102.796 58.5641 103.356 58.42 104.092 58.292C104.828 58.148 105.604 58.076 106.42 58.076C108.372 58.076 109.812 58.556 110.74 59.5161C111.668 60.4761 112.132 62.0761 112.132 64.3161V67.7481C112.644 68.3561 113.284 68.6601 114.052 68.6601H114.82ZM103.636 64.4601C103.636 65.2441 103.668 66.0281 103.732 66.8121C103.812 67.5801 103.892 68.1961 103.972 68.6601H110.284V64.2921C110.284 62.6601 109.94 61.4921 109.252 60.7881C108.564 60.0841 107.516 59.7321 106.108 59.7321C105.324 59.7321 104.628 59.8121 104.02 59.9721C103.764 61.3641 103.636 62.8601 103.636 64.4601Z" fill="#FF8B85"/>
<path d="M90.6087 69.3561C89.5847 69.3881 88.8088 69.6601 88.2808 70.1721C87.7688 70.6841 87.5127 71.4841 87.5127 72.5721C87.5127 75.0361 88.8407 76.2681 91.4967 76.2681C92.6648 76.2681 94.1528 76.0921 95.9608 75.7401L96.1768 77.2041L95.3848 77.3721C93.7367 77.7241 92.3207 77.9001 91.1367 77.9001C89.3287 77.9001 87.9528 77.4281 87.0088 76.4841C86.0808 75.5561 85.6168 74.2121 85.6168 72.4521C85.6168 71.1241 85.8888 70.0921 86.4328 69.3561C86.9768 68.6201 87.7928 68.1241 88.8808 67.8681C87.7288 66.9241 86.8088 65.8441 86.1208 64.6281C85.4328 63.3961 85.0727 62.3161 85.0407 61.3881L84.9688 59.6841C87.0168 58.6121 88.9928 58.076 90.8968 58.076C92.7848 58.076 94.7767 58.6121 96.8727 59.6841L96.8008 61.3881C96.7688 62.0121 96.5928 62.7241 96.2728 63.5241C95.9528 64.3081 95.4808 65.1081 94.8568 65.9241C94.2488 66.7401 93.5208 67.4601 92.6728 68.0841C93.6648 68.4681 94.6487 68.6601 95.6247 68.6601H98.1688V70.3161H95.6247C94.8407 70.3161 94.0328 70.2201 93.2008 70.0281C92.3688 69.8361 91.6088 69.5641 90.9208 69.2121L90.6087 69.3561ZM86.8648 60.6201C86.8648 61.9161 87.2327 63.1401 87.9688 64.2921C88.7208 65.4281 89.7048 66.3961 90.9208 67.1961C92.1528 66.3961 93.1367 65.4281 93.8727 64.2921C94.6248 63.1401 95.0008 61.9161 95.0008 60.6201C93.4168 60.0281 92.0568 59.7321 90.9208 59.7321C89.8168 59.7321 88.4648 60.0281 86.8648 60.6201Z" fill="#FF8B85"/>
</svg>
