<svg width="133" height="33" viewBox="0 0 133 33" fill="none" xmlns="http://www.w3.org/2000/svg">
<path d="M11.128 0.0199993C12.36 0.0199993 13.4893 0.210666 14.516 0.592C15.5427 0.973332 16.4227 1.45733 17.156 2.044C17.9187 2.63067 18.5053 3.232 18.916 3.848C19.356 4.43467 19.576 4.93333 19.576 5.344L18.432 5.916V2.704C18.432 1.94133 18.6813 1.31067 19.18 0.812C19.6787 0.283999 20.3093 0.0199993 21.072 0.0199993C21.8347 0.0199993 22.4653 0.269333 22.964 0.768C23.4627 1.26667 23.712 1.912 23.712 2.704V22.284C23.712 24.836 23.1547 26.8747 22.04 28.4C20.9547 29.9547 19.5173 31.0693 17.728 31.744C15.9387 32.448 14.0173 32.8 11.964 32.8C11.3773 32.8 10.6147 32.7267 9.676 32.58C8.73733 32.4333 7.84267 32.2573 6.992 32.052C6.14133 31.8467 5.496 31.656 5.056 31.48C4.176 31.0987 3.56 30.6147 3.208 30.028C2.88533 29.4707 2.82667 28.8693 3.032 28.224C3.296 27.3733 3.72133 26.7867 4.308 26.464C4.89467 26.1707 5.51067 26.1413 6.156 26.376C6.44933 26.464 6.93333 26.64 7.608 26.904C8.28267 27.168 9.016 27.4027 9.808 27.608C10.6293 27.8427 11.348 27.96 11.964 27.96C14.164 27.96 15.792 27.52 16.848 26.64C17.904 25.76 18.432 24.5427 18.432 22.988V19.16L18.96 19.556C18.96 19.9373 18.7547 20.4067 18.344 20.964C17.9627 21.492 17.42 22.02 16.716 22.548C16.0413 23.076 15.2347 23.5307 14.296 23.912C13.3573 24.264 12.36 24.44 11.304 24.44C9.22133 24.44 7.344 23.9267 5.672 22.9C4 21.844 2.68 20.4067 1.712 18.588C0.744 16.74 0.26 14.628 0.26 12.252C0.26 9.84667 0.744 7.73467 1.712 5.916C2.68 4.068 3.98533 2.63067 5.628 1.604C7.27067 0.547999 9.104 0.0199993 11.128 0.0199993ZM11.964 4.86C10.644 4.86 9.48533 5.18267 8.488 5.828C7.49067 6.47333 6.71333 7.35333 6.156 8.468C5.59867 9.58267 5.32 10.844 5.32 12.252C5.32 13.6307 5.59867 14.8773 6.156 15.992C6.71333 17.1067 7.49067 17.9867 8.488 18.632C9.48533 19.2773 10.644 19.6 11.964 19.6C13.3133 19.6 14.4867 19.2773 15.484 18.632C16.4813 17.9867 17.2587 17.1067 17.816 15.992C18.3733 14.8773 18.652 13.6307 18.652 12.252C18.652 10.844 18.3733 9.58267 17.816 8.468C17.2587 7.35333 16.4813 6.47333 15.484 5.828C14.4867 5.18267 13.3133 4.86 11.964 4.86ZM46.5428 0.459999C47.3055 0.459999 47.9362 0.723999 48.4348 1.252C48.9335 1.75067 49.1828 2.38133 49.1828 3.144V14.32C49.1828 17.4293 48.3175 19.8933 46.5868 21.712C44.8562 23.5307 42.3628 24.44 39.1068 24.44C35.8508 24.44 33.3575 23.5307 31.6268 21.712C29.9255 19.8933 29.0748 17.4293 29.0748 14.32V3.144C29.0748 2.38133 29.3242 1.75067 29.8228 1.252C30.3215 0.723999 30.9522 0.459999 31.7148 0.459999C32.4775 0.459999 33.1082 0.723999 33.6068 1.252C34.1055 1.75067 34.3548 2.38133 34.3548 3.144V14.32C34.3548 16.1093 34.7508 17.444 35.5428 18.324C36.3348 19.1747 37.5228 19.6 39.1068 19.6C40.7202 19.6 41.9228 19.1747 42.7148 18.324C43.5068 17.444 43.9028 16.1093 43.9028 14.32V3.144C43.9028 2.38133 44.1522 1.75067 44.6508 1.252C45.1495 0.723999 45.7802 0.459999 46.5428 0.459999ZM74.1711 0.0199993C74.9337 0.0199993 75.5644 0.269333 76.0631 0.768C76.5617 1.26667 76.8111 1.912 76.8111 2.704V21.316C76.8111 22.0787 76.5617 22.724 76.0631 23.252C75.5644 23.7507 74.9337 24 74.1711 24C73.4084 24 72.7777 23.7507 72.2791 23.252C71.7804 22.724 71.5311 22.0787 71.5311 21.316V19.16L72.4991 19.556C72.4991 19.9373 72.2937 20.4067 71.8831 20.964C71.4724 21.492 70.9151 22.02 70.2111 22.548C69.5071 23.076 68.6711 23.5307 67.7031 23.912C66.7644 24.264 65.7377 24.44 64.6231 24.44C62.5991 24.44 60.7657 23.9267 59.1231 22.9C57.4804 21.844 56.1751 20.4067 55.2071 18.588C54.2684 16.74 53.7991 14.628 53.7991 12.252C53.7991 9.84667 54.2684 7.73467 55.2071 5.916C56.1751 4.068 57.4657 2.63067 59.0791 1.604C60.6924 0.547999 62.4817 0.0199993 64.4471 0.0199993C65.7084 0.0199993 66.8671 0.210666 67.9231 0.592C68.9791 0.973332 69.8884 1.45733 70.6511 2.044C71.4431 2.63067 72.0444 3.232 72.4551 3.848C72.8951 4.43467 73.1151 4.93333 73.1151 5.344L71.5311 5.916V2.704C71.5311 1.94133 71.7804 1.31067 72.2791 0.812C72.7777 0.283999 73.4084 0.0199993 74.1711 0.0199993ZM65.2831 19.6C66.5737 19.6 67.7031 19.2773 68.6711 18.632C69.6391 17.9867 70.3871 17.1067 70.9151 15.992C71.4724 14.8773 71.7511 13.6307 71.7511 12.252C71.7511 10.844 71.4724 9.58267 70.9151 8.468C70.3871 7.35333 69.6391 6.47333 68.6711 5.828C67.7031 5.18267 66.5737 4.86 65.2831 4.86C64.0217 4.86 62.9071 5.18267 61.9391 5.828C60.9711 6.47333 60.2084 7.35333 59.6511 8.468C59.1231 9.58267 58.8591 10.844 58.8591 12.252C58.8591 13.6307 59.1231 14.8773 59.6511 15.992C60.2084 17.1067 60.9711 17.9867 61.9391 18.632C62.9071 19.2773 64.0217 19.6 65.2831 19.6ZM94.716 0.0199993C96.7693 0.0199993 98.6026 0.547999 100.216 1.604C101.859 2.63067 103.149 4.05333 104.088 5.872C105.056 7.69067 105.54 9.80267 105.54 12.208C105.54 14.6133 105.056 16.74 104.088 18.588C103.149 20.4067 101.873 21.844 100.26 22.9C98.676 23.9267 96.8866 24.44 94.892 24.44C93.7186 24.44 92.6186 24.2493 91.592 23.868C90.5653 23.4867 89.656 23.0027 88.864 22.416C88.1013 21.8293 87.5 21.2427 87.06 20.656C86.6493 20.04 86.444 19.5267 86.444 19.116L87.808 18.544V30.116C87.808 30.8787 87.5586 31.5093 87.06 32.008C86.5613 32.536 85.9306 32.8 85.168 32.8C84.4053 32.8 83.7746 32.5507 83.276 32.052C82.7773 31.5533 82.528 30.908 82.528 30.116V3.144C82.528 2.38133 82.7773 1.75067 83.276 1.252C83.7746 0.723999 84.4053 0.459999 85.168 0.459999C85.9306 0.459999 86.5613 0.723999 87.06 1.252C87.5586 1.75067 87.808 2.38133 87.808 3.144V5.3L87.06 4.904C87.06 4.52267 87.2653 4.068 87.676 3.54C88.0866 2.98267 88.644 2.44 89.348 1.912C90.052 1.35467 90.8586 0.899998 91.768 0.547998C92.7066 0.195999 93.6893 0.0199993 94.716 0.0199993ZM94.056 4.86C92.7653 4.86 91.636 5.18267 90.668 5.828C89.7 6.47333 88.9373 7.35333 88.38 8.468C87.852 9.55333 87.588 10.8 87.588 12.208C87.588 13.5867 87.852 14.848 88.38 15.992C88.9373 17.1067 89.7 17.9867 90.668 18.632C91.636 19.2773 92.7653 19.6 94.056 19.6C95.3466 19.6 96.4613 19.2773 97.4 18.632C98.368 17.9867 99.116 17.1067 99.644 15.992C100.201 14.848 100.48 13.5867 100.48 12.208C100.48 10.8 100.201 9.55333 99.644 8.468C99.116 7.35333 98.368 6.47333 97.4 5.828C96.4613 5.18267 95.3466 4.86 94.056 4.86ZM129.429 0.0199993C130.192 0.0199993 130.822 0.269333 131.321 0.768C131.82 1.26667 132.069 1.912 132.069 2.704V21.316C132.069 22.0787 131.82 22.724 131.321 23.252C130.822 23.7507 130.192 24 129.429 24C128.666 24 128.036 23.7507 127.537 23.252C127.038 22.724 126.789 22.0787 126.789 21.316V19.16L127.757 19.556C127.757 19.9373 127.552 20.4067 127.141 20.964C126.73 21.492 126.173 22.02 125.469 22.548C124.765 23.076 123.929 23.5307 122.961 23.912C122.022 24.264 120.996 24.44 119.881 24.44C117.857 24.44 116.024 23.9267 114.381 22.9C112.738 21.844 111.433 20.4067 110.465 18.588C109.526 16.74 109.057 14.628 109.057 12.252C109.057 9.84667 109.526 7.73467 110.465 5.916C111.433 4.068 112.724 2.63067 114.337 1.604C115.95 0.547999 117.74 0.0199993 119.705 0.0199993C120.966 0.0199993 122.125 0.210666 123.181 0.592C124.237 0.973332 125.146 1.45733 125.909 2.044C126.701 2.63067 127.302 3.232 127.713 3.848C128.153 4.43467 128.373 4.93333 128.373 5.344L126.789 5.916V2.704C126.789 1.94133 127.038 1.31067 127.537 0.812C128.036 0.283999 128.666 0.0199993 129.429 0.0199993ZM120.541 19.6C121.832 19.6 122.961 19.2773 123.929 18.632C124.897 17.9867 125.645 17.1067 126.173 15.992C126.73 14.8773 127.009 13.6307 127.009 12.252C127.009 10.844 126.73 9.58267 126.173 8.468C125.645 7.35333 124.897 6.47333 123.929 5.828C122.961 5.18267 121.832 4.86 120.541 4.86C119.28 4.86 118.165 5.18267 117.197 5.828C116.229 6.47333 115.466 7.35333 114.909 8.468C114.381 9.58267 114.117 10.844 114.117 12.252C114.117 13.6307 114.381 14.8773 114.909 15.992C115.466 17.1067 116.229 17.9867 117.197 18.632C118.165 19.2773 119.28 19.6 120.541 19.6Z" fill="#383A63"/>
</svg>
