<svg width="1920" height="910" viewBox="0 0 1920 910" fill="none" xmlns="http://www.w3.org/2000/svg">
<rect width="1920" height="910" fill=""/>
<g style="mix-blend-mode:soft-light" opacity="0.1">
<path d="M0 0H375V170.314L0 910L0 0Z" fill="url(#paint0_linear_2008_6116)"/>
</g>
<g style="mix-blend-mode:soft-light" opacity="0.1">
<path d="M375 0H0V260.535L375 336.86L375 0Z" fill="url(#paint1_linear_2008_6116)"/>
</g>
<g style="mix-blend-mode:screen" opacity="0.5">
<path d="M1758.71 448.379C1760.49 448.379 1761.93 449.82 1761.93 451.6C1761.93 453.374 1760.49 454.814 1758.71 454.814C1756.93 454.814 1755.49 453.374 1755.49 451.6C1755.49 449.82 1756.93 448.379 1758.71 448.379Z" fill="#64668E"/>
<path d="M1758.71 428.803C1760.49 428.803 1761.93 430.244 1761.93 432.024C1761.93 433.797 1760.49 435.238 1758.71 435.238C1756.93 435.238 1755.49 433.797 1755.49 432.024C1755.49 430.244 1756.93 428.803 1758.71 428.803Z" fill="#64668E"/>
<path d="M1758.71 409.225C1760.49 409.225 1761.93 410.666 1761.93 412.446C1761.93 414.219 1760.49 415.66 1758.71 415.66C1756.93 415.66 1755.49 414.219 1755.49 412.446C1755.49 410.666 1756.93 409.225 1758.71 409.225Z" fill="#64668E"/>
<path d="M1758.71 389.648C1760.49 389.648 1761.93 391.089 1761.93 392.87C1761.93 394.643 1760.49 396.084 1758.71 396.084C1756.93 396.084 1755.49 394.643 1755.49 392.87C1755.49 391.089 1756.93 389.648 1758.71 389.648Z" fill="#64668E"/>
<path d="M1776.31 448.379C1778.08 448.379 1779.52 449.82 1779.52 451.6C1779.52 453.374 1778.08 454.814 1776.31 454.814C1774.53 454.814 1773.09 453.374 1773.09 451.6C1773.09 449.82 1774.53 448.379 1776.31 448.379Z" fill="#64668E"/>
<path d="M1776.31 428.803C1778.08 428.803 1779.52 430.244 1779.52 432.024C1779.52 433.797 1778.08 435.238 1776.31 435.238C1774.53 435.238 1773.09 433.797 1773.09 432.024C1773.09 430.244 1774.53 428.803 1776.31 428.803Z" fill="#64668E"/>
<path d="M1776.31 409.225C1778.08 409.225 1779.52 410.666 1779.52 412.446C1779.52 414.219 1778.08 415.66 1776.31 415.66C1774.53 415.66 1773.09 414.219 1773.09 412.446C1773.09 410.666 1774.53 409.225 1776.31 409.225Z" fill="#64668E"/>
<path d="M1776.31 389.648C1778.08 389.648 1779.52 391.089 1779.52 392.87C1779.52 394.643 1778.08 396.084 1776.31 396.084C1774.53 396.084 1773.09 394.643 1773.09 392.87C1773.09 391.089 1774.53 389.648 1776.31 389.648Z" fill="#64668E"/>
<path d="M1793.9 448.379C1795.68 448.379 1797.12 449.82 1797.12 451.6C1797.12 453.374 1795.68 454.814 1793.9 454.814C1792.12 454.814 1790.68 453.374 1790.68 451.6C1790.68 449.82 1792.12 448.379 1793.9 448.379Z" fill="#64668E"/>
<path d="M1793.9 428.803C1795.68 428.803 1797.12 430.244 1797.12 432.024C1797.12 433.797 1795.68 435.238 1793.9 435.238C1792.12 435.238 1790.68 433.797 1790.68 432.024C1790.68 430.244 1792.12 428.803 1793.9 428.803Z" fill="#64668E"/>
<path d="M1793.9 409.225C1795.68 409.225 1797.12 410.666 1797.12 412.446C1797.12 414.219 1795.68 415.66 1793.9 415.66C1792.12 415.66 1790.68 414.219 1790.68 412.446C1790.68 410.666 1792.12 409.225 1793.9 409.225Z" fill="#64668E"/>
<path d="M1793.9 389.648C1795.68 389.648 1797.12 391.089 1797.12 392.87C1797.12 394.643 1795.68 396.084 1793.9 396.084C1792.12 396.084 1790.68 394.643 1790.68 392.87C1790.68 391.089 1792.12 389.648 1793.9 389.648Z" fill="#64668E"/>
<path d="M1811.5 448.379C1813.27 448.379 1814.71 449.82 1814.71 451.6C1814.71 453.374 1813.27 454.814 1811.5 454.814C1809.72 454.814 1808.27 453.374 1808.27 451.6C1808.27 449.82 1809.72 448.379 1811.5 448.379Z" fill="#64668E"/>
<path d="M1811.5 428.803C1813.27 428.803 1814.71 430.244 1814.71 432.024C1814.71 433.797 1813.27 435.238 1811.5 435.238C1809.72 435.238 1808.27 433.797 1808.27 432.024C1808.27 430.244 1809.72 428.803 1811.5 428.803Z" fill="#64668E"/>
<path d="M1811.5 409.225C1813.27 409.225 1814.71 410.666 1814.71 412.446C1814.71 414.219 1813.27 415.66 1811.5 415.66C1809.72 415.66 1808.27 414.219 1808.27 412.446C1808.27 410.666 1809.72 409.225 1811.5 409.225Z" fill="#64668E"/>
<path d="M1811.5 389.648C1813.27 389.648 1814.71 391.089 1814.71 392.87C1814.71 394.643 1813.27 396.084 1811.5 396.084C1809.72 396.084 1808.27 394.643 1808.27 392.87C1808.27 391.089 1809.72 389.648 1811.5 389.648Z" fill="#64668E"/>
<path d="M1829.09 448.379C1830.86 448.379 1832.3 449.82 1832.3 451.6C1832.3 453.374 1830.86 454.814 1829.09 454.814C1827.31 454.814 1825.87 453.374 1825.87 451.6C1825.87 449.82 1827.31 448.379 1829.09 448.379Z" fill="#64668E"/>
<path d="M1829.09 428.803C1830.86 428.803 1832.3 430.244 1832.3 432.024C1832.3 433.797 1830.86 435.238 1829.09 435.238C1827.31 435.238 1825.87 433.797 1825.87 432.024C1825.87 430.244 1827.31 428.803 1829.09 428.803Z" fill="#64668E"/>
<path d="M1829.09 409.225C1830.86 409.225 1832.3 410.666 1832.3 412.446C1832.3 414.219 1830.86 415.66 1829.09 415.66C1827.31 415.66 1825.87 414.219 1825.87 412.446C1825.87 410.666 1827.31 409.225 1829.09 409.225Z" fill="#64668E"/>
<path d="M1829.09 389.648C1830.86 389.648 1832.3 391.089 1832.3 392.87C1832.3 394.643 1830.86 396.084 1829.09 396.084C1827.31 396.084 1825.87 394.643 1825.87 392.87C1825.87 391.089 1827.31 389.648 1829.09 389.648Z" fill="#64668E"/>
<path d="M1846.68 448.379C1848.46 448.379 1849.89 449.82 1849.89 451.6C1849.89 453.374 1848.46 454.814 1846.68 454.814C1844.91 454.814 1843.46 453.374 1843.46 451.6C1843.46 449.82 1844.91 448.379 1846.68 448.379Z" fill="#64668E"/>
<path d="M1846.68 428.803C1848.46 428.803 1849.89 430.244 1849.89 432.024C1849.89 433.797 1848.46 435.238 1846.68 435.238C1844.91 435.238 1843.46 433.797 1843.46 432.024C1843.46 430.244 1844.91 428.803 1846.68 428.803Z" fill="#64668E"/>
<path d="M1846.68 409.225C1848.46 409.225 1849.89 410.666 1849.89 412.446C1849.89 414.219 1848.46 415.66 1846.68 415.66C1844.91 415.66 1843.46 414.219 1843.46 412.446C1843.46 410.666 1844.91 409.225 1846.68 409.225Z" fill="#64668E"/>
<path d="M1846.68 389.648C1848.46 389.648 1849.89 391.089 1849.89 392.87C1849.89 394.643 1848.46 396.084 1846.68 396.084C1844.91 396.084 1843.46 394.643 1843.46 392.87C1843.46 391.089 1844.91 389.648 1846.68 389.648Z" fill="#64668E"/>
<path d="M1864.27 448.379C1866.05 448.379 1867.49 449.82 1867.49 451.6C1867.49 453.374 1866.05 454.814 1864.27 454.814C1862.5 454.814 1861.06 453.374 1861.06 451.6C1861.06 449.82 1862.5 448.379 1864.27 448.379Z" fill="#64668E"/>
<path d="M1864.27 428.803C1866.05 428.803 1867.49 430.244 1867.49 432.024C1867.49 433.797 1866.05 435.238 1864.27 435.238C1862.5 435.238 1861.06 433.797 1861.06 432.024C1861.06 430.244 1862.5 428.803 1864.27 428.803Z" fill="#64668E"/>
<path d="M1864.27 409.225C1866.05 409.225 1867.49 410.666 1867.49 412.446C1867.49 414.219 1866.05 415.66 1864.27 415.66C1862.5 415.66 1861.06 414.219 1861.06 412.446C1861.06 410.666 1862.5 409.225 1864.27 409.225Z" fill="#64668E"/>
<path d="M1864.27 389.648C1866.05 389.648 1867.49 391.089 1867.49 392.87C1867.49 394.643 1866.05 396.084 1864.27 396.084C1862.5 396.084 1861.06 394.643 1861.06 392.87C1861.06 391.089 1862.5 389.648 1864.27 389.648Z" fill="#64668E"/>
<path d="M1881.87 448.379C1883.64 448.379 1885.08 449.82 1885.08 451.6C1885.08 453.374 1883.64 454.814 1881.87 454.814C1880.09 454.814 1878.65 453.374 1878.65 451.6C1878.65 449.82 1880.09 448.379 1881.87 448.379Z" fill="#64668E"/>
<path d="M1881.87 428.803C1883.64 428.803 1885.08 430.244 1885.08 432.024C1885.08 433.797 1883.64 435.238 1881.87 435.238C1880.09 435.238 1878.65 433.797 1878.65 432.024C1878.65 430.244 1880.09 428.803 1881.87 428.803Z" fill="#64668E"/>
<path d="M1881.87 409.225C1883.64 409.225 1885.08 410.666 1885.08 412.446C1885.08 414.219 1883.64 415.66 1881.87 415.66C1880.09 415.66 1878.65 414.219 1878.65 412.446C1878.65 410.666 1880.09 409.225 1881.87 409.225Z" fill="#64668E"/>
<path d="M1881.87 389.648C1883.64 389.648 1885.08 391.089 1885.08 392.87C1885.08 394.643 1883.64 396.084 1881.87 396.084C1880.09 396.084 1878.65 394.643 1878.65 392.87C1878.65 391.089 1880.09 389.648 1881.87 389.648Z" fill="#64668E"/>
<path d="M1899.46 448.379C1901.24 448.379 1902.68 449.82 1902.68 451.6C1902.68 453.374 1901.24 454.814 1899.46 454.814C1897.69 454.814 1896.25 453.374 1896.25 451.6C1896.25 449.82 1897.69 448.379 1899.46 448.379Z" fill="#64668E"/>
<path d="M1899.46 428.803C1901.24 428.803 1902.68 430.244 1902.68 432.024C1902.68 433.797 1901.24 435.238 1899.46 435.238C1897.69 435.238 1896.25 433.797 1896.25 432.024C1896.25 430.244 1897.69 428.803 1899.46 428.803Z" fill="#64668E"/>
<path d="M1899.46 409.225C1901.24 409.225 1902.68 410.666 1902.68 412.446C1902.68 414.219 1901.24 415.66 1899.46 415.66C1897.69 415.66 1896.25 414.219 1896.25 412.446C1896.25 410.666 1897.69 409.225 1899.46 409.225Z" fill="#64668E"/>
<path d="M1899.46 389.648C1901.24 389.648 1902.68 391.089 1902.68 392.87C1902.68 394.643 1901.24 396.084 1899.46 396.084C1897.69 396.084 1896.25 394.643 1896.25 392.87C1896.25 391.089 1897.69 389.648 1899.46 389.648Z" fill="#64668E"/>
<path d="M1917.05 448.379C1918.83 448.379 1920.27 449.82 1920.27 451.6C1920.27 453.374 1918.83 454.814 1917.05 454.814C1915.28 454.814 1913.84 453.374 1913.84 451.6C1913.84 449.82 1915.28 448.379 1917.05 448.379Z" fill="#64668E"/>
<path d="M1917.05 428.803C1918.83 428.803 1920.27 430.244 1920.27 432.024C1920.27 433.797 1918.83 435.238 1917.05 435.238C1915.28 435.238 1913.84 433.797 1913.84 432.024C1913.84 430.244 1915.28 428.803 1917.05 428.803Z" fill="#64668E"/>
<path d="M1917.05 409.225C1918.83 409.225 1920.27 410.666 1920.27 412.446C1920.27 414.219 1918.83 415.66 1917.05 415.66C1915.28 415.66 1913.84 414.219 1913.84 412.446C1913.84 410.666 1915.28 409.225 1917.05 409.225Z" fill="#64668E"/>
<path d="M1917.05 389.648C1918.83 389.648 1920.27 391.089 1920.27 392.87C1920.27 394.643 1918.83 396.084 1917.05 396.084C1915.28 396.084 1913.84 394.643 1913.84 392.87C1913.84 391.089 1915.28 389.648 1917.05 389.648Z" fill="#64668E"/>
<g opacity="0.1">
<path d="M1507.84 554.631C1504.96 552.07 1502.2 549.423 1499.52 546.705L1662.6 250.942C1666.32 251.751 1670.04 252.683 1673.74 253.745L1507.84 554.631Z" fill="#00ABB6"/>
<path d="M1526.71 569.249C1523.6 567.155 1520.56 564.989 1517.62 562.73L1685.81 257.689C1689.29 258.968 1692.75 260.381 1696.18 261.898L1526.71 569.249Z" fill="#00ABB6"/>
<path d="M1717.08 272.829L1547.12 581.085C1544.76 579.922 1542.41 578.708 1540.09 577.42C1539.16 576.908 1538.24 576.375 1537.32 575.85L1707.42 267.34C1708.36 267.84 1709.3 268.331 1710.23 268.843C1712.55 270.126 1714.84 271.466 1717.08 272.829Z" fill="#00ABB6"/>
<path d="M1569.04 590.167C1565.51 588.98 1562.01 587.663 1558.53 586.234L1727.52 279.728C1730.6 281.911 1733.58 284.173 1736.46 286.519L1569.04 590.167Z" fill="#00ABB6"/>
<path d="M1475.34 515.891C1473.05 512.18 1470.9 508.402 1468.9 504.555L1610.61 247.557C1614.93 247.194 1619.27 246.992 1623.63 246.944L1475.34 515.891Z" fill="#00ABB6"/>
<path d="M1490.64 536.979C1488.03 533.898 1485.54 530.74 1483.17 527.509L1637.64 247.368C1641.64 247.649 1645.64 248.07 1649.63 248.627L1490.64 536.979Z" fill="#00ABB6"/>
<path d="M1580.87 252.632C1585.62 251.395 1590.43 250.359 1595.27 249.521L1462.38 490.538C1460.5 485.994 1458.81 481.384 1457.32 476.708L1580.87 252.632Z" fill="#00ABB6"/>
<path d="M1617.93 599.185C1613.87 599.027 1609.81 598.723 1605.75 598.274L1762.92 313.229C1765.47 316.423 1767.89 319.698 1770.19 323.041L1617.93 599.185Z" fill="#00ABB6"/>
<path d="M1760.63 535.774C1752.43 545.66 1743.28 554.483 1733.39 562.178L1800.53 440.414C1799.3 452.882 1796.72 465.323 1792.74 477.541L1760.63 535.774Z" fill="#00ABB6"/>
<path d="M1452.71 459.222C1451.47 453.308 1450.54 447.325 1449.91 441.295L1546.97 265.271C1552.4 262.583 1557.96 260.179 1563.63 258.067L1452.71 459.222Z" fill="#00ABB6"/>
<path d="M1503.02 296.119C1510.19 289.224 1517.88 283.011 1525.97 277.503L1449.06 417.011C1449.39 407.223 1450.54 397.412 1452.54 387.672L1503.02 296.119Z" fill="#00ABB6"/>
<path d="M1794.9 375.936L1675.85 591.839C1670.99 593.3 1666.07 594.557 1661.09 595.593L1790.2 361.453C1791.97 366.212 1793.54 371.044 1794.9 375.936Z" fill="#00ABB6"/>
<path d="M1710.96 576.999C1705.33 580.135 1699.54 582.961 1693.61 585.454L1798.98 394.359C1800.03 400.701 1800.73 407.106 1801.09 413.546L1710.96 576.999Z" fill="#00ABB6"/>
<path d="M1645.44 598.145C1641.04 598.659 1636.62 599.008 1632.18 599.192L1777.8 335.088C1780.02 338.938 1782.08 342.866 1783.99 346.863L1645.44 598.145Z" fill="#00ABB6"/>
<path d="M1592.59 596.315C1588.8 595.602 1585.03 594.775 1581.28 593.805L1746.08 294.929C1748.9 297.585 1751.61 300.332 1754.23 303.146L1592.59 596.315Z" fill="#00ABB6"/>
</g>
</g>
<defs>
<linearGradient id="paint0_linear_2008_6116" x1="187.5" y1="0" x2="187.5" y2="442.091" gradientUnits="userSpaceOnUse">
<stop stop-color="white" stop-opacity="0"/>
<stop offset="1" stop-color="white"/>
</linearGradient>
<linearGradient id="paint1_linear_2008_6116" x1="187.5" y1="0" x2="187.5" y2="218.455" gradientUnits="userSpaceOnUse">
<stop stop-color="white" stop-opacity="0"/>
<stop offset="1" stop-color="white"/>
</linearGradient>
</defs>
</svg>
