<svg width="543" height="497" viewBox="0 0 543 497" fill="none" xmlns="http://www.w3.org/2000/svg">
<g style="mix-blend-mode:screen" opacity="0.5">
<path d="M381.715 273.379C383.488 273.379 384.929 274.82 384.929 276.6C384.929 278.374 383.488 279.814 381.715 279.814C379.934 279.814 378.493 278.374 378.493 276.6C378.493 274.82 379.934 273.379 381.715 273.379Z" fill="#64668E"/>
<path d="M381.715 253.803C383.489 253.803 384.93 255.244 384.93 257.024C384.93 258.797 383.489 260.238 381.715 260.238C379.934 260.238 378.493 258.797 378.493 257.024C378.493 255.244 379.934 253.803 381.715 253.803Z" fill="#64668E"/>
<path d="M381.715 234.225C383.489 234.225 384.93 235.666 384.93 237.446C384.93 239.219 383.489 240.66 381.715 240.66C379.934 240.66 378.493 239.219 378.493 237.446C378.493 235.666 379.934 234.225 381.715 234.225Z" fill="#64668E"/>
<path d="M381.715 214.648C383.489 214.648 384.93 216.089 384.93 217.87C384.93 219.643 383.489 221.084 381.715 221.084C379.934 221.084 378.493 219.643 378.493 217.87C378.493 216.089 379.934 214.648 381.715 214.648Z" fill="#64668E"/>
<path d="M399.307 273.379C401.08 273.379 402.521 274.82 402.521 276.6C402.521 278.374 401.08 279.814 399.307 279.814C397.526 279.814 396.092 278.374 396.092 276.6C396.092 274.82 397.526 273.379 399.307 273.379Z" fill="#64668E"/>
<path d="M399.307 253.803C401.08 253.803 402.521 255.244 402.521 257.024C402.521 258.797 401.08 260.238 399.307 260.238C397.526 260.238 396.092 258.797 396.092 257.024C396.092 255.244 397.526 253.803 399.307 253.803Z" fill="#64668E"/>
<path d="M399.307 234.225C401.08 234.225 402.521 235.666 402.521 237.446C402.521 239.219 401.08 240.66 399.307 240.66C397.526 240.66 396.092 239.219 396.092 237.446C396.092 235.666 397.526 234.225 399.307 234.225Z" fill="#64668E"/>
<path d="M399.307 214.648C401.08 214.648 402.521 216.089 402.521 217.87C402.521 219.643 401.08 221.084 399.307 221.084C397.526 221.084 396.092 219.643 396.092 217.87C396.092 216.089 397.526 214.648 399.307 214.648Z" fill="#64668E"/>
<path d="M416.897 273.379C418.678 273.379 420.119 274.82 420.119 276.6C420.119 278.374 418.678 279.814 416.897 279.814C415.124 279.814 413.683 278.374 413.683 276.6C413.683 274.82 415.124 273.379 416.897 273.379Z" fill="#64668E"/>
<path d="M416.897 253.803C418.678 253.803 420.119 255.244 420.119 257.024C420.119 258.797 418.678 260.238 416.897 260.238C415.124 260.238 413.683 258.797 413.683 257.024C413.683 255.244 415.124 253.803 416.897 253.803Z" fill="#64668E"/>
<path d="M416.897 234.225C418.678 234.225 420.119 235.666 420.119 237.446C420.119 239.219 418.678 240.66 416.897 240.66C415.124 240.66 413.683 239.219 413.683 237.446C413.683 235.666 415.124 234.225 416.897 234.225Z" fill="#64668E"/>
<path d="M416.897 214.648C418.678 214.648 420.119 216.089 420.119 217.87C420.119 219.643 418.678 221.084 416.897 221.084C415.124 221.084 413.683 219.643 413.683 217.87C413.683 216.089 415.124 214.648 416.897 214.648Z" fill="#64668E"/>
<path d="M434.496 273.379C436.27 273.379 437.711 274.82 437.711 276.6C437.711 278.374 436.27 279.814 434.496 279.814C432.715 279.814 431.274 278.374 431.274 276.6C431.274 274.82 432.715 273.379 434.496 273.379Z" fill="#64668E"/>
<path d="M434.496 253.803C436.27 253.803 437.711 255.244 437.711 257.024C437.711 258.797 436.27 260.238 434.496 260.238C432.715 260.238 431.274 258.797 431.274 257.024C431.274 255.244 432.715 253.803 434.496 253.803Z" fill="#64668E"/>
<path d="M434.496 234.225C436.27 234.225 437.711 235.666 437.711 237.446C437.711 239.219 436.27 240.66 434.496 240.66C432.715 240.66 431.274 239.219 431.274 237.446C431.274 235.666 432.715 234.225 434.496 234.225Z" fill="#64668E"/>
<path d="M434.496 214.648C436.27 214.648 437.711 216.089 437.711 217.87C437.711 219.643 436.27 221.084 434.496 221.084C432.715 221.084 431.274 219.643 431.274 217.87C431.274 216.089 432.715 214.648 434.496 214.648Z" fill="#64668E"/>
<path d="M452.088 273.379C453.862 273.379 455.303 274.82 455.303 276.6C455.303 278.374 453.862 279.814 452.088 279.814C450.307 279.814 448.866 278.374 448.866 276.6C448.866 274.82 450.307 273.379 452.088 273.379Z" fill="#64668E"/>
<path d="M452.088 253.803C453.862 253.803 455.303 255.244 455.303 257.024C455.303 258.797 453.862 260.238 452.088 260.238C450.307 260.238 448.866 258.797 448.866 257.024C448.866 255.244 450.307 253.803 452.088 253.803Z" fill="#64668E"/>
<path d="M452.088 234.225C453.862 234.225 455.303 235.666 455.303 237.446C455.303 239.219 453.862 240.66 452.088 240.66C450.307 240.66 448.866 239.219 448.866 237.446C448.866 235.666 450.307 234.225 452.088 234.225Z" fill="#64668E"/>
<path d="M452.088 214.648C453.862 214.648 455.303 216.089 455.303 217.87C455.303 219.643 453.862 221.084 452.088 221.084C450.307 221.084 448.866 219.643 448.866 217.87C448.866 216.089 450.307 214.648 452.088 214.648Z" fill="#64668E"/>
<path d="M469.68 273.379C471.46 273.379 472.895 274.82 472.895 276.6C472.895 278.374 471.46 279.814 469.68 279.814C467.906 279.814 466.465 278.374 466.465 276.6C466.465 274.82 467.906 273.379 469.68 273.379Z" fill="#64668E"/>
<path d="M469.68 253.803C471.46 253.803 472.895 255.244 472.895 257.024C472.895 258.797 471.46 260.238 469.68 260.238C467.906 260.238 466.465 258.797 466.465 257.024C466.465 255.244 467.906 253.803 469.68 253.803Z" fill="#64668E"/>
<path d="M469.68 234.225C471.46 234.225 472.895 235.666 472.895 237.446C472.895 239.219 471.46 240.66 469.68 240.66C467.906 240.66 466.465 239.219 466.465 237.446C466.465 235.666 467.906 234.225 469.68 234.225Z" fill="#64668E"/>
<path d="M469.68 214.648C471.46 214.648 472.895 216.089 472.895 217.87C472.895 219.643 471.46 221.084 469.68 221.084C467.906 221.084 466.465 219.643 466.465 217.87C466.465 216.089 467.906 214.648 469.68 214.648Z" fill="#64668E"/>
<path d="M487.27 273.379C489.051 273.379 490.492 274.82 490.492 276.6C490.492 278.374 489.051 279.814 487.27 279.814C485.497 279.814 484.056 278.374 484.056 276.6C484.056 274.82 485.497 273.379 487.27 273.379Z" fill="#64668E"/>
<path d="M487.27 253.803C489.051 253.803 490.492 255.244 490.492 257.024C490.492 258.797 489.051 260.238 487.27 260.238C485.497 260.238 484.056 258.797 484.056 257.024C484.056 255.244 485.497 253.803 487.27 253.803Z" fill="#64668E"/>
<path d="M487.27 234.225C489.051 234.225 490.492 235.666 490.492 237.446C490.492 239.219 489.051 240.66 487.27 240.66C485.497 240.66 484.056 239.219 484.056 237.446C484.056 235.666 485.497 234.225 487.27 234.225Z" fill="#64668E"/>
<path d="M487.27 214.648C489.051 214.648 490.492 216.089 490.492 217.87C490.492 219.643 489.051 221.084 487.27 221.084C485.497 221.084 484.056 219.643 484.056 217.87C484.056 216.089 485.497 214.648 487.27 214.648Z" fill="#64668E"/>
<path d="M504.869 273.379C506.643 273.379 508.084 274.82 508.084 276.6C508.084 278.374 506.643 279.814 504.869 279.814C503.089 279.814 501.647 278.374 501.647 276.6C501.647 274.82 503.089 273.379 504.869 273.379Z" fill="#64668E"/>
<path d="M504.869 253.803C506.643 253.803 508.084 255.244 508.084 257.024C508.084 258.797 506.643 260.238 504.869 260.238C503.089 260.238 501.647 258.797 501.647 257.024C501.647 255.244 503.089 253.803 504.869 253.803Z" fill="#64668E"/>
<path d="M504.869 234.225C506.643 234.225 508.084 235.666 508.084 237.446C508.084 239.219 506.643 240.66 504.869 240.66C503.089 240.66 501.647 239.219 501.647 237.446C501.647 235.666 503.089 234.225 504.869 234.225Z" fill="#64668E"/>
<path d="M504.869 214.648C506.643 214.648 508.084 216.089 508.084 217.87C508.084 219.643 506.643 221.084 504.869 221.084C503.089 221.084 501.647 219.643 501.647 217.87C501.647 216.089 503.089 214.648 504.869 214.648Z" fill="#64668E"/>
<path d="M522.461 273.379C524.242 273.379 525.676 274.82 525.676 276.6C525.676 278.374 524.242 279.814 522.461 279.814C520.687 279.814 519.246 278.374 519.246 276.6C519.246 274.82 520.687 273.379 522.461 273.379Z" fill="#64668E"/>
<path d="M522.461 253.803C524.242 253.803 525.676 255.244 525.676 257.024C525.676 258.797 524.242 260.238 522.461 260.238C520.687 260.238 519.246 258.797 519.246 257.024C519.246 255.244 520.687 253.803 522.461 253.803Z" fill="#64668E"/>
<path d="M522.461 234.225C524.242 234.225 525.676 235.666 525.676 237.446C525.676 239.219 524.242 240.66 522.461 240.66C520.687 240.66 519.246 239.219 519.246 237.446C519.246 235.666 520.687 234.225 522.461 234.225Z" fill="#64668E"/>
<path d="M522.461 214.648C524.242 214.648 525.676 216.089 525.676 217.87C525.676 219.643 524.242 221.084 522.461 221.084C520.687 221.084 519.246 219.643 519.246 217.87C519.246 216.089 520.687 214.648 522.461 214.648Z" fill="#64668E"/>
<path d="M540.052 273.379C541.832 273.379 543.273 274.82 543.273 276.6C543.273 278.374 541.832 279.814 540.052 279.814C538.278 279.814 536.837 278.374 536.837 276.6C536.837 274.82 538.278 273.379 540.052 273.379Z" fill="#64668E"/>
<path d="M540.052 253.803C541.832 253.803 543.273 255.244 543.273 257.024C543.273 258.797 541.832 260.238 540.052 260.238C538.278 260.238 536.837 258.797 536.837 257.024C536.837 255.244 538.278 253.803 540.052 253.803Z" fill="#64668E"/>
<path d="M540.052 234.225C541.832 234.225 543.273 235.666 543.273 237.446C543.273 239.219 541.832 240.66 540.052 240.66C538.278 240.66 536.837 239.219 536.837 237.446C536.837 235.666 538.278 234.225 540.052 234.225Z" fill="#64668E"/>
<path d="M540.052 214.648C541.832 214.648 543.273 216.089 543.273 217.87C543.273 219.643 541.832 221.084 540.052 221.084C538.278 221.084 536.837 219.643 536.837 217.87C536.837 216.089 538.278 214.648 540.052 214.648Z" fill="#64668E"/>
<g opacity="0.1">
<path d="M130.841 379.631C127.964 377.07 125.2 374.423 122.522 371.705L285.6 75.9422C289.325 76.7514 293.038 77.6827 296.74 78.7448L130.841 379.631Z" fill="#00ABB6"/>
<path d="M149.708 394.249C146.598 392.155 143.557 389.989 140.617 387.73L308.812 82.6893C312.291 83.9684 315.745 85.3815 319.18 86.8984L149.708 394.249Z" fill="#00ABB6"/>
<path d="M340.081 97.8294L170.12 406.085C167.761 404.922 165.415 403.708 163.088 402.42C162.155 401.908 161.237 401.375 160.318 400.85L330.421 92.3399C331.36 92.8397 332.299 93.3308 333.233 93.8433C335.555 95.1258 337.837 96.4661 340.081 97.8294Z" fill="#00ABB6"/>
<path d="M192.042 415.167C188.511 413.98 185.009 412.663 181.526 411.234L350.525 104.728C353.595 106.911 356.579 109.173 359.463 111.519L192.042 415.167Z" fill="#00ABB6"/>
<path d="M98.3358 340.891C96.0486 337.18 93.8994 333.402 91.9017 329.555L233.606 72.5569C237.927 72.1942 242.268 71.9916 246.626 71.9445L98.3358 340.891Z" fill="#00ABB6"/>
<path d="M113.641 361.979C111.032 358.898 108.544 355.74 106.173 352.509L260.637 72.3682C264.639 72.6489 268.637 73.0699 272.627 73.6265L113.641 361.979Z" fill="#00ABB6"/>
<path d="M203.871 77.6322C208.625 76.3946 213.426 75.3593 218.27 74.5214L85.3798 315.538C83.5036 310.994 81.8139 306.384 80.3192 301.708L203.871 77.6322Z" fill="#00ABB6"/>
<path d="M240.933 424.185C236.871 424.027 232.809 423.723 228.748 423.274L385.916 138.229C388.466 141.423 390.891 144.698 393.194 148.041L240.933 424.185Z" fill="#00ABB6"/>
<path d="M383.631 360.774C375.428 370.66 366.276 379.483 356.388 387.178L423.525 265.414C422.3 277.882 419.723 290.323 415.737 302.541L383.631 360.774Z" fill="#00ABB6"/>
<path d="M75.7149 284.222C74.4709 278.308 73.541 272.325 72.9101 266.295L169.97 90.2706C175.403 87.5829 180.959 85.1792 186.629 83.0673L75.7149 284.222Z" fill="#00ABB6"/>
<path d="M126.025 121.119C133.187 114.224 140.876 108.011 148.974 102.503L72.0553 242.011C72.3913 232.223 73.5384 222.412 75.541 212.672L126.025 121.119Z" fill="#00ABB6"/>
<path d="M417.897 200.936L298.85 416.839C293.992 418.3 289.07 419.557 284.093 420.593L413.195 186.453C414.968 191.212 416.536 196.044 417.897 200.936Z" fill="#00ABB6"/>
<path d="M333.964 401.999C328.332 405.135 322.539 407.961 316.614 410.454L421.982 219.359C423.033 225.701 423.735 232.106 424.095 238.546L333.964 401.999Z" fill="#00ABB6"/>
<path d="M268.439 423.145C264.042 423.659 259.621 424.008 255.176 424.192L400.799 160.088C403.016 163.938 405.081 167.866 406.994 171.863L268.439 423.145Z" fill="#00ABB6"/>
<path d="M215.587 421.315C211.805 420.602 208.033 419.775 204.279 418.805L369.078 119.929C371.898 122.585 374.609 125.332 377.229 128.146L215.587 421.315Z" fill="#00ABB6"/>
</g>
</g>
</svg>
