<svg id="svg" version="1.1" xmlns="http://www.w3.org/2000/svg" xmlns:xlink="http://www.w3.org/1999/xlink" width="400"
     height="400" viewBox="0, 0, 400,400">
    <g id="svgg">
        <path id="path0"
              d="M7.200 2.278 C 6.313 2.595,5.597 3.641,5.625 4.576 C 5.649 5.342,5.677 5.335,6.022 4.474 C 6.226 3.965,6.579 3.664,6.807 3.804 C 7.034 3.945,7.170 3.821,7.110 3.530 C 7.049 3.238,7.285 3.020,7.633 3.044 C 7.982 3.069,8.267 2.844,8.267 2.544 C 8.267 1.967,8.151 1.938,7.200 2.278 M391.733 2.539 C 391.733 2.841,392.018 3.069,392.367 3.044 C 392.715 3.020,392.951 3.238,392.890 3.530 C 392.830 3.821,392.966 3.945,393.193 3.804 C 393.421 3.664,393.774 3.965,393.978 4.474 C 394.323 5.335,394.351 5.342,394.375 4.576 C 394.407 3.538,393.646 2.554,392.567 2.235 C 392.007 2.069,391.733 2.169,391.733 2.539 M3.117 6.100 C 2.227 6.799,1.836 8.267,2.539 8.267 C 2.841 8.267,3.069 7.982,3.044 7.633 C 3.020 7.285,3.238 7.049,3.530 7.110 C 3.821 7.170,3.945 7.034,3.804 6.807 C 3.664 6.579,3.965 6.226,4.474 6.022 C 5.335 5.677,5.342 5.649,4.576 5.625 C 4.124 5.611,3.467 5.825,3.117 6.100 M395.526 6.022 C 396.035 6.226,396.336 6.579,396.196 6.807 C 396.055 7.034,396.179 7.170,396.470 7.110 C 396.762 7.049,396.980 7.285,396.956 7.633 C 396.931 7.982,397.159 8.267,397.461 8.267 C 397.831 8.267,397.931 7.993,397.765 7.433 C 397.446 6.354,396.462 5.593,395.424 5.625 C 394.658 5.649,394.665 5.677,395.526 6.022 M55.000 164.779 C 48.223 165.698,34.764 172.561,33.804 175.588 C 33.674 175.996,32.946 176.804,32.184 177.385 C 31.423 177.966,30.800 178.661,30.800 178.929 C 30.800 179.198,30.286 180.044,29.658 180.809 C 28.400 182.342,27.200 184.500,27.200 185.230 C 27.200 185.488,26.542 187.156,25.739 188.935 C 23.502 193.890,23.308 206.551,25.419 209.773 C 25.739 210.260,26.434 211.936,26.965 213.497 C 27.521 215.132,28.623 217.212,29.565 218.404 C 30.464 219.541,31.204 220.591,31.210 220.736 C 31.221 221.043,35.211 225.186,37.370 227.133 C 38.183 227.866,39.872 228.929,41.124 229.494 C 42.376 230.060,43.868 230.848,44.440 231.246 C 51.260 235.989,67.542 235.546,77.815 230.339 C 83.408 227.504,83.200 228.156,83.200 213.458 C 83.200 197.502,83.475 197.816,69.724 198.078 C 58.415 198.293,56.205 199.626,57.834 205.250 C 58.164 206.391,61.495 207.354,65.200 207.379 C 71.345 207.421,72.989 209.344,72.736 216.193 C 72.560 220.931,71.508 223.178,68.965 224.240 C 65.327 225.760,53.524 225.223,49.949 223.374 C 45.676 221.164,40.873 216.846,39.321 213.820 C 38.762 212.730,37.949 211.358,37.514 210.769 C 34.436 206.605,34.913 192.784,38.338 186.921 C 44.720 175.994,56.016 171.555,68.248 175.167 C 75.590 177.335,78.771 176.375,78.795 171.983 C 78.819 167.428,65.408 163.367,55.000 164.779 M189.734 166.087 C 188.818 166.548,187.895 167.301,187.682 167.762 C 187.469 168.223,186.554 170.144,185.648 172.030 C 184.741 173.917,184.000 175.749,184.000 176.101 C 184.000 176.454,183.393 177.906,182.652 179.328 C 181.911 180.750,180.923 183.170,180.456 184.704 C 179.990 186.239,179.336 187.721,179.002 187.999 C 178.668 188.276,177.931 190.055,177.366 191.951 C 176.800 193.848,176.020 195.850,175.633 196.400 C 175.246 196.950,174.440 198.871,173.842 200.670 C 173.244 202.468,172.519 204.135,172.232 204.374 C 171.944 204.612,171.306 206.111,170.812 207.704 C 170.319 209.297,169.489 211.345,168.967 212.255 C 168.446 213.166,167.579 215.296,167.041 216.988 C 166.504 218.681,165.802 220.366,165.482 220.733 C 164.700 221.629,162.763 227.373,162.514 229.536 C 162.078 233.316,166.649 235.344,169.098 232.458 C 169.592 231.876,169.997 231.203,169.998 230.962 C 169.999 230.721,170.352 230.205,170.783 229.816 C 171.213 229.426,172.028 227.733,172.593 226.054 C 173.158 224.374,174.244 222.151,175.005 221.113 C 177.523 217.679,176.861 217.816,191.618 217.676 L 204.674 217.551 206.432 218.892 C 208.698 220.620,209.825 222.324,210.651 225.269 C 211.017 226.573,211.696 228.116,212.158 228.696 C 212.621 229.276,213.366 230.465,213.812 231.337 C 215.863 235.340,222.000 234.031,222.000 229.590 C 222.000 228.320,221.715 227.154,221.198 226.310 C 220.757 225.589,219.948 223.538,219.401 221.751 C 218.853 219.965,218.132 218.276,217.798 217.999 C 217.464 217.721,216.805 216.213,216.334 214.647 C 215.862 213.081,214.982 210.900,214.378 209.800 C 213.774 208.700,212.981 206.745,212.615 205.455 C 212.250 204.165,211.525 202.455,211.005 201.655 C 210.485 200.855,209.671 198.905,209.197 197.322 C 208.723 195.739,208.078 194.231,207.763 193.970 C 207.449 193.708,206.805 192.213,206.334 190.647 C 205.862 189.081,204.978 186.900,204.368 185.800 C 203.759 184.700,202.953 182.720,202.576 181.400 C 202.199 180.080,201.556 178.572,201.147 178.048 C 200.738 177.524,200.025 175.814,199.563 174.248 C 198.837 171.785,197.303 168.962,195.508 166.784 C 194.306 165.327,191.839 165.029,189.734 166.087 M312.514 165.481 C 311.012 165.771,308.205 169.289,307.413 171.873 C 307.021 173.153,306.202 175.100,305.594 176.200 C 304.986 177.300,304.188 179.280,303.821 180.600 C 303.454 181.920,302.816 183.472,302.402 184.050 C 301.989 184.627,301.197 186.490,300.641 188.189 C 300.086 189.889,299.246 191.934,298.774 192.734 C 298.302 193.534,297.560 195.361,297.125 196.794 C 296.689 198.227,295.922 200.030,295.420 200.800 C 294.917 201.570,294.191 203.370,293.806 204.800 C 293.421 206.230,292.754 207.897,292.323 208.505 C 291.892 209.112,291.085 210.999,290.530 212.698 C 289.975 214.397,289.199 216.240,288.806 216.794 C 288.413 217.347,287.728 218.970,287.284 220.400 C 286.841 221.830,285.979 223.956,285.370 225.124 C 283.124 229.428,283.595 232.802,286.545 233.544 C 289.420 234.268,291.552 232.851,292.768 229.406 C 293.275 227.969,293.998 226.390,294.374 225.897 C 294.750 225.403,295.467 223.887,295.968 222.527 C 297.713 217.783,298.384 217.595,313.508 217.618 C 329.988 217.642,329.850 217.568,333.847 228.400 C 335.681 233.368,339.727 235.348,342.300 232.538 C 343.902 230.789,343.262 225.344,340.991 221.400 C 340.485 220.520,339.693 218.516,339.232 216.946 C 338.771 215.377,338.135 213.878,337.820 213.616 C 337.504 213.354,336.759 211.668,336.163 209.870 C 335.568 208.071,334.754 206.178,334.353 205.662 C 333.953 205.146,333.171 203.234,332.615 201.413 C 332.060 199.592,331.333 197.876,330.999 197.599 C 330.665 197.322,330.110 196.084,329.765 194.848 C 329.421 193.611,328.533 191.340,327.793 189.800 C 327.052 188.260,326.151 186.019,325.789 184.819 C 325.427 183.620,324.787 182.201,324.367 181.667 C 323.947 181.133,323.230 179.414,322.775 177.848 C 322.319 176.282,321.629 174.550,321.242 174.000 C 320.854 173.450,320.051 171.740,319.457 170.200 C 318.520 167.771,318.137 167.254,316.564 166.300 C 314.791 165.225,314.324 165.130,312.514 165.481 M100.122 166.923 C 97.562 168.872,97.519 169.319,97.683 192.306 C 97.825 212.098,97.831 212.210,98.750 214.200 C 99.258 215.300,100.037 217.370,100.482 218.800 C 101.308 221.451,102.258 222.832,105.800 226.523 C 115.387 236.514,134.566 236.618,144.000 226.731 C 148.041 222.496,148.619 221.568,150.439 216.400 L 152.200 211.400 152.200 190.800 C 152.200 179.470,152.061 169.750,151.891 169.200 C 151.306 167.310,148.566 165.564,146.659 165.867 C 143.176 166.420,143.171 166.451,142.945 188.800 L 142.749 208.200 141.508 212.299 C 136.906 227.496,118.006 229.472,110.424 215.548 C 109.023 212.976,108.806 209.619,108.801 190.400 C 108.795 170.087,108.751 169.633,106.527 167.172 C 104.646 165.090,102.633 165.012,100.122 166.923 M236.600 166.069 C 233.130 167.328,233.135 167.267,233.299 201.200 C 233.440 230.494,233.523 231.925,235.118 232.739 C 236.904 233.651,238.455 233.601,240.206 232.576 C 242.515 231.222,242.800 229.811,242.800 219.741 C 242.800 207.900,242.003 208.667,254.600 208.385 C 265.097 208.150,267.092 207.759,270.459 205.276 C 271.262 204.684,272.651 203.660,273.547 203.000 C 274.442 202.340,275.270 201.530,275.387 201.200 C 275.504 200.870,276.391 199.375,277.358 197.878 C 280.184 193.501,280.861 183.159,278.634 178.377 C 275.918 172.544,272.133 168.701,267.140 166.705 C 264.641 165.706,239.070 165.174,236.600 166.069 M263.668 175.180 C 268.909 177.506,271.945 186.339,269.370 191.767 C 267.560 195.582,266.176 197.303,264.000 198.445 L 261.800 199.600 253.327 199.600 L 244.854 199.600 243.927 198.300 C 242.285 195.998,242.304 177.787,243.951 175.646 C 245.373 173.797,259.783 173.456,263.668 175.180 M192.685 185.300 C 193.139 185.795,193.887 186.953,194.349 187.873 C 194.811 188.793,195.357 189.650,195.563 189.777 C 195.769 189.904,196.425 191.491,197.020 193.304 C 197.616 195.117,198.327 196.870,198.600 197.200 C 201.363 200.536,201.974 206.618,199.726 208.387 C 198.388 209.439,185.724 209.546,184.140 208.519 C 181.920 207.078,181.947 202.874,184.204 198.620 C 184.941 197.231,185.752 195.308,186.007 194.347 C 186.704 191.722,190.789 184.400,191.558 184.400 C 191.724 184.400,192.232 184.805,192.685 185.300 M315.769 186.366 C 316.151 186.788,316.807 188.237,317.227 189.587 C 317.647 190.937,318.423 192.798,318.950 193.721 C 319.478 194.644,320.225 196.390,320.610 197.600 C 320.994 198.810,321.713 200.520,322.207 201.400 C 324.528 205.535,323.466 208.533,319.533 208.944 C 306.725 210.283,301.578 208.135,304.387 202.625 C 304.820 201.776,305.566 199.893,306.044 198.441 C 306.522 196.988,307.216 195.350,307.587 194.800 C 308.362 193.648,308.987 192.079,309.576 189.800 C 310.603 185.832,313.721 184.103,315.769 186.366 M2.235 392.567 C 2.554 393.646,3.538 394.407,4.576 394.375 C 5.342 394.351,5.335 394.323,4.474 393.978 C 3.965 393.774,3.664 393.421,3.804 393.193 C 3.945 392.966,3.821 392.830,3.530 392.890 C 3.238 392.951,3.020 392.715,3.044 392.367 C 3.069 392.018,2.841 391.733,2.539 391.733 C 2.169 391.733,2.069 392.007,2.235 392.567 M396.956 392.367 C 396.980 392.715,396.762 392.951,396.470 392.890 C 396.179 392.830,396.055 392.966,396.196 393.193 C 396.336 393.421,396.035 393.774,395.526 393.978 C 394.665 394.323,394.658 394.351,395.424 394.375 C 396.462 394.407,397.446 393.646,397.765 392.567 C 397.931 392.007,397.831 391.733,397.461 391.733 C 397.159 391.733,396.931 392.018,396.956 392.367 M5.625 395.424 C 5.593 396.462,6.354 397.446,7.433 397.765 C 7.993 397.931,8.267 397.831,8.267 397.461 C 8.267 397.159,7.982 396.931,7.633 396.956 C 7.285 396.980,7.049 396.762,7.110 396.470 C 7.170 396.179,7.034 396.055,6.807 396.196 C 6.579 396.336,6.226 396.035,6.022 395.526 C 5.677 394.665,5.649 394.658,5.625 395.424 M393.874 395.640 C 393.749 396.116,393.464 396.363,393.217 396.211 C 392.973 396.060,392.829 396.175,392.890 396.470 C 392.951 396.762,392.715 396.980,392.367 396.956 C 392.018 396.931,391.733 397.159,391.733 397.461 C 391.733 397.831,392.007 397.931,392.567 397.765 C 393.599 397.461,394.400 396.481,394.400 395.524 C 394.400 394.552,394.143 394.609,393.874 395.640 "
              stroke="none" fill="#fcf4f3" fill-rule="evenodd"></path>
        <path id="path1"
              d="M11.600 0.800 C 11.600 1.583,11.327 1.689,9.288 1.703 C 8.786 1.706,8.470 1.803,8.586 1.919 C 8.702 2.036,8.239 2.470,7.556 2.885 C 6.873 3.300,6.214 4.026,6.090 4.499 C 5.874 5.324,5.854 5.327,5.561 4.579 C 5.297 3.904,5.252 3.893,5.228 4.500 C 5.213 4.885,4.885 5.213,4.500 5.228 C 3.893 5.252,3.904 5.297,4.579 5.561 C 5.327 5.854,5.324 5.874,4.499 6.090 C 4.026 6.214,3.300 6.873,2.885 7.556 C 2.470 8.239,2.036 8.702,1.919 8.586 C 1.803 8.470,1.706 8.786,1.703 9.288 C 1.689 11.327,1.583 11.600,0.800 11.600 C 0.001 11.600,0.000 11.867,0.000 200.000 C 0.000 388.133,0.001 388.400,0.800 388.400 C 1.583 388.400,1.689 388.673,1.703 390.712 C 1.706 391.214,1.803 391.530,1.919 391.414 C 2.036 391.298,2.470 391.761,2.885 392.444 C 3.300 393.127,4.026 393.786,4.499 393.910 C 5.324 394.126,5.327 394.146,4.579 394.439 C 3.904 394.703,3.893 394.748,4.500 394.772 C 4.885 394.787,5.213 395.115,5.228 395.500 C 5.252 396.107,5.297 396.096,5.561 395.421 C 5.854 394.673,5.874 394.676,6.090 395.501 C 6.214 395.974,6.873 396.700,7.556 397.115 C 8.239 397.530,8.702 397.964,8.586 398.081 C 8.470 398.197,8.786 398.294,9.288 398.297 C 11.327 398.311,11.600 398.417,11.600 399.200 C 11.600 399.999,11.867 400.000,200.000 400.000 C 388.133 400.000,388.400 399.999,388.400 399.200 C 388.400 398.417,388.673 398.311,390.712 398.297 C 391.214 398.294,391.530 398.197,391.414 398.081 C 391.298 397.964,391.761 397.530,392.444 397.115 C 393.127 396.700,393.786 395.974,393.910 395.501 C 394.126 394.676,394.146 394.673,394.439 395.421 C 394.703 396.096,394.748 396.107,394.772 395.500 C 394.787 395.115,395.115 394.787,395.500 394.772 C 396.107 394.748,396.096 394.703,395.421 394.439 C 394.673 394.146,394.676 394.126,395.501 393.910 C 395.974 393.786,396.700 393.127,397.115 392.444 C 397.530 391.761,397.964 391.298,398.081 391.414 C 398.197 391.530,398.294 391.214,398.297 390.712 C 398.311 388.673,398.417 388.400,399.200 388.400 C 399.999 388.400,400.000 388.133,400.000 200.000 C 400.000 11.867,399.999 11.600,399.200 11.600 C 398.417 11.600,398.311 11.327,398.297 9.288 C 398.294 8.786,398.197 8.470,398.081 8.586 C 397.964 8.702,397.530 8.239,397.115 7.556 C 396.700 6.873,395.974 6.214,395.501 6.090 C 394.676 5.874,394.673 5.854,395.421 5.561 C 396.096 5.297,396.107 5.252,395.500 5.228 C 395.115 5.213,394.787 4.885,394.772 4.500 C 394.748 3.893,394.703 3.904,394.439 4.579 C 394.146 5.327,394.126 5.324,393.910 4.499 C 393.786 4.026,393.127 3.300,392.444 2.885 C 391.761 2.470,391.298 2.036,391.414 1.919 C 391.530 1.803,391.214 1.706,390.712 1.703 C 388.673 1.689,388.400 1.583,388.400 0.800 C 388.400 0.001,388.133 0.000,200.000 0.000 C 11.867 0.000,11.600 0.001,11.600 0.800 M8.261 3.920 C 8.225 4.804,8.024 5.040,7.308 5.040 C 6.168 5.040,6.160 4.655,7.275 3.616 C 8.366 2.599,8.315 2.583,8.261 3.920 M393.294 4.200 C 393.777 4.858,393.647 5.040,392.692 5.040 C 391.974 5.040,391.775 4.804,391.739 3.909 C 391.692 2.776,392.336 2.896,393.294 4.200 M5.040 7.308 C 5.040 8.026,4.804 8.225,3.909 8.261 C 2.919 8.302,2.842 8.226,3.289 7.654 C 4.436 6.185,5.040 6.066,5.040 7.308 M395.800 6.706 C 397.104 7.664,397.224 8.308,396.091 8.261 C 395.196 8.225,394.960 8.026,394.960 7.308 C 394.960 6.353,395.142 6.223,395.800 6.706 M70.400 161.986 C 73.680 162.817,75.744 163.561,76.400 164.149 C 76.950 164.642,78.067 165.534,78.883 166.130 C 80.621 167.402,81.195 169.032,81.198 172.713 C 81.204 179.915,75.989 182.472,68.200 179.086 C 65.593 177.953,65.054 177.866,60.384 177.834 L 55.367 177.800 51.302 179.556 C 47.180 181.337,47.175 181.341,42.100 186.663 C 41.385 187.413,40.800 188.324,40.800 188.687 C 40.800 189.051,40.136 190.620,39.325 192.174 C 37.112 196.412,37.097 203.208,39.291 207.200 C 40.077 208.630,40.846 210.250,41.000 210.800 C 41.277 211.789,41.978 212.668,44.347 215.000 C 49.636 220.206,56.468 222.296,64.568 221.184 C 69.270 220.538,69.881 219.786,69.451 215.165 C 69.071 211.069,69.385 211.306,64.073 211.115 C 57.250 210.869,55.772 209.761,55.203 204.463 C 54.309 196.131,57.093 194.200,70.000 194.200 C 81.274 194.200,82.983 194.808,85.572 199.741 L 86.800 202.081 86.799 213.541 C 86.799 224.068,86.737 225.114,86.034 226.400 C 85.614 227.170,85.000 228.367,84.671 229.061 C 83.789 230.922,81.297 233.048,78.800 234.068 C 77.590 234.563,76.018 235.361,75.307 235.841 C 70.729 238.934,50.085 238.936,45.493 235.844 C 44.782 235.366,43.338 234.647,42.284 234.248 C 41.231 233.849,39.881 233.123,39.284 232.635 C 38.688 232.147,37.565 231.365,36.789 230.896 C 35.012 229.824,28.991 223.630,28.635 222.510 C 28.488 222.049,27.943 221.392,27.422 221.051 C 26.859 220.682,26.195 219.571,25.786 218.315 C 25.407 217.152,24.857 215.923,24.564 215.585 C 23.605 214.480,22.887 212.257,22.438 209.000 C 22.195 207.240,21.798 204.532,21.556 202.983 C 20.814 198.241,22.479 186.529,24.187 184.477 C 24.679 183.884,25.389 182.469,25.763 181.331 C 26.138 180.193,26.728 179.025,27.076 178.737 C 27.424 178.448,28.114 177.570,28.609 176.786 C 29.104 176.002,30.250 174.589,31.155 173.647 C 32.061 172.704,33.026 171.621,33.301 171.240 C 33.916 170.385,38.113 167.414,40.985 165.800 C 42.160 165.140,43.681 164.279,44.365 163.888 C 45.446 163.268,50.367 161.798,54.800 160.770 C 57.781 160.079,65.140 160.653,70.400 161.986 M193.800 161.885 C 195.711 162.250,197.142 163.127,197.752 164.308 C 198.063 164.910,198.698 165.746,199.163 166.167 C 199.628 166.588,200.372 168.109,200.817 169.548 C 201.261 170.987,201.871 172.442,202.173 172.782 C 202.925 173.630,203.773 175.776,204.395 178.400 C 204.682 179.610,205.327 181.093,205.828 181.695 C 206.679 182.716,208.000 186.377,208.000 187.713 C 208.000 188.037,208.295 188.547,208.655 188.845 C 209.424 189.483,210.561 192.030,210.938 193.959 C 211.084 194.706,211.730 196.172,212.373 197.217 C 213.016 198.263,213.846 200.351,214.217 201.859 C 214.588 203.367,215.245 204.986,215.677 205.458 C 216.108 205.930,216.871 207.640,217.371 209.258 C 217.872 210.876,218.747 212.884,219.317 213.720 C 219.886 214.556,220.553 216.212,220.800 217.400 C 221.047 218.588,221.716 220.244,222.288 221.080 C 224.600 224.462,225.232 231.526,223.493 234.558 C 221.293 238.397,215.187 238.757,212.629 235.200 C 212.076 234.430,211.166 233.159,210.608 232.376 C 210.051 231.593,209.358 230.063,209.069 228.976 C 208.781 227.889,207.782 225.830,206.850 224.400 L 205.156 221.800 201.878 221.600 C 192.828 221.048,178.082 221.621,177.847 222.534 C 177.725 223.010,176.965 224.390,176.158 225.600 C 175.352 226.810,174.474 228.610,174.208 229.600 C 172.294 236.724,166.105 240.029,161.484 236.394 C 158.547 234.085,158.470 225.632,161.363 223.231 C 161.702 222.950,162.100 222.063,162.248 221.260 C 162.663 219.008,163.552 216.706,164.353 215.811 C 164.753 215.365,165.397 213.830,165.784 212.400 C 166.172 210.970,167.004 208.810,167.634 207.600 C 168.264 206.390,169.086 204.340,169.461 203.045 C 169.837 201.750,170.533 200.220,171.008 199.645 C 171.483 199.070,172.178 197.363,172.553 195.851 C 172.927 194.340,173.661 192.540,174.183 191.851 C 174.705 191.163,175.432 189.430,175.797 188.000 C 176.162 186.570,176.973 184.590,177.599 183.600 C 178.225 182.610,179.008 180.748,179.340 179.462 C 179.672 178.176,180.385 176.466,180.923 175.662 C 181.462 174.858,182.113 173.321,182.371 172.246 C 182.837 170.301,183.281 169.369,185.724 165.218 C 187.041 162.982,190.415 160.964,192.000 161.466 C 192.330 161.570,193.140 161.759,193.800 161.885 M263.600 161.966 C 267.459 162.471,269.580 163.144,270.633 164.197 C 271.151 164.714,271.918 165.247,272.337 165.380 C 273.377 165.710,277.514 169.896,277.843 170.950 C 277.989 171.417,278.537 172.233,279.061 172.762 C 279.586 173.291,280.400 175.001,280.872 176.562 C 281.343 178.123,282.105 180.120,282.564 181.000 C 283.788 183.343,283.765 190.206,282.525 192.800 C 282.051 193.790,281.373 195.768,281.016 197.195 C 280.357 199.832,279.475 201.600,278.818 201.600 C 278.618 201.600,278.330 201.991,278.178 202.470 C 277.766 203.768,274.432 207.167,272.710 208.046 C 271.879 208.470,271.200 208.972,271.200 209.163 C 271.200 210.840,262.720 212.476,254.721 212.343 L 248.043 212.232 246.441 213.519 L 244.840 214.806 245.064 219.503 C 245.700 232.874,243.716 237.509,237.433 237.325 C 234.353 237.235,233.499 236.566,231.443 232.640 L 229.800 229.502 229.800 199.645 L 229.800 169.787 231.400 166.646 C 233.739 162.054,233.197 162.238,245.181 161.981 C 250.801 161.861,256.660 161.731,258.200 161.694 C 259.740 161.657,262.170 161.779,263.600 161.966 M317.450 162.466 C 319.352 163.360,320.465 164.749,321.244 167.200 C 321.488 167.970,321.937 168.798,322.240 169.041 C 322.936 169.598,323.861 171.793,324.387 174.141 C 324.610 175.138,325.249 176.626,325.805 177.446 C 326.362 178.266,327.104 179.942,327.453 181.169 C 327.802 182.396,328.587 184.300,329.197 185.400 C 329.807 186.500,330.540 188.390,330.826 189.600 C 331.113 190.810,331.651 192.160,332.023 192.600 C 333.047 193.810,333.468 194.776,334.193 197.572 C 334.556 198.976,335.296 200.703,335.836 201.411 C 336.376 202.119,337.091 203.748,337.425 205.030 C 337.759 206.313,338.553 208.149,339.190 209.111 C 339.827 210.072,340.615 212.030,340.942 213.463 C 341.269 214.895,341.799 216.366,342.120 216.733 C 343.013 217.753,343.797 219.574,344.388 222.000 C 344.683 223.210,345.302 224.710,345.762 225.334 C 347.236 227.328,346.979 232.235,345.300 234.147 C 344.585 234.962,344.000 235.797,344.000 236.004 C 344.000 237.242,338.964 238.099,336.714 237.243 C 335.226 236.678,332.950 234.078,332.434 232.356 C 332.174 231.489,331.516 230.123,330.972 229.321 C 330.428 228.519,329.714 226.948,329.385 225.831 C 328.151 221.632,328.309 221.675,313.540 221.566 L 301.308 221.476 299.642 222.814 C 298.726 223.550,297.876 224.613,297.753 225.176 C 297.268 227.385,296.713 228.817,295.843 230.098 C 295.344 230.834,294.724 232.042,294.466 232.782 C 292.239 239.170,284.247 239.674,282.020 233.567 C 280.802 230.226,282.147 222.285,284.350 219.811 C 284.747 219.365,285.395 217.770,285.789 216.267 C 286.184 214.765,286.918 213.045,287.422 212.447 C 287.925 211.849,288.635 210.210,288.999 208.804 C 289.583 206.551,290.326 204.823,291.581 202.800 C 291.785 202.470,292.328 200.898,292.786 199.307 C 293.244 197.715,293.951 196.095,294.356 195.707 C 294.762 195.318,295.321 194.010,295.600 192.800 C 296.133 190.489,296.935 188.614,297.830 187.588 C 298.124 187.252,298.625 185.992,298.944 184.788 C 299.730 181.818,300.334 180.336,301.102 179.487 C 301.458 179.094,302.076 177.483,302.477 175.906 C 302.927 174.132,303.585 172.642,304.202 171.997 C 304.751 171.425,305.200 170.814,305.200 170.640 C 305.200 164.580,312.122 159.961,317.450 162.466 M107.634 163.300 C 111.119 165.972,110.973 164.896,111.200 189.624 L 111.400 211.448 112.500 212.755 C 113.105 213.473,113.600 214.317,113.600 214.628 C 113.600 218.293,124.315 222.059,129.446 220.199 C 133.763 218.634,134.398 218.231,136.372 215.797 C 139.525 211.912,139.343 213.405,139.583 189.400 C 139.823 165.539,139.644 167.107,142.498 163.823 C 145.149 160.772,151.658 161.536,153.374 165.100 C 154.553 167.549,154.881 175.140,154.675 195.200 C 154.469 215.300,154.275 217.370,152.316 220.273 C 151.750 221.113,151.076 222.463,150.820 223.274 C 150.564 224.085,149.720 225.435,148.945 226.274 C 148.169 227.113,147.281 228.282,146.972 228.872 C 146.662 229.461,146.047 230.058,145.604 230.199 C 145.162 230.339,144.353 231.040,143.807 231.755 C 143.252 232.483,141.886 233.461,140.707 233.974 C 139.548 234.478,138.330 235.055,138.000 235.255 C 132.714 238.468,118.110 238.913,113.400 236.005 C 112.740 235.598,111.120 234.739,109.800 234.097 C 106.742 232.610,100.836 226.811,99.611 224.092 C 99.141 223.051,98.500 221.750,98.186 221.200 C 95.517 216.532,95.438 215.663,95.436 190.800 C 95.433 167.377,95.481 166.753,97.491 164.365 C 99.827 161.589,104.729 161.074,107.634 163.300 M246.029 179.491 L 244.800 180.982 244.802 186.591 C 244.806 196.141,244.584 195.947,255.200 195.692 C 263.056 195.503,264.419 195.053,265.773 192.200 C 267.196 189.201,266.879 182.178,265.249 180.606 C 262.711 178.159,262.052 178.000,254.411 178.000 L 247.258 178.000 246.029 179.491 M190.840 190.800 C 190.388 191.790,190.014 192.791,190.009 193.025 C 190.004 193.258,189.644 193.831,189.209 194.299 C 188.171 195.413,186.674 200.468,186.633 203.000 L 186.600 205.000 192.500 205.111 C 198.287 205.219,199.737 204.874,198.000 203.800 C 197.780 203.664,197.600 203.214,197.600 202.799 C 197.600 202.385,197.252 201.450,196.826 200.723 C 196.400 199.995,195.832 198.500,195.562 197.400 C 195.293 196.300,194.652 194.891,194.137 194.269 C 193.621 193.647,193.192 192.837,193.183 192.469 C 193.174 192.101,192.828 191.170,192.415 190.400 L 191.663 189.000 190.840 190.800 M312.719 191.085 C 311.562 191.261,311.494 191.396,310.803 194.880 C 310.555 196.134,309.896 197.832,309.338 198.653 C 307.874 200.810,307.524 201.966,307.814 203.682 L 308.070 205.200 313.392 205.200 C 317.876 205.200,318.753 205.100,318.957 204.567 C 319.612 202.861,318.889 199.747,317.428 197.978 C 316.963 197.416,316.257 195.571,315.857 193.878 C 315.093 190.634,315.178 190.710,312.719 191.085 M5.040 392.692 C 5.040 393.934,4.436 393.815,3.289 392.346 C 2.842 391.774,2.919 391.698,3.909 391.739 C 4.804 391.775,5.040 391.974,5.040 392.692 M396.711 392.346 C 395.564 393.815,394.960 393.934,394.960 392.692 C 394.960 391.974,395.196 391.775,396.091 391.739 C 397.081 391.698,397.158 391.774,396.711 392.346 M8.261 396.091 C 8.302 397.081,8.226 397.158,7.654 396.711 C 6.185 395.564,6.066 394.960,7.308 394.960 C 8.026 394.960,8.225 395.196,8.261 396.091 M393.594 395.180 C 393.585 395.515,393.072 396.143,392.346 396.711 C 391.774 397.158,391.698 397.081,391.739 396.091 C 391.775 395.196,391.974 394.960,392.692 394.960 C 393.192 394.960,393.597 395.059,393.594 395.180 "
              stroke="none" fill="#fb8b83" fill-rule="evenodd"></path>
        <path id="path2"
              d="M6.998 4.002 C 5.928 5.184,6.501 5.370,7.601 4.198 C 8.117 3.649,8.356 3.200,8.132 3.200 C 7.907 3.200,7.397 3.561,6.998 4.002 M392.399 4.198 C 392.914 4.748,393.425 5.109,393.532 5.001 C 393.798 4.735,392.379 3.200,391.868 3.200 C 391.644 3.200,391.883 3.649,392.399 4.198 M3.798 7.202 C 2.728 8.384,3.301 8.570,4.401 7.398 C 4.917 6.849,5.156 6.400,4.932 6.400 C 4.707 6.400,4.197 6.761,3.798 7.202 M395.599 7.398 C 396.114 7.948,396.625 8.309,396.732 8.201 C 396.998 7.935,395.579 6.400,395.068 6.400 C 394.844 6.400,395.083 6.849,395.599 7.398 M54.800 160.770 C 50.367 161.798,45.446 163.268,44.365 163.888 C 43.681 164.279,42.160 165.140,40.985 165.800 C 38.113 167.414,33.916 170.385,33.301 171.240 C 33.026 171.621,32.061 172.704,31.155 173.647 C 30.250 174.589,29.104 176.002,28.609 176.786 C 28.114 177.570,27.424 178.448,27.076 178.737 C 26.728 179.025,26.138 180.193,25.763 181.331 C 25.389 182.469,24.679 183.884,24.187 184.477 C 22.479 186.529,20.814 198.241,21.556 202.983 C 21.798 204.532,22.195 207.240,22.438 209.000 C 22.887 212.257,23.605 214.480,24.564 215.585 C 24.857 215.923,25.407 217.152,25.786 218.315 C 26.195 219.571,26.859 220.682,27.422 221.051 C 27.943 221.392,28.488 222.049,28.635 222.510 C 28.991 223.630,35.012 229.824,36.789 230.896 C 37.565 231.365,38.688 232.147,39.284 232.635 C 39.881 233.123,41.231 233.849,42.284 234.248 C 43.338 234.647,44.782 235.366,45.493 235.844 C 50.085 238.936,70.729 238.934,75.307 235.841 C 76.018 235.361,77.590 234.563,78.800 234.068 C 81.297 233.048,83.789 230.922,84.671 229.061 C 85.000 228.367,85.614 227.170,86.034 226.400 C 86.737 225.114,86.799 224.068,86.799 213.541 L 86.800 202.081 85.572 199.741 C 82.983 194.808,81.274 194.200,70.000 194.200 C 57.093 194.200,54.309 196.131,55.203 204.463 C 55.772 209.761,57.250 210.869,64.073 211.115 C 69.385 211.306,69.071 211.069,69.451 215.165 C 69.881 219.786,69.270 220.538,64.568 221.184 C 56.468 222.296,49.636 220.206,44.347 215.000 C 41.978 212.668,41.277 211.789,41.000 210.800 C 40.846 210.250,40.077 208.630,39.291 207.200 C 37.097 203.208,37.112 196.412,39.325 192.174 C 40.136 190.620,40.800 189.051,40.800 188.687 C 40.800 188.324,41.385 187.413,42.100 186.663 C 47.175 181.341,47.180 181.337,51.302 179.556 L 55.367 177.800 60.384 177.834 C 65.054 177.866,65.593 177.953,68.200 179.086 C 75.989 182.472,81.204 179.915,81.198 172.713 C 81.195 169.032,80.621 167.402,78.883 166.130 C 78.067 165.534,76.950 164.642,76.400 164.149 C 73.921 161.927,59.523 159.675,54.800 160.770 M189.204 162.156 C 186.555 163.218,183.426 167.838,182.371 172.246 C 182.113 173.321,181.462 174.858,180.923 175.662 C 180.385 176.466,179.672 178.176,179.340 179.462 C 179.008 180.748,178.225 182.610,177.599 183.600 C 176.973 184.590,176.162 186.570,175.797 188.000 C 175.432 189.430,174.705 191.163,174.183 191.851 C 173.661 192.540,172.927 194.340,172.553 195.851 C 172.178 197.363,171.483 199.070,171.008 199.645 C 170.533 200.220,169.837 201.750,169.461 203.045 C 169.086 204.340,168.264 206.390,167.634 207.600 C 167.004 208.810,166.172 210.970,165.784 212.400 C 165.397 213.830,164.753 215.365,164.353 215.811 C 163.552 216.706,162.663 219.008,162.248 221.260 C 162.100 222.063,161.702 222.950,161.363 223.231 C 158.470 225.632,158.547 234.085,161.484 236.394 C 166.105 240.029,172.294 236.724,174.208 229.600 C 174.474 228.610,175.352 226.810,176.158 225.600 C 176.965 224.390,177.725 223.010,177.847 222.534 C 178.082 221.621,192.828 221.048,201.878 221.600 L 205.156 221.800 206.850 224.400 C 207.782 225.830,208.781 227.889,209.069 228.976 C 209.358 230.063,210.051 231.593,210.608 232.376 C 211.166 233.159,212.076 234.430,212.629 235.200 C 215.187 238.757,221.293 238.397,223.493 234.558 C 225.232 231.526,224.600 224.462,222.288 221.080 C 221.716 220.244,221.047 218.588,220.800 217.400 C 220.553 216.212,219.886 214.556,219.317 213.720 C 218.747 212.884,217.872 210.876,217.371 209.258 C 216.871 207.640,216.108 205.930,215.677 205.458 C 215.245 204.986,214.588 203.367,214.217 201.859 C 213.846 200.351,213.016 198.263,212.373 197.217 C 211.730 196.172,211.084 194.706,210.938 193.959 C 210.561 192.030,209.424 189.483,208.655 188.845 C 208.295 188.547,208.000 188.037,208.000 187.713 C 208.000 186.377,206.679 182.716,205.828 181.695 C 205.327 181.093,204.682 179.610,204.395 178.400 C 203.773 175.776,202.925 173.630,202.173 172.782 C 201.871 172.442,201.261 170.987,200.817 169.548 C 200.372 168.109,199.628 166.588,199.163 166.167 C 198.698 165.746,198.063 164.910,197.752 164.308 C 197.142 163.127,195.711 162.250,193.800 161.885 C 193.140 161.759,192.330 161.570,192.000 161.466 C 191.670 161.361,190.412 161.672,189.204 162.156 M245.181 161.981 C 233.197 162.238,233.739 162.054,231.400 166.646 L 229.800 169.787 229.800 199.645 L 229.800 229.502 231.443 232.640 C 233.499 236.566,234.353 237.235,237.433 237.325 C 243.716 237.509,245.700 232.874,245.064 219.503 L 244.840 214.806 246.441 213.519 L 248.043 212.232 254.721 212.343 C 262.720 212.476,271.200 210.840,271.200 209.163 C 271.200 208.972,271.879 208.470,272.710 208.046 C 274.432 207.167,277.766 203.768,278.178 202.470 C 278.330 201.991,278.618 201.600,278.818 201.600 C 279.475 201.600,280.357 199.832,281.016 197.195 C 281.373 195.768,282.051 193.790,282.525 192.800 C 283.765 190.206,283.788 183.343,282.564 181.000 C 282.105 180.120,281.343 178.123,280.872 176.562 C 280.400 175.001,279.586 173.291,279.061 172.762 C 278.537 172.233,277.989 171.417,277.843 170.950 C 277.514 169.896,273.377 165.710,272.337 165.380 C 271.918 165.247,271.151 164.714,270.633 164.197 C 269.092 162.655,263.659 161.562,258.200 161.694 C 256.660 161.731,250.801 161.861,245.181 161.981 M311.031 162.194 C 308.399 163.132,305.200 167.765,305.200 170.640 C 305.200 170.814,304.751 171.425,304.202 171.997 C 303.585 172.642,302.927 174.132,302.477 175.906 C 302.076 177.483,301.458 179.094,301.102 179.487 C 300.334 180.336,299.730 181.818,298.944 184.788 C 298.625 185.992,298.124 187.252,297.830 187.588 C 296.935 188.614,296.133 190.489,295.600 192.800 C 295.321 194.010,294.762 195.318,294.356 195.707 C 293.951 196.095,293.244 197.715,292.786 199.307 C 292.328 200.898,291.785 202.470,291.581 202.800 C 290.326 204.823,289.583 206.551,288.999 208.804 C 288.635 210.210,287.925 211.849,287.422 212.447 C 286.918 213.045,286.184 214.765,285.789 216.267 C 285.395 217.770,284.747 219.365,284.350 219.811 C 282.147 222.285,280.802 230.226,282.020 233.567 C 284.247 239.674,292.239 239.170,294.466 232.782 C 294.724 232.042,295.344 230.834,295.843 230.098 C 296.713 228.817,297.268 227.385,297.753 225.176 C 297.876 224.613,298.726 223.550,299.642 222.814 L 301.308 221.476 313.540 221.566 C 328.309 221.675,328.151 221.632,329.385 225.831 C 329.714 226.948,330.428 228.519,330.972 229.321 C 331.516 230.123,332.174 231.489,332.434 232.356 C 332.950 234.078,335.226 236.678,336.714 237.243 C 338.964 238.099,344.000 237.242,344.000 236.004 C 344.000 235.797,344.585 234.962,345.300 234.147 C 346.979 232.235,347.236 227.328,345.762 225.334 C 345.302 224.710,344.683 223.210,344.388 222.000 C 343.797 219.574,343.013 217.753,342.120 216.733 C 341.799 216.366,341.269 214.895,340.942 213.463 C 340.615 212.030,339.827 210.072,339.190 209.111 C 338.553 208.149,337.759 206.313,337.425 205.030 C 337.091 203.748,336.376 202.119,335.836 201.411 C 335.296 200.703,334.556 198.976,334.193 197.572 C 333.468 194.776,333.047 193.810,332.023 192.600 C 331.651 192.160,331.113 190.810,330.826 189.600 C 330.540 188.390,329.807 186.500,329.197 185.400 C 328.587 184.300,327.802 182.396,327.453 181.169 C 327.104 179.942,326.362 178.266,325.805 177.446 C 325.249 176.626,324.610 175.138,324.387 174.141 C 323.861 171.793,322.936 169.598,322.240 169.041 C 321.937 168.798,321.488 167.970,321.244 167.200 C 319.778 162.584,315.635 160.554,311.031 162.194 M99.780 162.563 C 95.556 164.403,95.433 165.204,95.436 190.800 C 95.438 215.663,95.517 216.532,98.186 221.200 C 98.500 221.750,99.141 223.051,99.611 224.092 C 100.836 226.811,106.742 232.610,109.800 234.097 C 111.120 234.739,112.740 235.598,113.400 236.005 C 118.110 238.913,132.714 238.468,138.000 235.255 C 138.330 235.055,139.548 234.478,140.707 233.974 C 141.886 233.461,143.252 232.483,143.807 231.755 C 144.353 231.040,145.162 230.339,145.604 230.199 C 146.047 230.058,146.662 229.461,146.972 228.872 C 147.281 228.282,148.169 227.113,148.945 226.274 C 149.720 225.435,150.564 224.085,150.820 223.274 C 151.076 222.463,151.750 221.113,152.316 220.273 C 154.275 217.370,154.469 215.300,154.675 195.200 C 154.881 175.140,154.553 167.549,153.374 165.100 C 151.658 161.536,145.149 160.772,142.498 163.823 C 139.644 167.107,139.823 165.539,139.583 189.400 C 139.343 213.405,139.525 211.912,136.372 215.797 C 134.398 218.231,133.763 218.634,129.446 220.199 C 124.315 222.059,113.600 218.293,113.600 214.628 C 113.600 214.317,113.105 213.473,112.500 212.755 L 111.400 211.448 111.200 189.624 C 110.973 164.896,111.119 165.972,107.634 163.300 C 105.726 161.838,102.204 161.507,99.780 162.563 M66.749 163.021 C 77.233 164.553,82.370 169.703,79.357 175.660 C 77.761 178.815,74.960 179.188,68.000 177.175 C 51.518 172.407,36.781 183.058,36.806 199.720 C 36.813 204.304,37.476 207.735,38.684 209.447 C 39.131 210.081,39.956 211.500,40.516 212.600 C 42.642 216.772,49.012 221.399,54.378 222.668 C 57.571 223.423,67.625 223.209,68.644 222.364 C 71.051 220.365,71.686 212.819,69.630 210.632 C 68.720 209.663,68.426 209.600,64.830 209.593 C 57.559 209.581,54.017 205.134,56.871 199.600 C 58.383 196.669,60.491 196.095,69.982 196.030 C 80.104 195.961,82.097 196.560,83.988 200.235 L 85.000 202.200 85.000 213.600 L 85.000 225.000 83.800 227.400 C 82.286 230.428,78.510 232.852,71.823 235.090 L 67.400 236.569 60.200 236.576 L 53.000 236.584 48.859 235.102 C 38.068 231.241,29.409 223.789,26.200 215.601 C 25.664 214.232,25.056 212.907,24.850 212.656 C 22.985 210.386,22.174 194.571,23.679 189.800 C 29.649 170.865,46.924 160.125,66.749 163.021 M193.979 163.456 C 195.525 163.765,198.783 167.818,199.828 170.732 C 200.197 171.759,201.092 173.860,201.818 175.400 C 202.544 176.940,203.410 179.138,203.743 180.284 C 204.075 181.430,204.789 183.140,205.328 184.084 C 205.868 185.028,206.707 187.024,207.194 188.520 C 207.680 190.016,208.490 191.996,208.994 192.920 C 209.497 193.844,210.225 195.590,210.611 196.800 C 210.997 198.010,211.622 199.450,212.000 200.000 C 212.378 200.550,213.095 202.260,213.593 203.800 C 214.091 205.340,214.843 207.171,215.263 207.868 C 215.683 208.566,216.464 210.425,217.000 212.000 C 217.536 213.575,218.318 215.434,218.738 216.132 C 219.158 216.829,219.814 218.390,220.196 219.600 C 220.578 220.810,221.301 222.520,221.803 223.400 C 224.768 228.598,223.519 234.324,219.059 235.974 C 216.021 237.098,211.648 232.754,209.589 226.567 C 209.116 225.145,208.021 223.086,207.155 221.991 L 205.581 220.000 191.860 220.000 L 178.139 220.000 177.363 220.900 C 175.654 222.880,174.689 224.585,173.799 227.203 C 171.269 234.642,166.816 237.965,163.254 235.073 C 160.211 232.602,159.611 230.004,161.335 226.760 C 161.849 225.792,162.592 224.010,162.985 222.800 C 163.378 221.590,164.307 219.351,165.050 217.824 C 165.792 216.297,166.400 214.751,166.400 214.388 C 166.400 214.025,166.944 212.640,167.608 211.310 C 168.273 209.981,169.262 207.581,169.807 205.979 C 170.352 204.376,171.051 202.780,171.360 202.432 C 171.669 202.085,172.410 200.360,173.006 198.600 C 173.603 196.840,174.408 194.860,174.796 194.200 C 175.184 193.540,175.906 191.740,176.400 190.200 C 176.894 188.660,177.643 186.829,178.063 186.132 C 178.483 185.434,179.264 183.575,179.800 182.000 C 180.336 180.425,181.117 178.566,181.537 177.868 C 181.957 177.171,182.691 175.430,183.168 174.000 C 185.965 165.612,189.163 162.493,193.979 163.456 M264.034 163.607 C 272.101 165.136,279.337 172.901,281.022 181.835 C 283.039 192.529,278.874 202.491,270.188 207.746 C 266.553 209.945,265.776 210.081,255.314 210.351 C 242.972 210.668,244.268 209.390,243.994 221.520 C 243.745 232.527,243.601 233.028,240.183 234.867 C 236.123 237.052,232.934 234.602,232.003 228.585 C 231.355 224.402,231.653 170.310,232.334 168.289 C 233.058 166.142,234.952 164.146,236.708 163.679 C 238.699 163.150,261.310 163.090,264.034 163.607 M317.127 164.294 C 318.942 165.471,322.346 171.620,323.827 176.400 C 324.202 177.610,324.921 179.320,325.425 180.200 C 325.928 181.080,326.722 182.944,327.188 184.342 C 327.655 185.741,328.299 187.284,328.618 187.772 C 328.938 188.260,329.644 189.965,330.187 191.561 C 330.730 193.157,331.545 195.064,331.998 195.797 C 332.452 196.531,333.108 198.091,333.456 199.265 C 333.805 200.438,334.675 202.569,335.390 203.999 C 336.105 205.430,336.914 207.320,337.189 208.200 C 337.464 209.080,338.094 210.520,338.589 211.400 C 339.084 212.280,339.889 214.260,340.378 215.800 C 340.867 217.340,341.620 219.174,342.051 219.875 C 346.533 227.170,345.206 235.678,339.527 236.061 C 337.378 236.205,334.255 233.608,333.203 230.800 C 332.914 230.030,331.723 227.399,330.555 224.953 C 327.972 219.544,329.680 220.041,313.480 219.983 C 298.477 219.930,298.614 219.901,297.191 223.452 C 296.203 225.918,294.095 230.444,292.846 232.778 C 292.392 233.626,291.357 234.566,290.154 235.221 C 284.036 238.556,280.567 231.220,284.462 223.184 C 285.266 221.525,286.135 219.365,286.394 218.384 C 286.652 217.403,287.362 215.700,287.972 214.600 C 288.582 213.500,289.398 211.610,289.785 210.400 C 290.173 209.190,290.897 207.480,291.395 206.600 C 291.892 205.720,292.606 203.920,292.981 202.600 C 293.356 201.280,294.080 199.480,294.589 198.600 C 295.099 197.720,295.895 195.844,296.359 194.432 C 296.822 193.019,297.536 191.297,297.944 190.604 C 298.353 189.911,299.005 188.367,299.393 187.172 C 299.780 185.978,300.525 184.190,301.048 183.200 C 301.570 182.210,302.448 180.063,302.999 178.430 C 303.550 176.796,304.288 175.020,304.640 174.483 C 304.991 173.946,305.704 172.260,306.222 170.735 C 308.410 164.303,312.979 161.604,317.127 164.294 M107.542 165.776 C 108.674 166.973,109.632 168.008,109.671 168.076 C 109.709 168.144,109.852 177.920,109.987 189.800 C 110.171 205.893,110.363 211.706,110.741 212.600 C 115.555 223.970,128.942 226.288,137.331 217.202 C 140.464 213.809,140.495 213.576,140.823 190.800 C 141.146 168.400,141.225 167.703,143.758 165.018 C 146.242 162.383,150.851 163.478,152.671 167.134 C 153.733 169.270,153.783 212.310,152.727 215.200 C 150.199 222.113,149.382 223.498,145.039 228.225 C 136.799 237.194,121.421 239.008,110.104 232.346 C 106.096 229.987,100.866 224.229,99.526 220.702 C 99.087 219.546,98.377 217.829,97.948 216.886 C 96.309 213.287,95.617 170.375,97.153 167.600 C 99.693 163.011,104.182 162.223,107.542 165.776 M246.304 176.686 C 244.183 177.008,244.000 177.801,244.000 186.670 C 244.000 196.292,244.082 196.582,246.968 197.228 C 250.390 197.994,261.377 197.530,263.601 196.527 C 270.182 193.555,270.005 180.031,263.348 177.178 C 261.602 176.429,250.170 176.100,246.304 176.686 M263.082 178.990 C 266.150 180.991,267.159 183.658,266.659 188.441 C 266.022 194.536,264.549 195.467,255.200 195.692 C 244.584 195.947,244.806 196.141,244.802 186.591 L 244.800 180.982 246.029 179.491 L 247.258 178.000 254.411 178.000 C 261.347 178.000,261.611 178.030,263.082 178.990 M189.470 190.344 C 188.488 192.320,187.376 194.896,186.997 196.069 C 186.619 197.241,185.878 198.956,185.350 199.879 C 184.189 201.912,183.729 204.747,184.368 205.940 C 185.101 207.310,198.402 207.274,199.290 205.900 C 200.016 204.777,199.396 201.560,198.103 199.745 C 197.642 199.097,196.876 197.405,196.401 195.984 C 195.370 192.899,192.393 187.115,191.728 186.903 C 191.463 186.818,190.470 188.332,189.470 190.344 M312.720 188.285 C 311.686 188.442,310.000 191.585,310.000 193.355 C 310.000 193.643,309.377 195.053,308.616 196.487 C 307.855 197.921,306.870 200.423,306.426 202.047 L 305.618 205.000 306.632 205.900 C 308.525 207.582,321.600 206.999,321.600 205.233 C 321.600 204.471,318.798 196.817,318.074 195.600 C 317.442 194.539,315.220 188.735,315.203 188.100 C 315.200 187.982,314.229 188.054,312.720 188.285 M193.183 192.469 C 193.192 192.837,193.621 193.647,194.137 194.269 C 194.652 194.891,195.293 196.300,195.562 197.400 C 195.832 198.500,196.400 199.995,196.826 200.723 C 197.252 201.450,197.600 202.385,197.600 202.799 C 197.600 203.214,197.780 203.664,198.000 203.800 C 199.737 204.874,198.287 205.219,192.500 205.111 L 186.600 205.000 186.633 203.000 C 186.674 200.468,188.171 195.413,189.209 194.299 C 189.644 193.831,190.004 193.258,190.009 193.025 C 190.014 192.791,190.388 191.790,190.840 190.800 L 191.663 189.000 192.415 190.400 C 192.828 191.170,193.174 192.101,193.183 192.469 M315.857 193.878 C 316.257 195.571,316.963 197.416,317.428 197.978 C 318.889 199.747,319.612 202.861,318.957 204.567 C 318.753 205.100,317.876 205.200,313.392 205.200 L 308.070 205.200 307.814 203.682 C 307.524 201.966,307.874 200.810,309.338 198.653 C 309.896 197.832,310.555 196.134,310.803 194.880 C 311.494 191.396,311.562 191.261,312.719 191.085 C 315.178 190.710,315.093 190.634,315.857 193.878 M3.200 391.868 C 3.200 392.379,4.735 393.798,5.001 393.532 C 5.109 393.425,4.748 392.914,4.198 392.399 C 3.649 391.883,3.200 391.644,3.200 391.868 M395.599 392.602 C 395.083 393.151,394.844 393.600,395.068 393.600 C 395.579 393.600,396.998 392.065,396.732 391.799 C 396.625 391.691,396.114 392.052,395.599 392.602 M6.400 395.068 C 6.400 395.579,7.935 396.998,8.201 396.732 C 8.309 396.625,7.948 396.114,7.398 395.599 C 6.849 395.083,6.400 394.844,6.400 395.068 M392.399 395.802 C 391.883 396.351,391.644 396.800,391.868 396.800 C 392.379 396.800,393.798 395.265,393.532 394.999 C 393.425 394.891,392.914 395.252,392.399 395.802 "
              stroke="none" fill="#f6b1ac" fill-rule="evenodd"></path>
        <path id="path3"
              d="M52.800 163.605 C 37.722 166.208,24.826 180.196,23.181 195.731 C 21.241 214.059,31.603 228.951,50.600 235.137 C 56.883 237.183,70.525 235.775,77.200 232.391 C 84.414 228.733,84.597 228.269,84.599 213.600 C 84.601 196.667,84.710 196.794,70.040 196.809 C 59.855 196.819,58.671 197.116,57.181 200.037 C 54.578 205.139,58.049 209.200,65.013 209.200 C 70.274 209.200,71.207 210.211,71.191 215.887 C 71.173 222.402,70.106 223.268,61.800 223.513 C 50.921 223.833,43.890 219.942,39.214 211.014 C 28.524 190.605,47.832 169.504,70.166 177.188 C 76.685 179.431,81.581 175.568,79.335 169.953 C 77.362 165.023,63.623 161.736,52.800 163.605 M189.721 164.258 C 187.990 164.871,184.710 170.261,183.191 174.984 C 182.911 175.856,182.249 177.432,181.719 178.487 C 181.188 179.543,180.403 181.428,179.974 182.676 C 179.544 183.925,178.824 185.570,178.374 186.334 C 177.924 187.097,177.048 189.179,176.427 190.961 C 175.093 194.789,173.683 198.280,171.805 202.400 C 171.053 204.050,170.225 206.120,169.964 207.000 C 169.703 207.880,168.998 209.590,168.397 210.800 C 167.796 212.010,167.175 213.450,167.017 214.000 C 166.860 214.550,166.127 216.350,165.390 218.000 C 159.839 230.425,159.711 231.477,163.394 234.398 C 165.171 235.807,167.999 235.839,169.092 234.463 C 170.967 232.102,172.198 230.008,173.414 227.109 C 176.732 219.200,176.625 219.246,191.800 219.246 C 206.753 219.246,207.675 219.615,209.969 226.506 C 212.278 233.445,216.447 236.778,220.124 234.624 C 223.101 232.879,223.816 229.766,222.151 225.799 C 221.598 224.479,220.708 222.157,220.175 220.637 C 219.641 219.118,218.870 217.306,218.460 216.612 C 218.050 215.917,217.308 214.100,216.812 212.574 C 216.315 211.048,215.504 209.080,215.009 208.200 C 214.514 207.320,213.794 205.610,213.409 204.400 C 213.024 203.190,212.297 201.443,211.793 200.518 C 211.288 199.592,210.567 197.882,210.190 196.718 C 209.812 195.553,209.005 193.700,208.396 192.600 C 207.787 191.500,206.984 189.520,206.613 188.200 C 206.241 186.880,205.526 185.080,205.022 184.200 C 204.519 183.320,203.885 181.880,203.612 181.000 C 203.340 180.120,202.441 177.870,201.614 176.000 C 200.788 174.130,199.803 171.750,199.427 170.711 C 198.055 166.926,193.740 163.062,191.523 163.632 C 191.455 163.649,190.644 163.931,189.721 164.258 M312.515 163.888 C 310.858 164.095,308.006 167.197,307.018 169.870 C 306.625 170.932,305.890 172.562,305.384 173.492 C 304.879 174.423,303.985 176.667,303.398 178.479 C 302.812 180.291,301.912 182.500,301.399 183.387 C 300.885 184.274,300.256 185.810,300.000 186.800 C 299.743 187.790,299.116 189.357,298.605 190.282 C 298.094 191.208,297.364 192.918,296.982 194.082 C 296.601 195.247,295.754 197.269,295.100 198.576 C 294.447 199.883,293.641 201.863,293.311 202.976 C 292.980 204.089,292.215 205.990,291.610 207.200 C 291.005 208.410,290.280 210.120,290.000 211.000 C 289.719 211.880,288.884 213.811,288.145 215.290 C 287.405 216.770,286.800 218.193,286.800 218.453 C 286.800 218.714,286.051 220.553,285.135 222.541 C 282.561 228.130,282.550 233.382,285.112 234.753 C 287.628 236.099,291.497 234.875,292.644 232.369 C 292.888 231.836,293.823 229.870,294.722 228.000 C 295.622 226.130,296.719 223.740,297.161 222.688 C 298.561 219.359,299.209 219.219,313.229 219.209 C 328.887 219.197,328.137 218.955,330.980 224.949 C 332.141 227.397,333.229 229.850,333.398 230.400 C 335.548 237.401,344.400 236.797,344.400 229.649 C 344.400 227.525,342.828 221.949,341.567 219.600 C 341.154 218.830,340.378 217.030,339.844 215.600 C 338.205 211.214,335.606 205.105,334.832 203.820 C 334.429 203.149,333.781 201.610,333.394 200.400 C 333.006 199.190,332.256 197.335,331.726 196.277 C 331.197 195.219,330.251 192.969,329.625 191.277 C 328.155 187.304,325.552 181.043,324.521 179.000 C 324.077 178.120,323.594 176.904,323.448 176.297 C 322.080 170.606,316.935 163.405,314.422 163.664 C 314.080 163.699,313.222 163.800,312.515 163.888 M100.074 165.192 C 96.787 167.573,97.000 165.788,97.000 190.982 L 97.000 213.400 98.992 218.325 C 104.926 232.996,120.957 239.374,136.800 233.367 C 144.712 230.368,151.145 221.900,152.812 212.290 C 153.604 207.723,153.158 168.890,152.296 167.311 C 150.025 163.158,145.150 162.944,142.970 166.901 L 141.814 169.000 141.534 188.800 C 141.380 199.690,141.069 209.532,140.843 210.670 C 138.241 223.778,120.685 227.844,112.983 217.123 C 109.632 212.459,109.828 214.027,109.602 190.000 C 109.380 166.503,109.536 167.835,106.733 165.435 C 104.516 163.538,102.462 163.463,100.074 165.192 M236.060 164.498 C 234.458 165.025,233.007 167.063,232.429 169.600 C 231.712 172.753,231.866 227.802,232.599 230.272 C 233.838 234.445,236.899 236.091,240.110 234.313 C 243.159 232.625,243.372 231.847,243.600 221.582 C 243.876 209.119,242.687 210.193,256.628 209.826 C 262.393 209.675,265.151 209.441,266.411 208.996 C 284.816 202.502,286.369 174.639,268.813 165.899 L 265.400 164.200 251.400 164.129 C 242.100 164.082,236.950 164.206,236.060 164.498 M70.957 166.170 C 75.837 167.710,78.806 169.912,78.795 171.983 C 78.771 176.375,75.590 177.335,68.248 175.167 C 56.016 171.555,44.720 175.994,38.338 186.921 C 34.913 192.784,34.436 206.605,37.514 210.769 C 37.949 211.358,38.762 212.730,39.321 213.820 C 40.873 216.846,45.676 221.164,49.949 223.374 C 53.524 225.223,65.327 225.760,68.965 224.240 C 71.508 223.178,72.560 220.931,72.736 216.193 C 72.989 209.344,71.345 207.421,65.200 207.379 C 61.495 207.354,58.164 206.391,57.834 205.250 C 56.205 199.626,58.415 198.293,69.724 198.078 C 83.475 197.816,83.200 197.502,83.200 213.458 C 83.200 228.156,83.408 227.504,77.815 230.339 C 67.542 235.546,51.260 235.989,44.440 231.246 C 43.868 230.848,42.376 230.060,41.124 229.494 C 39.872 228.929,38.183 227.866,37.370 227.133 C 35.211 225.186,31.221 221.043,31.210 220.736 C 31.204 220.591,30.464 219.541,29.565 218.404 C 28.623 217.212,27.521 215.132,26.965 213.497 C 26.434 211.936,25.739 210.260,25.419 209.773 C 23.308 206.551,23.502 193.890,25.739 188.935 C 26.542 187.156,27.200 185.488,27.200 185.230 C 27.200 184.500,28.400 182.342,29.658 180.809 C 30.286 180.044,30.800 179.198,30.800 178.929 C 30.800 178.661,31.423 177.966,32.184 177.385 C 32.946 176.804,33.674 175.996,33.804 175.588 C 34.091 174.682,36.980 172.491,41.558 169.707 C 50.362 164.354,61.105 163.062,70.957 166.170 M193.354 165.684 C 194.259 165.951,195.228 166.446,195.508 166.784 C 197.303 168.962,198.837 171.785,199.563 174.248 C 200.025 175.814,200.738 177.524,201.147 178.048 C 201.556 178.572,202.199 180.080,202.576 181.400 C 202.953 182.720,203.759 184.700,204.368 185.800 C 204.978 186.900,205.862 189.081,206.334 190.647 C 206.805 192.213,207.449 193.708,207.763 193.970 C 208.078 194.231,208.723 195.739,209.197 197.322 C 209.671 198.905,210.485 200.855,211.005 201.655 C 211.525 202.455,212.250 204.165,212.615 205.455 C 212.981 206.745,213.774 208.700,214.378 209.800 C 214.982 210.900,215.862 213.081,216.334 214.647 C 216.805 216.213,217.464 217.721,217.798 217.999 C 218.132 218.276,218.853 219.965,219.401 221.751 C 219.948 223.538,220.757 225.589,221.198 226.310 C 221.715 227.154,222.000 228.320,222.000 229.590 C 222.000 234.031,215.863 235.340,213.812 231.337 C 213.366 230.465,212.621 229.276,212.158 228.696 C 211.696 228.116,211.017 226.573,210.651 225.269 C 209.825 222.324,208.698 220.620,206.432 218.892 L 204.674 217.551 191.618 217.676 C 176.861 217.816,177.523 217.679,175.005 221.113 C 174.244 222.151,173.158 224.374,172.593 226.054 C 172.028 227.733,171.213 229.426,170.783 229.816 C 170.352 230.205,169.999 230.721,169.998 230.962 C 169.997 231.203,169.592 231.876,169.098 232.458 C 166.649 235.344,162.078 233.316,162.514 229.536 C 162.763 227.373,164.700 221.629,165.482 220.733 C 165.802 220.366,166.504 218.681,167.041 216.988 C 167.579 215.296,168.446 213.166,168.967 212.255 C 169.489 211.345,170.319 209.297,170.812 207.704 C 171.306 206.111,171.944 204.612,172.232 204.374 C 172.519 204.135,173.244 202.468,173.842 200.670 C 174.440 198.871,175.246 196.950,175.633 196.400 C 176.020 195.850,176.800 193.848,177.366 191.951 C 177.931 190.055,178.668 188.276,179.002 187.999 C 179.336 187.721,179.990 186.239,180.456 184.704 C 180.923 183.170,181.911 180.750,182.652 179.328 C 183.393 177.906,184.000 176.454,184.000 176.101 C 184.000 175.749,184.741 173.917,185.648 172.030 C 186.554 170.144,187.469 168.223,187.682 167.762 C 187.895 167.301,188.818 166.548,189.734 166.087 C 191.768 165.064,191.390 165.107,193.354 165.684 M316.564 166.300 C 318.137 167.254,318.520 167.771,319.457 170.200 C 320.051 171.740,320.854 173.450,321.242 174.000 C 321.629 174.550,322.319 176.282,322.775 177.848 C 323.230 179.414,323.947 181.133,324.367 181.667 C 324.787 182.201,325.427 183.620,325.789 184.819 C 326.151 186.019,327.052 188.260,327.793 189.800 C 328.533 191.340,329.421 193.611,329.765 194.848 C 330.110 196.084,330.665 197.322,330.999 197.599 C 331.333 197.876,332.060 199.592,332.615 201.413 C 333.171 203.234,333.953 205.146,334.353 205.662 C 334.754 206.178,335.568 208.071,336.163 209.870 C 336.759 211.668,337.504 213.354,337.820 213.616 C 338.135 213.878,338.771 215.377,339.232 216.946 C 339.693 218.516,340.485 220.520,340.991 221.400 C 343.262 225.344,343.902 230.789,342.300 232.538 C 339.727 235.348,335.681 233.368,333.847 228.400 C 329.850 217.568,329.988 217.642,313.508 217.618 C 298.384 217.595,297.713 217.783,295.968 222.527 C 295.467 223.887,294.750 225.403,294.374 225.897 C 293.998 226.390,293.275 227.969,292.768 229.406 C 291.552 232.851,289.420 234.268,286.545 233.544 C 283.595 232.802,283.124 229.428,285.370 225.124 C 285.979 223.956,286.841 221.830,287.284 220.400 C 287.728 218.970,288.413 217.347,288.806 216.794 C 289.199 216.240,289.975 214.397,290.530 212.698 C 291.085 210.999,291.892 209.112,292.323 208.505 C 292.754 207.897,293.421 206.230,293.806 204.800 C 294.191 203.370,294.917 201.570,295.420 200.800 C 295.922 200.030,296.689 198.227,297.125 196.794 C 297.560 195.361,298.302 193.534,298.774 192.734 C 299.246 191.934,300.086 189.889,300.641 188.189 C 301.197 186.490,301.989 184.627,302.402 184.050 C 302.816 183.472,303.454 181.920,303.821 180.600 C 304.188 179.280,304.986 177.300,305.594 176.200 C 306.202 175.100,307.021 173.153,307.413 171.873 C 309.076 166.450,312.936 164.099,316.564 166.300 M106.527 167.172 C 108.751 169.633,108.795 170.087,108.801 190.400 C 108.806 209.619,109.023 212.976,110.424 215.548 C 118.006 229.472,136.906 227.496,141.508 212.299 L 142.749 208.200 142.945 188.800 C 143.171 166.451,143.176 166.420,146.659 165.867 C 148.566 165.564,151.306 167.310,151.891 169.200 C 152.061 169.750,152.200 179.470,152.200 190.800 L 152.200 211.400 150.439 216.400 C 148.619 221.568,148.041 222.496,144.000 226.731 C 134.566 236.618,115.387 236.514,105.800 226.523 C 102.258 222.832,101.308 221.451,100.482 218.800 C 100.037 217.370,99.258 215.300,98.750 214.200 C 97.665 211.852,97.027 174.809,97.993 170.306 C 98.946 165.863,103.751 164.099,106.527 167.172 M267.140 166.705 C 272.133 168.701,275.918 172.544,278.634 178.377 C 280.861 183.159,280.184 193.501,277.358 197.878 C 276.391 199.375,275.504 200.870,275.387 201.200 C 275.270 201.530,274.442 202.340,273.547 203.000 C 272.651 203.660,271.262 204.684,270.459 205.276 C 267.092 207.759,265.097 208.150,254.600 208.385 C 242.003 208.667,242.800 207.900,242.800 219.741 C 242.800 229.811,242.515 231.222,240.206 232.576 C 237.495 234.164,234.785 233.438,233.935 230.895 C 233.246 228.834,232.955 174.237,233.612 170.335 C 234.405 165.623,234.462 165.608,251.400 165.742 C 264.221 165.843,265.123 165.898,267.140 166.705 M246.242 174.389 C 242.987 175.024,242.713 176.134,242.876 188.000 C 242.995 196.671,243.034 197.047,243.927 198.300 L 244.854 199.600 253.327 199.600 L 261.800 199.600 264.000 198.445 C 266.176 197.303,267.560 195.582,269.370 191.767 C 271.945 186.339,268.909 177.506,263.668 175.180 C 261.640 174.281,249.598 173.733,246.242 174.389 M263.294 176.653 C 270.457 178.949,270.694 193.321,263.628 196.900 C 261.510 197.973,261.288 198.000,254.628 197.996 C 242.992 197.988,243.600 198.593,243.600 187.027 C 243.600 177.580,243.842 176.637,246.400 176.130 C 249.145 175.586,261.122 175.957,263.294 176.653 M190.492 185.500 C 188.961 187.710,186.459 192.645,186.007 194.347 C 185.752 195.308,184.941 197.231,184.204 198.620 C 181.947 202.874,181.920 207.078,184.140 208.519 C 185.724 209.546,198.388 209.439,199.726 208.387 C 201.974 206.618,201.363 200.536,198.600 197.200 C 198.327 196.870,197.616 195.117,197.020 193.304 C 196.425 191.491,195.769 189.904,195.563 189.777 C 195.357 189.650,194.811 188.793,194.349 187.873 C 192.642 184.471,191.635 183.851,190.492 185.500 M310.789 186.900 C 310.350 187.615,309.804 188.920,309.576 189.800 C 308.987 192.079,308.362 193.648,307.587 194.800 C 307.216 195.350,306.522 196.988,306.044 198.441 C 305.566 199.893,304.820 201.776,304.387 202.625 C 301.578 208.135,306.725 210.283,319.533 208.944 C 323.466 208.533,324.528 205.535,322.207 201.400 C 321.713 200.520,320.994 198.810,320.610 197.600 C 320.225 196.390,319.478 194.644,318.950 193.721 C 318.423 192.798,317.647 190.937,317.227 189.587 C 315.888 185.284,312.620 183.921,310.789 186.900 M192.474 187.500 C 193.430 188.620,195.853 193.256,196.393 195.000 C 196.666 195.880,197.488 197.690,198.220 199.022 C 200.045 202.340,200.380 205.013,199.165 206.555 L 198.255 207.710 192.087 207.503 C 184.433 207.245,183.746 206.918,183.892 203.593 C 183.950 202.249,184.325 200.908,184.937 199.849 C 185.462 198.942,186.207 197.210,186.594 196.000 C 187.505 193.148,190.939 186.800,191.571 186.800 C 191.739 186.800,192.145 187.115,192.474 187.500 M315.992 189.584 C 316.436 190.455,316.800 191.373,316.800 191.622 C 316.800 191.872,317.443 193.432,318.229 195.088 C 323.260 205.691,322.787 207.230,314.484 207.266 C 307.753 207.295,307.778 207.298,306.459 206.189 L 305.257 205.177 306.040 202.289 C 306.471 200.700,307.349 198.381,307.991 197.135 C 308.632 195.889,309.460 193.819,309.829 192.535 C 311.001 188.458,311.362 188.000,313.402 188.000 C 315.075 188.000,315.233 188.097,315.992 189.584 "
              stroke="none" fill="#f8c4c4" fill-rule="evenodd"></path>
        <path id="path4"
              d="M56.400 162.669 C 50.911 163.221,43.498 165.739,40.289 168.141 C 39.580 168.671,38.451 169.383,37.780 169.722 C 35.398 170.925,29.818 177.123,27.301 181.360 C 26.250 183.131,23.601 189.541,23.627 190.253 C 23.641 190.664,23.887 190.280,24.173 189.400 C 29.072 174.318,42.717 163.819,58.103 163.293 C 71.913 162.821,80.383 166.706,79.778 173.235 L 79.614 175.000 80.022 173.400 C 81.732 166.698,69.877 161.312,56.400 162.669 M189.196 164.100 C 187.206 165.110,184.833 169.007,183.168 174.000 C 182.691 175.430,181.957 177.171,181.537 177.868 C 181.117 178.566,180.336 180.425,179.800 182.000 C 179.264 183.575,178.460 185.455,178.013 186.179 C 177.566 186.902,177.206 187.653,177.212 187.847 C 177.238 188.570,179.220 184.928,179.851 183.000 C 180.211 181.900,180.998 179.994,181.601 178.764 C 182.203 177.534,182.922 175.824,183.198 174.964 C 184.789 170.011,187.979 164.882,189.869 164.238 C 193.636 162.955,197.585 165.629,199.427 170.711 C 199.803 171.750,200.795 174.130,201.630 176.000 C 202.466 177.870,203.272 179.903,203.423 180.519 C 203.573 181.134,203.782 181.551,203.888 181.445 C 204.177 181.156,203.276 178.536,201.808 175.400 C 201.088 173.860,200.197 171.759,199.828 170.732 C 197.617 164.566,193.427 161.953,189.196 164.100 M236.800 163.669 C 234.714 164.259,232.400 166.771,232.400 168.443 C 232.400 168.709,232.818 168.133,233.328 167.163 C 234.903 164.171,234.733 164.200,251.000 164.200 L 265.400 164.200 268.533 165.731 C 270.256 166.573,272.416 167.915,273.333 168.713 L 275.000 170.163 273.477 168.541 C 271.664 166.610,266.978 164.165,264.014 163.603 C 261.301 163.088,238.656 163.143,236.800 163.669 M311.335 163.714 C 309.681 164.643,307.174 167.949,306.385 170.242 C 305.320 173.339,305.662 173.442,306.811 170.371 C 310.143 161.462,316.668 161.467,320.880 170.380 C 322.022 172.798,323.042 174.692,323.145 174.589 C 323.769 173.965,318.719 165.326,317.127 164.294 C 315.286 163.100,312.861 162.857,311.335 163.714 M99.353 165.111 C 96.443 167.742,96.602 166.340,96.578 189.600 L 96.556 210.600 96.778 189.582 C 97.027 166.011,96.819 167.550,100.074 165.192 C 103.235 162.903,108.043 164.669,109.161 168.531 C 109.460 169.565,109.535 169.629,109.564 168.876 C 109.587 168.281,108.866 167.176,107.542 165.776 C 104.787 162.863,102.083 162.643,99.353 165.111 M143.758 165.018 C 141.225 167.703,141.146 168.400,140.823 190.800 C 140.547 209.965,140.489 211.118,139.688 213.300 C 138.746 215.865,138.840 216.431,139.820 214.100 C 141.067 211.136,141.258 208.315,141.534 188.800 L 141.814 169.000 142.970 166.901 C 144.637 163.874,147.365 163.151,150.103 165.011 C 153.090 167.042,152.974 166.116,153.223 189.800 L 153.446 211.000 153.423 189.800 C 153.402 170.113,153.348 168.495,152.671 167.134 C 150.851 163.478,146.242 162.383,143.758 165.018 M109.785 189.200 C 109.785 199.870,109.837 204.235,109.900 198.900 C 109.963 193.565,109.963 184.835,109.900 179.500 C 109.837 174.165,109.785 178.530,109.785 189.200 M275.884 171.443 C 277.759 174.182,279.567 177.543,280.165 179.400 C 280.762 181.256,280.791 181.286,280.571 179.819 C 280.241 177.620,276.849 171.372,275.550 170.569 C 275.298 170.413,275.448 170.806,275.884 171.443 M231.789 199.200 C 231.789 214.710,231.839 221.055,231.900 213.300 C 231.961 205.545,231.961 192.855,231.900 185.100 C 231.839 177.345,231.789 183.690,231.789 199.200 M78.776 175.829 C 76.970 178.005,73.933 178.484,70.166 177.188 C 57.521 172.838,44.563 177.375,39.180 188.039 C 37.513 191.343,38.018 190.988,39.949 187.500 C 45.159 178.089,56.602 173.877,68.000 177.175 C 74.767 179.133,77.693 178.816,79.220 175.962 C 79.715 175.038,79.489 174.970,78.776 175.829 M303.002 178.395 C 302.407 180.181,301.509 182.397,301.006 183.321 C 300.502 184.244,299.775 185.978,299.389 187.172 C 299.003 188.367,298.353 189.911,297.944 190.604 C 297.536 191.297,296.822 193.019,296.359 194.432 C 295.895 195.844,295.099 197.720,294.589 198.600 C 294.080 199.480,293.356 201.280,292.981 202.600 C 292.606 203.920,291.892 205.720,291.395 206.600 C 290.897 207.480,290.175 209.190,289.790 210.400 C 289.406 211.610,288.669 213.329,288.155 214.219 C 287.254 215.777,285.143 221.668,285.394 221.924 C 285.461 221.993,285.822 221.183,286.196 220.124 C 286.571 219.066,287.565 216.670,288.406 214.800 C 289.247 212.930,290.063 210.950,290.220 210.400 C 290.376 209.850,291.001 208.410,291.607 207.200 C 292.214 205.990,292.980 204.089,293.311 202.976 C 293.641 201.863,294.447 199.883,295.100 198.576 C 295.754 197.269,296.601 195.247,296.982 194.082 C 297.364 192.918,298.094 191.208,298.605 190.282 C 299.116 189.357,299.743 187.790,300.000 186.800 C 300.256 185.810,300.882 184.280,301.391 183.399 C 302.340 181.759,304.512 175.578,304.236 175.302 C 304.152 175.218,303.596 176.610,303.002 178.395 M246.511 176.109 C 245.097 176.398,244.000 177.276,244.000 178.121 C 244.000 178.323,244.344 178.064,244.764 177.544 C 245.514 176.618,245.682 176.597,253.464 176.468 C 264.180 176.290,265.469 176.858,267.850 182.809 C 268.208 183.702,268.575 184.358,268.667 184.266 C 268.908 184.026,266.974 179.768,266.008 178.411 C 264.518 176.319,252.454 174.895,246.511 176.109 M243.684 186.740 C 243.561 198.632,242.935 197.988,254.628 197.996 C 264.134 198.002,267.374 196.098,268.576 189.800 C 268.702 189.140,268.694 188.870,268.558 189.200 C 265.451 196.770,264.674 197.261,255.411 197.514 C 248.521 197.701,245.112 197.252,244.536 196.079 C 244.353 195.706,244.106 191.620,243.986 187.000 L 243.769 178.600 243.684 186.740 M325.725 181.627 C 326.196 182.742,326.641 183.476,326.714 183.257 C 326.844 182.868,325.336 179.600,325.026 179.600 C 324.940 179.600,325.254 180.512,325.725 181.627 M204.004 182.129 C 204.002 182.310,204.436 183.210,204.969 184.129 C 205.501 185.048,206.241 186.880,206.613 188.200 C 206.984 189.520,207.787 191.500,208.396 192.600 C 209.005 193.700,209.812 195.553,210.190 196.718 C 210.567 197.882,211.288 199.592,211.793 200.518 C 212.297 201.443,213.024 203.190,213.409 204.400 C 213.794 205.610,214.514 207.320,215.009 208.200 C 215.504 209.080,216.315 211.048,216.812 212.574 C 217.308 214.100,218.050 215.917,218.460 216.612 C 218.870 217.306,219.641 219.118,220.175 220.637 C 220.708 222.157,221.598 224.479,222.151 225.799 C 223.816 229.766,223.101 232.879,220.124 234.624 C 216.447 236.778,212.278 233.445,209.969 226.506 C 207.625 219.464,206.599 219.090,190.109 219.272 L 178.417 219.400 177.309 220.589 C 176.314 221.655,176.305 221.686,177.226 220.889 C 178.243 220.008,178.371 220.000,191.916 220.000 L 205.581 220.000 207.155 221.991 C 208.021 223.086,209.116 225.145,209.589 226.567 C 211.648 232.754,216.021 237.098,219.059 235.974 C 223.519 234.324,224.768 228.598,221.803 223.400 C 221.301 222.520,220.578 220.810,220.196 219.600 C 219.814 218.390,219.158 216.829,218.738 216.132 C 218.318 215.434,217.536 213.575,217.000 212.000 C 216.464 210.425,215.683 208.566,215.263 207.868 C 214.843 207.171,214.091 205.340,213.593 203.800 C 213.095 202.260,212.378 200.550,212.000 200.000 C 211.622 199.450,210.995 198.010,210.607 196.800 C 210.220 195.590,209.475 193.790,208.952 192.800 C 208.430 191.810,207.563 189.697,207.027 188.105 C 206.156 185.520,204.013 181.286,204.004 182.129 M281.074 187.700 C 280.427 197.392,277.329 202.773,269.800 207.286 C 266.215 209.435,265.352 209.589,255.069 209.923 C 246.492 210.202,245.531 210.303,244.899 210.994 C 244.228 211.726,244.230 211.733,244.961 211.178 C 245.552 210.729,247.871 210.544,255.361 210.351 C 265.775 210.081,266.555 209.944,270.188 207.746 C 275.287 204.661,279.062 199.793,280.431 194.535 C 281.186 191.639,281.974 184.000,281.519 184.000 C 281.410 184.000,281.210 185.665,281.074 187.700 M328.526 188.200 C 328.837 188.860,329.411 190.390,329.801 191.600 C 330.192 192.810,331.002 194.790,331.601 196.000 C 332.200 197.210,332.913 198.920,333.186 199.800 C 333.459 200.680,334.361 202.840,335.191 204.600 C 336.021 206.360,336.903 208.250,337.152 208.800 L 337.604 209.800 337.366 208.800 C 337.234 208.250,336.344 206.090,335.387 204.000 C 334.429 201.910,333.523 199.660,333.373 199.000 C 333.222 198.340,332.604 196.900,331.998 195.800 C 331.393 194.700,330.509 192.611,330.035 191.158 C 329.561 189.706,328.901 188.176,328.567 187.758 C 328.020 187.074,328.016 187.117,328.526 188.200 M310.789 189.700 C 310.365 190.635,310.023 191.670,310.030 192.000 C 310.036 192.330,310.401 191.666,310.840 190.525 C 311.488 188.837,311.839 188.419,312.719 188.285 L 313.800 188.120 312.680 188.060 C 311.728 188.009,311.445 188.254,310.789 189.700 M315.811 189.800 C 315.958 190.240,316.328 191.410,316.633 192.400 C 316.939 193.390,317.652 194.920,318.218 195.800 C 319.403 197.642,319.363 197.462,317.880 194.289 C 317.286 193.017,316.794 191.757,316.786 191.489 C 316.778 191.220,316.496 190.550,316.158 190.000 C 315.739 189.317,315.629 189.254,315.811 189.800 M193.607 189.714 C 193.603 189.887,194.138 190.967,194.796 192.114 C 195.454 193.261,195.991 194.020,195.989 193.800 C 195.986 193.323,193.617 189.260,193.607 189.714 M188.452 191.677 C 187.939 192.570,187.112 194.493,186.616 195.950 C 186.119 197.408,185.328 199.230,184.858 200.000 C 184.388 200.770,184.018 201.760,184.036 202.200 C 184.062 202.832,184.135 202.782,184.382 201.965 C 184.555 201.396,184.989 200.483,185.348 199.936 C 185.706 199.389,186.444 197.635,186.987 196.039 C 187.530 194.443,188.360 192.511,188.833 191.747 C 189.305 190.983,189.623 190.289,189.539 190.206 C 189.455 190.122,188.966 190.784,188.452 191.677 M176.032 191.215 C 176.014 191.554,175.623 192.544,175.163 193.415 C 174.217 195.206,171.970 201.303,172.179 201.512 C 172.254 201.587,172.631 200.783,173.016 199.724 C 173.402 198.666,174.334 196.399,175.087 194.686 C 175.841 192.973,176.369 191.353,176.260 191.086 C 176.135 190.778,176.052 190.825,176.032 191.215 M23.068 192.959 C 22.920 194.033,22.823 195.562,22.852 196.356 C 22.880 197.150,23.060 196.450,23.251 194.800 C 23.640 191.448,23.486 189.907,23.068 192.959 M309.142 194.613 C 308.792 195.586,308.649 196.293,308.824 196.185 C 309.199 195.953,310.148 193.215,309.929 192.995 C 309.846 192.912,309.492 193.640,309.142 194.613 M36.550 199.800 C 36.551 202.220,36.616 203.158,36.696 201.885 C 36.776 200.612,36.775 198.632,36.694 197.485 C 36.614 196.338,36.549 197.380,36.550 199.800 M196.400 195.932 C 196.400 196.532,197.501 198.905,198.380 200.200 C 198.828 200.860,199.217 201.760,199.244 202.200 C 199.280 202.793,199.337 202.833,199.465 202.355 C 199.560 202.000,198.909 200.326,198.019 198.636 C 197.128 196.945,196.400 195.729,196.400 195.932 M61.697 196.441 C 57.648 197.198,55.772 199.611,56.150 203.576 C 56.560 207.869,59.033 209.583,64.830 209.593 C 68.426 209.600,68.720 209.663,69.630 210.632 C 71.686 212.819,71.051 220.365,68.644 222.364 C 67.625 223.209,57.571 223.423,54.378 222.668 C 48.849 221.360,42.639 216.767,40.361 212.300 C 39.158 209.939,38.441 209.134,39.294 211.100 C 42.895 219.400,51.133 223.889,62.079 223.518 C 70.089 223.246,71.173 222.338,71.191 215.887 C 71.207 210.211,70.274 209.200,65.013 209.200 C 58.049 209.200,54.578 205.139,57.181 200.037 C 58.671 197.116,59.855 196.819,70.040 196.809 C 84.428 196.794,84.413 196.779,84.827 212.400 L 85.098 222.600 85.041 212.400 C 84.952 196.540,84.360 195.905,69.800 196.056 C 66.280 196.093,62.634 196.266,61.697 196.441 M319.861 199.600 C 320.317 201.402,321.252 203.603,320.984 202.244 C 320.859 201.608,320.498 200.528,320.182 199.844 C 319.751 198.908,319.671 198.848,319.861 199.600 M305.850 202.850 C 305.517 204.517,305.840 204.840,306.200 203.200 C 306.352 202.509,306.393 201.859,306.291 201.758 C 306.189 201.656,305.991 202.147,305.850 202.850 M171.243 202.549 C 170.992 202.850,170.344 204.401,169.802 205.995 C 169.260 207.589,168.273 209.981,167.608 211.310 C 166.944 212.640,166.400 214.030,166.400 214.400 C 166.400 214.770,165.867 216.140,165.215 217.444 C 163.953 219.969,162.706 223.239,162.922 223.455 C 163.044 223.577,163.501 222.529,166.177 216.000 C 166.762 214.570,167.853 212.050,168.600 210.400 C 169.346 208.750,170.082 206.860,170.235 206.200 C 170.388 205.540,170.852 204.325,171.265 203.500 C 172.042 201.949,172.033 201.596,171.243 202.549 M22.909 204.000 C 22.909 204.990,22.987 205.395,23.082 204.900 C 23.178 204.405,23.178 203.595,23.082 203.100 C 22.987 202.605,22.909 203.010,22.909 204.000 M183.600 204.376 C 183.600 205.023,183.742 205.641,183.916 205.748 C 184.090 205.856,184.161 205.327,184.073 204.572 C 183.876 202.891,183.600 202.777,183.600 204.376 M306.306 205.955 C 307.066 206.679,308.070 207.217,308.706 207.242 C 309.682 207.279,317.904 207.259,319.056 207.217 C 319.306 207.208,319.936 206.840,320.456 206.399 L 321.400 205.599 320.200 206.197 C 317.873 207.357,307.968 207.041,306.331 205.755 L 305.000 204.709 306.306 205.955 M199.200 206.000 C 198.800 206.748,198.333 206.804,192.086 206.853 C 187.284 206.892,185.964 206.995,187.400 207.218 C 191.497 207.856,198.216 207.670,198.877 206.900 C 199.655 205.995,200.104 205.200,199.838 205.200 C 199.722 205.200,199.435 205.560,199.200 206.000 M23.244 206.827 C 23.183 208.259,24.288 211.812,25.267 213.331 C 26.108 214.636,26.058 214.426,24.712 211.000 C 24.279 209.900,23.782 208.280,23.607 207.400 C 23.381 206.270,23.275 206.102,23.244 206.827 M110.059 210.200 C 109.803 220.164,124.363 226.704,133.818 220.871 C 135.679 219.723,139.476 215.766,138.275 216.227 C 137.971 216.343,137.332 216.966,136.855 217.611 C 131.412 224.974,118.078 224.234,112.918 216.283 C 110.687 212.844,110.738 212.958,110.401 210.660 C 110.113 208.690,110.098 208.670,110.059 210.200 M337.604 210.064 C 337.602 210.209,338.140 211.469,338.800 212.864 C 339.460 214.259,340.000 215.655,340.000 215.967 C 340.000 216.278,340.108 216.425,340.240 216.293 C 340.582 215.951,339.660 213.278,338.552 211.400 C 338.033 210.520,337.606 209.919,337.604 210.064 M152.712 212.826 C 152.338 215.297,149.417 222.699,148.313 223.972 L 147.423 225.000 148.493 224.000 C 150.215 222.391,153.380 214.261,153.122 212.109 C 153.017 211.236,152.930 211.389,152.712 212.826 M97.064 213.750 C 97.153 214.602,97.573 216.063,97.998 216.996 C 98.423 217.929,99.139 219.677,99.590 220.880 C 100.040 222.084,100.901 223.503,101.504 224.034 L 102.600 225.000 101.742 224.000 C 100.977 223.108,97.567 215.046,97.089 213.000 C 96.986 212.560,96.974 212.897,97.064 213.750 M243.946 212.033 C 243.916 212.125,243.781 216.340,243.646 221.400 C 243.366 231.868,243.158 232.625,240.097 234.320 C 237.364 235.834,234.510 234.799,233.145 231.800 C 232.745 230.920,232.417 230.470,232.415 230.800 C 232.403 234.270,236.909 236.629,240.183 234.867 C 243.598 233.030,243.750 232.505,244.012 221.604 C 244.207 213.475,244.192 211.278,243.946 212.033 M26.407 216.220 C 26.401 216.603,27.051 217.655,29.736 221.600 C 33.494 227.121,40.611 232.152,48.813 235.086 L 53.000 236.584 60.200 236.576 L 67.400 236.569 71.823 235.090 C 80.483 232.192,84.855 228.438,84.737 224.000 L 84.700 222.600 84.418 224.200 C 83.566 229.038,80.246 231.744,71.600 234.648 C 67.368 236.069,54.391 236.372,50.600 235.137 C 39.649 231.571,32.844 226.350,27.307 217.266 C 26.815 216.460,26.410 215.989,26.407 216.220 M340.618 217.700 C 340.768 218.195,341.055 218.776,341.256 218.991 C 341.457 219.206,341.419 218.801,341.172 218.091 C 340.665 216.638,340.197 216.308,340.618 217.700 M299.683 219.997 C 298.102 220.714,295.861 223.994,296.509 224.642 C 296.605 224.739,297.002 223.985,297.391 222.968 C 298.532 219.981,298.800 219.931,313.547 219.984 C 320.492 220.008,326.629 220.114,327.187 220.218 C 327.878 220.347,327.755 220.225,326.800 219.834 C 324.364 218.837,301.943 218.971,299.683 219.997 M343.048 223.432 C 344.802 228.636,344.841 231.014,343.213 233.381 C 341.055 236.517,337.135 236.097,334.400 232.437 C 333.974 231.867,333.620 231.608,333.613 231.863 C 333.598 232.405,337.473 235.980,338.143 236.042 C 341.638 236.367,344.240 234.201,344.833 230.474 C 345.144 228.523,343.466 221.864,342.243 220.191 C 341.951 219.791,342.313 221.250,343.048 223.432 M329.836 223.451 C 330.966 225.932,332.899 229.300,332.332 227.800 C 331.802 226.402,328.815 220.400,328.649 220.400 C 328.537 220.400,329.071 221.773,329.836 223.451 M283.885 224.300 C 282.608 227.090,282.623 232.471,283.912 234.279 C 285.919 237.092,290.993 236.240,292.846 232.778 C 294.101 230.432,296.400 225.571,296.393 225.278 C 296.380 224.740,294.007 229.016,293.551 230.400 C 291.916 235.358,286.281 237.167,283.957 233.480 C 282.888 231.783,283.068 227.091,284.310 224.300 C 284.775 223.255,285.065 222.400,284.955 222.400 C 284.845 222.400,284.364 223.255,283.885 224.300 M102.736 225.840 C 104.170 228.656,110.455 233.002,115.896 234.941 C 126.572 238.746,142.923 233.988,147.306 225.800 C 147.542 225.360,146.489 226.274,144.967 227.830 C 134.590 238.443,116.123 238.266,104.854 227.445 C 103.454 226.100,102.501 225.378,102.736 225.840 M173.233 227.512 C 172.395 229.754,171.149 231.877,169.370 234.095 C 165.890 238.435,159.133 232.763,161.380 227.387 C 161.698 226.624,161.869 226.000,161.759 226.000 C 160.614 226.000,160.069 231.129,161.043 232.738 C 164.651 238.698,170.678 236.292,173.629 227.715 C 174.661 224.715,174.340 224.551,173.233 227.512 M332.629 229.200 C 332.776 229.750,333.064 230.470,333.267 230.800 C 333.525 231.217,333.557 231.095,333.371 230.400 C 333.224 229.850,332.936 229.130,332.733 228.800 C 332.475 228.383,332.443 228.505,332.629 229.200 "
              stroke="none" fill="#fcc4bc" fill-rule="evenodd"></path>
    </g>
</svg>
