<svg width="250" height="250" viewBox="0 0 250 250" fill="none" xmlns="http://www.w3.org/2000/svg">
<path d="M187.5 239.583H62.5003C59.7377 239.583 57.0881 238.486 55.1346 236.532C53.1811 234.579 52.0837 231.929 52.0837 229.167C52.0837 226.404 53.1811 223.754 55.1346 221.801C57.0881 219.847 59.7377 218.75 62.5003 218.75H187.5C190.263 218.75 192.913 219.847 194.866 221.801C196.82 223.754 197.917 226.404 197.917 229.167C197.917 231.929 196.82 234.579 194.866 236.532C192.913 238.486 190.263 239.583 187.5 239.583ZM239.584 62.5V145.833C239.584 152.673 238.236 159.446 235.619 165.765C233.002 172.084 229.165 177.825 224.329 182.662C219.492 187.498 213.751 191.335 207.432 193.952C201.113 196.569 194.34 197.917 187.5 197.917H62.5003C55.6606 197.917 48.8879 196.569 42.5689 193.952C36.2499 191.335 30.5082 187.498 25.6718 182.662C15.9043 172.894 10.417 159.647 10.417 145.833V62.5C10.417 48.6866 15.9043 35.439 25.6718 25.6715C35.4394 15.904 48.687 10.4166 62.5003 10.4166H187.5C194.34 10.4166 201.113 11.7638 207.432 14.3812C213.751 16.9987 219.492 20.8351 224.329 25.6715C229.165 30.5079 233.002 36.2495 235.619 42.5685C238.236 48.8876 239.584 55.6603 239.584 62.5ZM52.0837 83.3333C52.0837 86.096 53.1811 88.7455 55.1346 90.699C57.0881 92.6525 59.7377 93.75 62.5003 93.75H125C127.763 93.75 130.413 92.6525 132.366 90.699C134.32 88.7455 135.417 86.096 135.417 83.3333C135.417 80.5706 134.32 77.9211 132.366 75.9676C130.413 74.0141 127.763 72.9166 125 72.9166H62.5003C59.7377 72.9166 57.0881 74.0141 55.1346 75.9676C53.1811 77.9211 52.0837 80.5706 52.0837 83.3333ZM197.917 125C197.917 122.237 196.82 119.588 194.866 117.634C192.913 115.681 190.263 114.583 187.5 114.583H62.5003C59.7377 114.583 57.0881 115.681 55.1346 117.634C53.1811 119.588 52.0837 122.237 52.0837 125C52.0837 127.763 53.1811 130.412 55.1346 132.366C57.0881 134.319 59.7377 135.417 62.5003 135.417H187.5C190.263 135.417 192.913 134.319 194.866 132.366C196.82 130.412 197.917 127.763 197.917 125Z" fill="#F1837E" fill-opacity="0.58"/>
</svg>
