<svg width="250" height="220" viewBox="0 0 250 220" fill="none" xmlns="http://www.w3.org/2000/svg">
<path d="M10.6094 146.484H73.7305C114.114 146.484 146.973 113.625 146.973 73.2422C146.973 32.8589 114.114 0 73.7305 0C33.3472 0 0 32.8589 0 73.2422C0 92.5469 8.09863 110.972 21.5381 124.626L10.6094 146.484ZM81.0547 117.188H66.4062V102.539H81.0547V117.188ZM73.7305 29.2969C89.8882 29.2969 103.027 42.436 103.027 58.5938C103.027 69.5371 96.9976 79.4937 87.2915 84.5645C83.4438 86.5815 81.0547 90.8804 81.0547 95.2148H66.4062C66.4062 85.0439 71.8066 76.1318 80.4966 71.5898C85.3604 69.0435 88.3789 64.0654 88.3789 58.5938C88.3789 50.5186 81.8057 43.9453 73.7305 43.9453C65.6553 43.9453 59.082 50.5186 59.082 58.5938H44.4336C44.4336 42.436 57.5728 29.2969 73.7305 29.2969Z" fill="#F1837E" fill-opacity="0.58"/>
<path d="M161.543 74.7773C160.896 111.941 137.09 143.473 103.955 155.666C108.531 191.683 139.029 219.727 176.269 219.727H239.39L228.461 197.868C241.901 184.214 250 165.789 250 146.484C250 106.034 216.719 73.2422 176.269 73.2422C171.32 73.2418 166.385 73.7563 161.543 74.7773ZM212.89 168.457H154.296V153.809H212.89V168.457ZM212.89 139.16H154.296V124.512H212.89V139.16Z" fill="#F1837E" fill-opacity="0.58"/>
</svg>
