<svg width="18" height="18" viewBox="0 0 18 18" fill="none" xmlns="http://www.w3.org/2000/svg">
<path d="M11.25 17.0625H6.75C3.4425 17.0625 2.4375 16.0575 2.4375 12.75V5.25C2.4375 1.9425 3.4425 0.9375 6.75 0.9375H11.25C14.5575 0.9375 15.5625 1.9425 15.5625 5.25V12.75C15.5625 16.0575 14.5575 17.0625 11.25 17.0625ZM6.75 2.0625C4.065 2.0625 3.5625 2.5725 3.5625 5.25V12.75C3.5625 15.4275 4.065 15.9375 6.75 15.9375H11.25C13.935 15.9375 14.4375 15.4275 14.4375 12.75V5.25C14.4375 2.5725 13.935 2.0625 11.25 2.0625H6.75Z" fill="#C1C2D2"/>
<path d="M10.5 4.6875H7.5C7.1925 4.6875 6.9375 4.4325 6.9375 4.125C6.9375 3.8175 7.1925 3.5625 7.5 3.5625H10.5C10.8075 3.5625 11.0625 3.8175 11.0625 4.125C11.0625 4.4325 10.8075 4.6875 10.5 4.6875Z" fill="#FF8B85"/>
<path d="M9.00002 14.895C8.04752 14.895 7.27502 14.1225 7.27502 13.17C7.27502 12.2175 8.04752 11.445 9.00002 11.445C9.95252 11.445 10.725 12.2175 10.725 13.17C10.725 14.1225 9.95252 14.895 9.00002 14.895ZM9.00002 12.5625C8.67002 12.5625 8.40002 12.8325 8.40002 13.1625C8.40002 13.4925 8.67002 13.7625 9.00002 13.7625C9.33002 13.7625 9.60003 13.4925 9.60003 13.1625C9.60003 12.8325 9.33002 12.5625 9.00002 12.5625Z" fill="#C1C2D2"/>
</svg>
