<svg width="57" height="57" viewBox="0 0 57 57" fill="none" xmlns="http://www.w3.org/2000/svg">
<rect x="0.126953" y="0.5" width="56" height="56" rx="16" fill="#FF7C75"/>
<path opacity="0.3" d="M33.5396 15.2466H22.713C18.3389 15.2466 14.793 18.7925 14.793 23.1666V33.8733C14.793 38.2473 18.3389 41.7932 22.713 41.7932H33.5396C37.9137 41.7932 41.4596 38.2473 41.4596 33.8733V23.1666C41.4596 18.7925 37.9137 15.2466 33.5396 15.2466Z" fill="white"/>
<path d="M35.0327 23.8066L34.246 23.1666C34.0141 22.9904 33.7307 22.8949 33.4394 22.8949C33.148 22.8949 32.8647 22.9904 32.6327 23.1666L31.8594 23.8066C31.6641 23.9461 31.4347 24.0302 31.1956 24.0501C30.9564 24.0701 30.7164 24.0251 30.5006 23.92C30.2849 23.8148 30.1016 23.6534 29.9699 23.4528C29.8383 23.2522 29.7633 23.0197 29.7527 22.78V15.26C29.7527 14.9063 29.8932 14.5672 30.1432 14.3172C30.3933 14.0671 30.7324 13.9266 31.086 13.9266H35.8727C36.2263 13.9266 36.5655 14.0671 36.8155 14.3172C37.0656 14.5672 37.206 14.9063 37.206 15.26V22.78C37.2044 23.0311 37.1318 23.2768 36.9967 23.4885C36.8616 23.7002 36.6694 23.8695 36.4422 23.9768C36.2151 24.0841 35.9623 24.125 35.7129 24.0949C35.4636 24.0648 35.2278 23.9649 35.0327 23.8066ZM30.606 28.5C30.6078 28.3658 30.5829 28.2326 30.5328 28.1081C30.4826 27.9836 30.4083 27.8703 30.314 27.7748C30.2197 27.6793 30.1074 27.6034 29.9836 27.5517C29.8598 27.4999 29.7269 27.4733 29.5927 27.4733H22.7927C22.6585 27.4733 22.5256 27.4999 22.4018 27.5517C22.278 27.6034 22.1657 27.6793 22.0714 27.7748C21.9771 27.8703 21.9028 27.9836 21.8526 28.1081C21.8025 28.2326 21.7776 28.3658 21.7794 28.5C21.7776 28.6348 21.8024 28.7687 21.8524 28.8939C21.9024 29.0191 21.9765 29.1333 22.0706 29.2299C22.1647 29.3264 22.2769 29.4035 22.4008 29.4567C22.5247 29.5099 22.6579 29.5382 22.7927 29.54H29.5927C29.7275 29.5382 29.8607 29.5099 29.9846 29.4567C30.1085 29.4035 30.2207 29.3264 30.3148 29.2299C30.4089 29.1333 30.483 29.0191 30.533 28.8939C30.583 28.7687 30.6078 28.6348 30.606 28.5ZM33.6994 33.74C33.6994 33.4664 33.5917 33.2039 33.3995 33.0093C33.2073 32.8146 32.9462 32.7035 32.6727 32.7H21.8994C21.6235 32.7 21.359 32.8095 21.164 33.0046C20.9689 33.1996 20.8594 33.4641 20.8594 33.74C20.8594 34.0158 20.9689 34.2803 21.164 34.4754C21.359 34.6704 21.6235 34.78 21.8994 34.78H32.6727C32.9439 34.7765 33.2031 34.6672 33.3949 34.4754C33.5866 34.2837 33.6959 34.0245 33.6994 33.7533V33.74Z" fill="white"/>
</svg>
