<svg width="57" height="57" viewBox="0 0 57 57" fill="none" xmlns="http://www.w3.org/2000/svg">
<rect x="0.126953" y="0.5" width="56" height="56" rx="16" fill="#FF7169"/>
<path d="M22.2459 32.3533C21.9913 32.3525 21.7472 32.252 21.5659 32.0733C21.3786 31.8858 21.2734 31.6317 21.2734 31.3667C21.2734 31.1017 21.3786 30.8475 21.5659 30.66L24.7526 27.3267C25.1187 26.9472 25.6147 26.7199 26.1412 26.6902C26.6677 26.6605 27.1861 26.8307 27.5926 27.1667L29.6459 28.8333C29.6571 28.845 29.6705 28.8543 29.6854 28.8607C29.7003 28.867 29.7164 28.8703 29.7326 28.8703C29.7488 28.8703 29.7648 28.867 29.7797 28.8607C29.7946 28.8543 29.808 28.845 29.8192 28.8333L33.2992 25.0067C33.3826 24.8956 33.4882 24.8032 33.6092 24.7352C33.7303 24.6672 33.8641 24.6251 34.0023 24.6117C34.1405 24.5983 34.28 24.6138 34.4119 24.6573C34.5437 24.7007 34.6651 24.7712 34.7683 24.8641C34.8714 24.957 34.9541 25.0704 35.011 25.1971C35.0679 25.3237 35.0979 25.4608 35.0989 25.5996C35.0999 25.7385 35.072 25.876 35.017 26.0035C34.962 26.1309 34.881 26.2455 34.7792 26.34L31.2992 30.1667C30.9334 30.57 30.4271 30.8181 29.8843 30.8602C29.3414 30.9024 28.8029 30.7353 28.3792 30.3933L26.3259 28.7133C26.3159 28.702 26.3036 28.6929 26.2898 28.6867C26.276 28.6804 26.261 28.6772 26.2459 28.6772C26.2308 28.6772 26.2158 28.6804 26.202 28.6867C26.1882 28.6929 26.1759 28.702 26.1659 28.7133L22.9792 32.0467C22.785 32.2419 22.5213 32.3522 22.2459 32.3533Z" fill="white"/>
<path d="M38.1529 42.2733L37.3395 41.8333C37.1565 41.7227 36.9467 41.6643 36.7329 41.6643C36.519 41.6643 36.3092 41.7227 36.1262 41.8333L35.2995 42.3266C35.0941 42.4452 34.8584 42.501 34.6216 42.4871C34.3848 42.4732 34.1573 42.3901 33.9672 42.2483C33.777 42.1064 33.6327 41.9119 33.5519 41.6888C33.4712 41.4658 33.4576 41.224 33.5129 40.9933L33.7129 40.0599C33.7501 39.8456 33.7343 39.6254 33.6669 39.4186C33.5996 39.2117 33.4826 39.0245 33.3262 38.8733L32.6195 38.2333C32.4445 38.0737 32.3188 37.8673 32.2573 37.6386C32.1958 37.4098 32.2012 37.1682 32.2727 36.9424C32.3443 36.7166 32.479 36.516 32.661 36.3643C32.8429 36.2126 33.0645 36.1163 33.2995 36.0866L34.2329 35.9799C34.4477 35.9567 34.6525 35.8764 34.8259 35.7475C34.9994 35.6186 35.1353 35.4456 35.2195 35.2466L35.5129 34.5533C35.6234 34.3314 35.7937 34.1447 36.0045 34.0143C36.2153 33.8838 36.4583 33.8147 36.7062 33.8147C36.9541 33.8147 37.1971 33.8838 37.4079 34.0143C37.6187 34.1447 37.7889 34.3314 37.8995 34.5533L38.1929 35.2333C38.2771 35.4323 38.413 35.6052 38.5864 35.7342C38.7599 35.8631 38.9647 35.9433 39.1795 35.9666L40.1129 36.0599C40.349 36.0875 40.5722 36.1823 40.7559 36.3331C40.9397 36.4839 41.0762 36.6843 41.1493 36.9105C41.2224 37.1367 41.2289 37.3791 41.168 37.6089C41.1072 37.8387 40.9816 38.0462 40.8062 38.2066L40.1129 38.8466C39.9516 38.994 39.8322 39.1814 39.7666 39.3897C39.7011 39.5981 39.6917 39.8201 39.7395 40.0333L39.9395 40.9799C39.9849 41.2077 39.9639 41.4437 39.8791 41.6599C39.7942 41.8761 39.6491 42.0635 39.461 42.1996C39.2729 42.3358 39.0496 42.4152 38.8177 42.4282C38.5858 42.4413 38.3551 42.3875 38.1529 42.2733Z" fill="white"/>
<path opacity="0.3" d="M31.5663 40.5L31.6596 40.0066L31.2996 39.6733C30.8341 39.2474 30.5001 38.6972 30.337 38.0877C30.174 37.4782 30.1888 36.8347 30.3796 36.2333C30.5582 35.6398 30.9052 35.1109 31.3786 34.7109C31.852 34.3109 32.4313 34.057 33.0463 33.98H33.5396L33.6463 33.7133C33.8966 33.1198 34.3155 32.6127 34.8511 32.2549C35.3867 31.897 36.0155 31.7041 36.6596 31.7C37.3038 31.696 37.9346 31.8841 38.4713 32.2404C39.0081 32.5966 39.4264 33.1048 39.673 33.7L39.793 33.9533H40.273C40.6665 33.9979 41.0472 34.1202 41.393 34.3133C41.393 34.14 41.393 33.9666 41.393 33.78V23.1666C41.4035 22.1265 41.2091 21.0946 40.8208 20.1296C40.4325 19.1647 39.858 18.2857 39.1299 17.5428C38.4019 16.7999 37.5347 16.2077 36.5778 15.8C35.6209 15.3923 34.5931 15.1771 33.553 15.1666H22.6863C20.5831 15.1947 18.5756 16.0499 17.0983 17.5472C15.621 19.0444 14.7928 21.0632 14.793 23.1666V33.8333C14.7926 35.9299 15.6153 37.9428 17.084 39.4389C18.5527 40.9351 20.5501 41.7949 22.6463 41.8333H31.5263C31.4474 41.3909 31.461 40.9369 31.5663 40.5Z" fill="white"/>
</svg>
