<svg width="57" height="57" viewBox="0 0 57 57" fill="none" xmlns="http://www.w3.org/2000/svg">
<path d="M0.126953 16.5C0.126953 7.66344 7.2904 0.5 16.127 0.5H40.127C48.9635 0.5 56.127 7.66344 56.127 16.5V40.5C56.127 49.3366 48.9635 56.5 40.127 56.5H16.127C7.2904 56.5 0.126953 49.3366 0.126953 40.5V16.5Z" fill="#FF7169"/>
<path opacity="0.3" d="M26.2472 41.3533L19.5805 37.6066C18.9809 37.2666 18.4814 36.7745 18.1326 36.1799C17.7838 35.5853 17.598 34.9093 17.5939 34.2199V26.6066C17.5885 25.9176 17.7612 25.2388 18.0952 24.6361C18.4293 24.0334 18.9133 23.5272 19.5005 23.1666L26.0739 19.2999C26.674 18.9611 27.3514 18.7831 28.0405 18.7831C28.7297 18.7831 29.4071 18.9611 30.0072 19.2999L36.6739 23.0466C37.2702 23.3939 37.7665 23.8894 38.1146 24.4852C38.4627 25.081 38.6508 25.7567 38.6605 26.4466L38.7272 34.0599C38.7275 34.7493 38.5497 35.427 38.211 36.0274C37.8722 36.6278 37.3841 37.1304 36.7939 37.4866L30.2205 41.3399C29.6195 41.696 28.9343 41.885 28.2357 41.8873C27.5371 41.8897 26.8506 41.7053 26.2472 41.3533Z" fill="white"/>
<path d="M26.0742 19.3133C26.6743 18.9745 27.3517 18.7964 28.0409 18.7964C28.73 18.7964 29.4074 18.9745 30.0075 19.3133L35.8742 22.6333V19.0466C35.8637 18.0139 35.446 17.0271 34.712 16.3006C33.978 15.5741 32.9869 15.1666 31.9542 15.1666H24.3009C23.2681 15.1666 22.2771 15.5741 21.543 16.3006C20.809 17.0271 20.3914 18.0139 20.3809 19.0466V22.66L26.0742 19.3133Z" fill="white"/>
<path d="M29.74 33.8333L28.4067 33.3666C28.2042 33.2933 27.9825 33.2933 27.78 33.3666L26.4467 33.82C26.304 33.8697 26.1514 33.884 26.002 33.8617C25.8525 33.8394 25.7107 33.7812 25.5888 33.692C25.4668 33.6028 25.3683 33.4854 25.3018 33.3497C25.2352 33.2141 25.2026 33.0643 25.2067 32.9133V31.5133C25.2076 31.2968 25.1374 31.0859 25.0067 30.9133L24.2333 29.8333C24.1404 29.7128 24.0784 29.5715 24.0526 29.4215C24.0268 29.2716 24.038 29.1176 24.0854 28.973C24.1327 28.8284 24.2146 28.6976 24.3241 28.5919C24.4335 28.4862 24.5672 28.4089 24.7133 28.3666L26.0467 27.9666C26.2522 27.909 26.4313 27.7818 26.5533 27.6066L27.3533 26.46C27.4388 26.3335 27.554 26.2299 27.6888 26.1583C27.8237 26.0866 27.974 26.0492 28.1267 26.0492C28.2793 26.0492 28.4297 26.0866 28.5645 26.1583C28.6993 26.2299 28.8145 26.3335 28.9 26.46L29.6867 27.62C29.8062 27.7976 29.9863 27.9256 30.1933 27.98L31.5267 28.3933C31.6717 28.4371 31.8039 28.5156 31.9119 28.622C32.0198 28.7283 32.1002 28.8594 32.1462 29.0038C32.1921 29.1482 32.2022 29.3016 32.1756 29.4508C32.149 29.5999 32.0864 29.7404 31.9933 29.86L31.14 30.9666C31.0072 31.1374 30.9408 31.3506 30.9533 31.5666V32.9C30.9603 33.0501 30.9309 33.1997 30.8677 33.336C30.8044 33.4724 30.7092 33.5914 30.5901 33.6831C30.4709 33.7747 30.3315 33.8362 30.1835 33.8624C30.0355 33.8885 29.8833 33.8786 29.74 33.8333Z" fill="white"/>
</svg>
